<?xml version="1.0" encoding="UTF-8"?>
<svg id="Layer_2" data-name="Layer 2" xmlns="http://www.w3.org/2000/svg" viewBox="0 0 1368.17 1125.95">
  <g id="Layer_1-2" data-name="Layer 1">
    <path d="M1367.12,639.43c-1.19-1.04-5.85-7.07-6.27-7.31-1.49-.83-4.49.62-5.77-1.72,4.15-3.51,2.53-9.79,9.99-9.51l-.11-8.43c-.45-2.41-7.28.06-6.98-7.04.3-6.88,10.47-13.97,10.18-19.03-.26-4.46-5.84-5.8-6.16-9.05-.38-3.91,5.5-5.01,5.11-8.9-.22-2.14-3.24-3.55-3.85-6.26-1.43-6.39.58-16.07-.18-20.74-.42-2.56-3.84-3.46-3.03-6.55,11.41.32-.6-8.5,2.02-12,7.34,2.68,2.51-.76,2.02-3.53-.62-3.49.25-7.43-.48-11.52-1.3-7.25-8.86-15.34-8.6-22.51.08-2.33,1.9-3.42,2.07-5,.25-2.31-1.82-3.84-1.9-5.88-.07-1.95,1.71-4.57.76-6.92-.95-2.7-5.53-.25-7.77-4.25-1.42-2.54-.61-4.73-1.34-6.66-1.01-2.66-3.53-3.99-3.59-8.54-.03-2.53,2.25-3.44,1.39-5.17-.93-1.87-5.85-6.2-7.65-9.44-5.26-9.47-8.49-16.21-15.93-25.07-1.17-1.4-3.84-2.13-4.51-3.49-1.19-2.45.26-6.44-.92-8.08-.35-.48-8.54-3.23-10.06-5.94-.95-1.69-.39-4.61-1.18-6.82-7.61-21.12-24.21-26.36-42.01-35.99-4.39-2.37-10.67-4.08-4.33-8.68l-14.09-12.92c-1.24-3.07.24-6.49-1.16-9.82-.82-1.95-2.69-2.58-3.23-3.77-.94-2.08-.02-4.33-1.43-6.57-1.05-1.66-4.23-2.71-5.64-4.36-3.67-4.27-2.68-10.68-11.43-8.06.99-6.05-7.89-9.1-9.52-14.08-.88-2.69,1.36-3.82-1.47-7.16-.5-.59-5.67-5.14-6.04-5.3-1.38-.59-3.57,1.15-4.52-.41.55-6.95-2.66-6.03-5.48-9.54-1.7-2.12-2.74-5.92-4.74-7.54-2.1-1.7-5.43-1.7-6.75-2.96-1.96-1.88-.87-5.33-1.73-6.78-.91-1.55-8.4-5.86-10.78-5.71l-.97-1.01,1.92-2.88c-.23-1.47-17.89-19.5-20.47-21.59-3.79-3.08-10.6-5.71-13-8-3.05-2.91-4.5-9.76-9.94-13.06-3.73-2.26-11.11-2.16-14.12-4.96-2.03-1.89.23-3.43-.88-5.97-2.51-5.75-7.39-.89-11.07-.97-6.39-.15-4.84-7.35-7.43-10.6-3.12-3.92-12.83-9.39-15.59-13.41-1.48-2.15-1.36-4.61-2.87-6.13-3.05-3.09-11.06-3.16-13.98-5.02-1.8-1.15-2.08-3.68-3.67-5.33-2.08-2.15-5.41-3.03-7.42-4.58-1.94-1.5-4.89-5.74-6.52-6.48-3.28-1.48-9.51.51-12.68-1.83-2.16-1.59-1.62-6.12-3.95-7.55-.67-.41-10.45-2.85-11.94-3.06-2.39-.34-12.41.81-12.4-1.58l2.97-4.48c-3.62.19-5.5-4.57-7.02-5.56-1.76-1.14-6.09,1.5-9.31.38-2.19-.76-3.41-6.23-5.31-6.78l-6.36,1.94,1-3.99c-5.29,1.35-8.35-3.3-11.02-4.49-2.11-.94-4.64-.23-6.77-1.23-2.61-1.22-1.95-4.5-3.84-5.16-5.03-1.77-12.43,2.26-13.79,1.85-1.63-.5-1.19-3.25-1.79-3.77-.77-.66-3.39.17-4.92-1.63-.18-8.55-2.73-4.25-8.17-5.79-1.19-.34-2.14-1.97-3.43-2.56-7.91-3.62-5.95,1.27-9.72,3.81-2.88,1.94-8.52,3.29-7.54-2.04h6.99s-1.14-4.86-1.14-4.86l-9.86-1.15.05-4.53c-2.32-.82-4.7-.21-7.09-.91-3.24-.95-8.99-9.09-11.48-3.53-.57,1.28.77,2.77.08,3.98-2.66,4.68-4.41-2.61-4.7-2.85-.74-.62-3.67.4-5.46-1.05-1.44-1.16-1.21-3.96-2.35-5.65-7.98-11.73-27.19-8.66-39.23-12.77-7.06-2.41-13.72-8.34-22.56-10.44-6.74-1.6-16.37-1.29-23.48-4.52-3.86-1.76-7.34-8.91-9.45-9.55-5.94-1.81-14.55,1.12-20.31,2.81.31-2.96,9.33-6.88,2.27-8.85-3.81-1.06-5.26,2.94-8.55,2.68-3.7-.29-2.49-4.24-4.73-5.4-1.33-.69-4.18.95-6.42.58-1.53-.25-2.64-1.86-4.12-2-1.34-.12-2.96,1.04-3.88.84-1.3-.29-1.57-2.71-2.58-3.35-1.71-1.09-16.38.3-19.07.93-4.73,1.12-6.85,6.95-13.84,4.48l-.09-4.91h-2.71c-.12.08-.25.15-.38.21-.21.09-.42.17-.64.26,1.06,2.24-.24,6.01-2.76,5.52-1.87-.36-1.17-2.84-1.02-4.25-2.25.59-4.53.92-6.83,1.1l-10.66,4.14c-.62-1.65.31-2.9,1.61-3.98-1.56-.03-3.13-.06-4.7-.08-.06,0-.11-.01-.16-.02-.25.57-.78,1.11-1.76,1.6-2.68,1.33-4.16-.42-5.36-1.15-.77.29-1.54.56-2.32.8-.57.65-1.21,1.39-2,1.63-1.8.56-4.09.25-6.21.16-8.49,1.43-17.52,1.86-26.18,1.56.01,3.24-1.68,6.29-4.4,5.47-1.31-.4-1.27-3.38-2.56-4.45-.84-.7-2.84-.55-3.5-1.5-.2-.29-.31-.61-.37-.96-3.05.36-5.62,1.88-8.41,3.12-2.94,1.3-6.02,2.13-9.15,2.86-2.48.58-4.99.95-7.51,1.27,0,.34-.02.68-.12,1.02-1.03,3.61-12.82,4.16-15.84,5.21-4.25,1.47-3.72,5.07-4.09,5.42-.58.55-3.24-.97-4.35-.76-1.16.22-1.99,2.25-3.33,2.64-3.21.94-5.24-2.06-9.68,1.28-2.82,2.13-.22,3.72-.61,6.86-2.56.36-3.11-2.88-5.55-3.06-2.17-.16-3.12,1.73-4.15,1.9-1.23.21-2.46-1.95-4.71-1.87-2.16.08-3.49,2.1-5.34,2.8-.93.35-2.54-.7-3.29-.26-1.07.64-.71,2.94-3.44,3.5-5.02,1.04-8.63-1.03-11.36-2.56-.46.12-.96.19-1.51.17-2-.07-3.92.17-5.79.61-1.03.71-2.16,1.25-3.38,1-3.99,1.41-7.84,3.44-11.82,4.9-6.51,2.39-12.89,2.55-19.11-.02-.7.97-1.44,1.92-2.24,2.79.55.65.96,1.41.77,2.52-3.69,1.69-4.19,4.9-5.12,8.56-5.41-.74-9.42.62-14.27-2.81-3.09,2.72-5.56,4.11-8.25,4.3-7.53,3.31-16.46,2.98-24.11-.57l-5.04,3.95c-.18-.03-.36-.06-.55-.09-.62.28-1.35.43-2.19.4-7.47-.26-11.4,4.84-15.51,9.99-.1.76-.18,1.48-.5,1.9-.44.59-1.09.78-1.76.85-1.18,1.37-2.42,2.67-3.79,3.79-.47,1.4-1.2,2.76-2.68,3.19-.69.2-1.48.06-2.34-.32-.3.1-.6.21-.91.29-4.52,1.27-9.41.38-14.03-.33-1.87.57-3.8,1.12-5.49,1.87l-2.65,1.61c-.44.37-.85.77-1.18,1.24-.15.22-.32.41-.5.6.02.13.04.24.06.37,4.53,1.7,3.91,9.68-1.84,9.68-9.24,0-18.59-.11-27.67,1.81-3.32.7-6.58,1.42-9.51,3.16-1.75,1.04-3.45,2.18-5.21,3.21.92.55,1.45,1.25.77,3.23-1.34,3.93-6.41,2.27-9.84,3.18-3.04.8-6.7,5.27-8.63,5.38-2.21.13-3.07-4.29-6.2.79-2.88,4.68-.63,6.37-9.13,5.36l2.99,8.99c-1.63,1.55-10.2-4.61-12.69-4.84-1.76-.16-2.48,2.2-4.01,2.65-3.42,1.02-6.12-1.21-8.71,3.28-1.15,2-3.8,10.03-4.99,11.01-1.04.85-3.09.84-4.5,1.5-.99.46-1.67,1.87-2.79,2.2-1.84.55-5.48-.25-6.17.35-.39.35-2.43,7.09-4.79,7.75-1.6.45-3.72-1.66-5.36-.42-2.52,1.56,1.02,3.39,1.06,5.03l-.48,1.54-13.55,6.44,1.94,2.89c-2.13,4.69-8.67,1.1-11.56,3.51-.99.83-4.31,10.86-6.4,13.64-.4.53-7.49,7.67-7.99,7.93-1.66.85-3.26.53-5,.54,1.14,9.68-5.44,5.51-9.99,7.51-3.79,1.67-3.95,9.58-7.53,12.47-1.87,1.51-4.17.87-6.23,1.77-1.3.57-7.28,8.42-8.03,9.97-1.3,2.7-.81,7.07-1.65,8.35-.95,1.43-4.49.24-6.64,2.36-1.81,1.79-1.43,4.57-2.53,6.51-1.19,2.1-6.25,4.42-7.46,5.78-1.72,1.93-1.64,5.34-2.87,6.86-1.02,1.26-3.6,1.53-5.15,2.85-5.11,4.36-7.55,13.99-16.93,10.58-.16,4.51,4.79,10.09-.7,12.85l-5.82.11c-2.46,5.87-.5,13.07-7.98,16.06-5.62-4.8-5.98,1.9-9.54,3.47-1.69.74-4.04.17-4.82.66-.57.36-5.24,11.46-1.17,12.35-9.85,3.55-9.69,13.27-16.96,19.02-.92,2.24,3.48,1.44,2.98,3.96-.6,2.99-5.42-.43-6.53,1.47.01,9.13-4.83,11.64-13.03,12.98l.56,23.07c-3.12,1.08-5-2.01-6.93-2.59-4.35-1.31-2.55,4.45-3.27,6.89-.19.65-3.13,7.29-3.36,7.64-.98,1.46-3.84,1.8-4.3,3.74-.36,1.49.91,3.29.93,4.87.04,4.08-9.07,8.66-11.14,13.87-2.44,6.14,2.36,14.85-7.92,13.58-.35,2.74,3.15,3.5,3.79,5.7.49,1.69.52,6.02.18,7.78-.64,3.28-6.74,6.4-7.73,10.26-1.39,5.43.18,15.48-.26,21.74-.25,3.53-1.31,11.61-2.06,14.94-.7,3.13-4.64,10.27-4.74,12.25-.07,1.51,2.25,2.79,1.86,5.76-.4,3.02-5.68,4.94-6.06,9.07-.47,2.63,2.49.91,4.02,1.97.98.68,2.09,4.7,3,6.02.45,2.87-3.26.56-4.58,2.43-3.04,4.34,1.7,5.25,2.62,6.48.84,1.13,3.55,8.51,2.86,9.5-9.2,2.49-.54,3.42,1.2,5.51,2.59,3.11-1.88,8.63-2.1,11.12-.14,1.56,1,3.17.9,4.86-.29,4.79-3.41,6.88-4.57,11.13l6.5,10.98-2.65,3.18c1.1,5.83-3.24,11.38-2.17,16.78.5,2.52,2.46,2.86,3.41,4.6,1.36,2.49,1.12,5.52,4.56,7.43l-2.99,3.98,3.08,9.76c.96,3.05,1.26,3.95,2.15,8.04,1.06,4.84,4.81,5-.24,11.2,6.7,3.18,2.41,3.83,1.96,7.96-1.1,10.04,1.42,14.56,2.93,23.18,1.23,7,1.18,14.29,1.13,21.37l4.99-1c.62,1.77-1.86,3.4-1.77,4.51.1,1.24,3.83,2.73,3.82,5,0,2.16-4.07,3.52-3.05,6.49,9.47-.7,5.04,10.76,5.28,16.23.23,5.48,2.65,11.91,3.82,17.31l-.28,1.27c-.49.85-11.03,5.21-8.81,7.19l7.87-1.18.13-2.82c6.88-.61,2.74,5.65,3.23,8.38.27,1.49,4.07,3.57,3.61,5.97-.46,2.34-8.41,5.99-6.84,7.64,2.75-.36,5.15,2.15,6.12,4.48,1.64,3.94-2.38,5.42,3.86,10.05,3.27,2.43,4.92,2.14,8.6,3.41l-.59,6.06c10.39.82,3.84,8.44,5.59,15.07-4.78.62-6.62,6.09-1.05,3.91,4.03-1.58,3.08,1.2,5.93,3.07,1.81,1.19,4.14.63,5.52,2.45l-2.98,4.98c2.21,2.35,5.26,1.08,7.99,3.04.52.37,7.63,9.54,7.86,10.14.25.65.6,2.29-.35,2.35h-6.49c-.09,5.8,6.37,5.04,9.22,10.27,2.76,5.06,2.64,5.37,7.28,9.72,3.35,3.15,9.22,7.48,12.07,10.93,2.05,2.49,3.69,11.27,7.48,8.62,3.1-2.17-.94-8.82,3.94-8.55,2.29,4.76-1.67,8.46-.48,11.94,1.93,5.63,6.99,4.66,7.45,5.1.39.38-.22,4.88.06,6.44.87,4.67,8.11,5.91,10.54,8.46,1.89,1.99,1.42,5.01,3.41,7.59,2.1,2.71,8.38,5.63,10.08,7.92,1.81,2.45,1.13,7,2.88,9.12,1.62,1.97,8.86,4.09,11.4,5.6,2.09,1.24,15.2,10.61,15.48,11.55.32,1.11-.82,2.27.11,3.81,3,4.97,7.54,3.58,10.19,5.86,2.14,1.85,1.52,4.7,3.34,6.66,3.19,3.44,11.87,3.27,13.69,5.38l.84,6.09c3.91.87,7.66.26,8.29,5.19l6.79-.26c1.26.96.86,4.44,1.71,6.29,2.92,6.33,21,20.54,27.31,23.69,1.52.76,3.41.33,4.96,1.04l2.92,8.08c1.28.85,3.76.11,5.31.69,7.12,2.65,11.61,6.05,18.06,9.94,2.14,1.29,7.18,5.09,7.62,5.29.85.39,2.45-.71,4.02-.02,3.48,1.54,3.44,6.44,5.03,9.06,3.24,5.33,13.06,4.41,18.08,5.92,3.9,1.17,4.73,6.4,9.26,7.83,2.73.86,4.45-.57,7.08-.26.58.07,9.01,2.69,9.82,3.02.87.37,4.4,5.49,6.81,6.44,2.4.93,4.73.09,6.96,1.04,3.11,1.33,3.04,6.53,5.53,8.49,1.49.34,11.01-11.54,7.48,3.99,2.61.26,5.81-.52,8.29.21,1.99.59,3.03,3.44,4.75,4.25,4.13,1.95,10.93,3.24,15.18,4.82,1.39.51,2.53,1.47,3.76,2.24l2.02,9.49,9.47-7.01c4.39.92,10.28,5.49,14.32,5.8,3,.23,5.1-1.14,8.46-.59,6.99,1.14,10.88,5.95,15.38,10.72l4.35-1.91c.79,2.91.74,7.45,4.56,8.01,5.08.74,3.42-2.14,4.72-3.73.74-.92,5.28-2.14,6.37-4.2,7.26,6.24,4.7,2.46,9.06,1.13,2.04-.63,6.29-.5,8.27.33.86.36,1.54,1.96,2.75,2.32,2.57.75,4.82-1.15,6.59-.7,1.65.41,2.85,3.85,5.69,2.86-1.56-6.1,5.81-4.15,9.5-8.05,4.01,3.19,5.53,5.45,11.12,6.92,6.23,1.63,4.84.75,8.86-3.69,2.37,2.57,5.5,1.48,8.56,2.27,8.05,2.07,7.41,2.05,15.45,2.54,7.39.45,10.74,2.1,16.16,6.91,2.19.31,2.46-3.42,4.35-4.39,3.55-1.82,10.71-1.98,14.5-5.53,2.09-.01,7.37,6.99,10.2,7.8,1,.29,19.07,1.4,20.79,1.3,2.45-.14,6.87-3.52,8.92-2.97,1.61.43,1.6,3.85,2.97,4.98,2.98,2.46,5.32-.6,8.15-1.04,5.16-.79,9.76,1.56,14.37-.13,1.45-2.03-3.43-6.05-.27-7.99,2.63-.34,5.38,1.34,7.86,1.17,2.17-.15,3.88-2.19,4.85-2.01,1.23.22,2.05,2.96,3.95,2.76.94-.1,2.16-1.36,3.44-1.6,12.64-2.34,16.59-4.42,29.7-4.21,13.14.21,22.44-.06,34.57-4.5,1.57-.58,2.97-2.54,4.48-2.55,4.4,1.8,5.86,7.71,11.49,5l-.57-5.02c1.1-1.49,4.53-.63,6.56-1.48,1.99-.84,3.99-5.12,6.77-6.23,3.26-1.3,8.98-1.94,12.8-3.2,2.13-.7,4.51-2.96,6.01-3.09,3.44-.3,5.8,4.15,8.16,4.85,4.32,1.29,7.04-3.66,11.36-5.24,3.86-1.41,13.93-5.65,16.68-6.36,3.51-.91,6.27,1.17,9.64.77,9.13-1.1,17.57-7.93,25.64-11.45,2.16-.94,4.34-.08,6.54-1.46,5.29-3.34,3.18-8.25,4.32-12.67,2.3-2.81,7.95.06,8.99-3.04,1.44-4.29-2.53-5.26-2.93-7.92-.85-5.57,6.45-7.77,9.98-10.01,1.53-.97,2.81-3.37,4.07-3.93,1.93-.85,4.18-.14,6-1,1.66-.79,3.53-5.93,6-7,2.34-1.01,5.15.08,6.99-1.01,1.1-.65,1.53-3.33,2.97-4.02,2.15-1.04,4.41-.05,6.34-.5.77-.18.63-1.87,1.34-2.02,5.79-1.17,5.14,5.77,12.18-3.63,5.17-6.91,9.53-10.15,15.16-16.84,2.07-2.46,5.29-1.97,4-7.51,2.4-.53,6.91,2.41,8.56.04-1.54-8.13,2.38-4.45,4.97-7,1.31-1.29,1.8-6.16,4.36-7.74l-2.89-7.29c3.4.43,12.72-1.25,15.07-3.51,1.21-1.16.03-2.62.85-4.02,2.53-4.3,13.96-8.9,13.28-17.26l5.81-1.22c-1.59-4.11,3.69-5.79,1.99-11,4.25-.19,5.96,4.21,9.57.06,2.95-3.39,4.71-7.7,3.86-12.06l6.52-3.63c-2.62-9.24,2.8-10.12,10.05-6.38.2-2.93-1.31-5.4-.98-8.39.48-4.27,4.64-6.66,5.54-9.54.9-2.87-.08-5.8.64-8.36.69-2.43,4.67-3.79,6.34-5.66,2.58-2.89,7.86-10.35,9.2-13.81,1.68-4.34,1.26-6.64,1.22-10.75-.06-6.85,11.11-11.12,10.61-15.96-.13-1.23-2.58-3.3-1.49-5.44,7.86-.48,3.5-6.02,4.07-8.5.32-1.38,3.21-1.64,3.75-3.23,1.33-3.88-7.69-7.7-5.81-13.26,9.91-1.11.34-10.63,1.98-15.45,2.42-2.92,13.07-5.89,13.69-9.25.48-2.58-1.95-11.95-1.49-14.74.26-1.58,2.65-2.8,2.79-6.15.16-3.74-2.24-8.17-2.11-11.96.14-4.08,3.31-8.05,3.87-11.29.08-.48.3-8.15.24-8.57-.15-1.03-4.6-1.81-4.05-4.15l7.01-3.02c-3.12-4.74-8.4-8.24-3.03-13.99l-4.99-1.5c-.75-2.45,1.18-3.94,1.63-5.69.21-.81-.52-2.01-.32-2.66.45-1.47,2.07-2.03,2.56-3.32,1.16-3.09-1.76-2.2-2.93-3.72-3.13-4.05,1.45-5.32,1.98-7.31.52-1.94-2.02-3.42-2.02-5.8,0-2.34,2.36-3.77,2.18-5.95-.19-2.19-3.13-3.11-3.09-5.03.03-1.29,1.54-2.25,1.83-3.3.95-3.44-4.34-9.16-4.8-12.81-.21-1.63.73-15.51,1.03-17.86.19-1.52,1.93-2.72,1.95-4.04.01-1.38-2.62-4.28-2.93-7.11-.33-3.03,1.01-5.48.74-7.66-1.01-8.12-7.4-19.92-10.54-27.48-.75-1.79-.42-4.27-1.48-6.52-1.72-3.66-6.51-5.04-8.74-8.29-.46-2.08,3.69-2.83,4.54-4.43,1.56-2.92-4.78-8.37-6.44-10.64-.96-1.32-.97-3.67-2.08-4.92-1.25-1.41-3.95-1.4-4.61-2.39-.42-.62-2.7-11.29-3.99-14.01-1.35-2.84-7.79-6.03-8.28-9.74-.23-1.76,1.31-3.55.4-5.29-.91-1.72-5.33-2.94-6.32-6.75-1.81-6.93,2.41-5.31,2.75-10.25-2.54-1.56-7.67,2.39-9.01,1.5-2.45-1.63,1.56-5.94-.9-8.09l-16.61-9.41c-.76-3.08,5.66-.78,4.51-3.49-.31-.72-8.95-11.9-9.55-12.46-1.17-1.08-2.92-1.18-3.95-2.05-5.15-4.43-9.88-7.63-13.48-13.5,6.08-1.96,1.9-9.07-2.06-10.96-1.52-.72-3.42-.29-4.89-1.11-12.27-6.85-20.69-19.16-31.03-28.97-1.8-1.71-6.75-3.84-7.57-5.46-1.71-3.37,3.07-6.04.02-7-2.22-.7-1.88,3.57-3.97,3.75-1.42.12-9.38-5.09-10.05-6.79-.66-1.69,1.06-3.32.13-5.02-.53-.77-8.27-3.46-10.11-4.95-4.14-3.34-4.17-3.73-9.04-6.96-2.48-1.64-2.73-6.35-5.46-7.54-2.57-1.12-5.39.1-7.97-1.03-2.1-.92-3.81-4.85-5.52-6.48-5.54-5.26-9.63-8-17.56-8.49-.03-13-12.32-1.73-18.88-6.09-2.71-1.8-1.74-2.67-1.05-5.42l-3.94-1.63.7-3.77-1.17-1.68-11.53-3.5c-5.98-6.15-14.22-6.12-22.11-7.94-1.78-1.18,1.84-4.17-1.54-6.42-1.64-1.1-3.92-.75-5.62-1.36-1.48-.53-2.66-2.01-3.75-2.3-1.67-.45-3.1.73-4.51.57-1.47-.16-2.55-1.75-3.06-1.76-.81-.02-2.4,3.79-5.89,2.73l-1.58-2.43,4.99-3.03c-3.9-7.2-14.07-2.36-20.23-3.76-6-1.37-10.38-6.87-14.69-9.3-3.85-2.17-9.3-1.88-13-4-2.67-1.53-4.16-5.21-7.5-6.5-3.88-1.5-18.61-2.14-19.99-4.89-.66-1.32,1.4-3.27-2.35-4.77-1.21-.49-6.41-1.45-7.53-1.13-2.51.7-2.12,5.11-5.21,3.89-.62-.25-1.11-5.22-4.12-5.77-6.2,1.41-11.57-.52-16.9,3.78l-11.08-6.04-12.9,3.04-.51-3.02c-2.01-.33-2.66,1.78-4.57,2.04-3.09.43-4.37-2.04-5.93-2.03-1.55,0-3.15,2.43-7.02,2.09-3.29-.29-4.17-3.13-5.98-3.14-2.47,0-3.51,4.45-6.99,4.13l-4.01-5.06c-2.89,4.74-9.88,4.93-14.8,3.78-1.99-.47-3.63-2.82-5.22-2.82-1.95,0-2.7,2.54-4.17,2.88-1.53.36-3.39-1.15-4.69-.79-2.53.7-3.99,12.63-8.18,12.99-2.57.22-5.64-4.22-9.99-3.94-6.12.4-9.67,11.05-17.86,5.78-2.02-1.3-1.97-5.06-6.03-3.85-2.91.87.38,5.09-1.04,7.95-.16.32-5.03,4.23-5.55,4.48-3.64,1.74-2.61-1.21-3.65-1.46-5.56-1.36-11.27,1.9-16.16,4.13l-.2,2.35,2.07,1.02c.42,3-2.92,4.92-5.52,5.49-2.61-1.31.05-5.81-3.52-5,.9,4.35-2.02,2.36-4.57,3.92-3.41,2.1-3.97,6.63-2.43,10.07-2.6-.84-4.78,1.83-6.55,1.99-1.68.16-3.38-1.06-5.7-.82-3.19.33-15.59,6.81-19.47,8.62-.91.43-13.44,5.84-9.76,7.2l4.45,1.5c-2.9,6.77-4.92,1.53-7.49,1.49l-1.45.48c-2.86,1.26-3.53,5.46-5.06,7.01-.33.33-7.45,5.02-7.91,5.11-1.27.25-3.84-2.56-6.06-1.57,3.59,8.5-4.12,8.23-7.03,11.48-1.28,1.42-.59,3.17-1.24,4.25-1.05,1.75-10.95,4.79-13.29,7.21-1.33,1.37-1.25,3.39-2.5,4.5-2.14,1.89-9.02,4.26-10.48,7.6-1.1,2.52,2.25,7.59-.39,9.53-2.77,2.02-5.41-2.43-8.41-1.48-2.28.72-2.19,4.87-3.6,6.47-1.24,1.41-3.82,1.6-5.62,3.37-4.76,4.7.64,7.84-2.87,12.15-5.91,7.26-15.83,4.58-20.5,11.44l3.93,3.97-8.81,3.7c-.4,2.92-4.06,12.96-5.67,14.82-1.46,1.69-4.57.22-6.58,2.42-2.58,2.81-2.16,12.27-4.51,16.49-1.72,3.09-5.78,4.68-7.96,7.04-1.79,1.93-2.8,4.51-4.46,6.54-1.15,1.39-3.85,2.12-4.55,3.5-1.42,2.82,1.72,6.1.12,9.07l-6.92,1.08c-3.57,1.12.1,6.19-.8,9.13-.42,1.36-2.42,2.18-2.62,3.33-.19,1.1,1,2.62.69,3.78-.35,1.29-2.69,1.22-2.95,2.3-.43,1.8.37,4.23-.21,6.57-.68,2.74-7.84,8.81-.34,7.72,2.36,6.96-6.37,1.27-8.87,5.07-.22.34-2.56,6.18-2.58,6.53-.18,2.28,2.14,3.55,1.94,4.78-.18,1.07-3.01,2.76-3.79,4.25-1.17,2.24-.76,4.49-1.65,6.35-.66,1.38-2.94,2.2-3.34,3.75-.44,1.71.82,3.29.59,4.62-.16.95-1.69,1.89-1.71,3.16-.02,1.3,1.79,2.54,2.03,4.09.19,1.2-6.05,15.89-6.97,16.97-1.97,2.3-7.82,1.93-9.05,4.96-1.06,2.62,4.75.78,5.59,2.39,1.19.93,2.43,4.21.71,5.12l-3.31,1.5c3.63,4.49.64,5.28.05,9.02-.34,2.16.2,4.32-.31,6.7-1.26,5.84-6.54,2.35-9.72,6.27l5.06,1.92c1.27.92,2.5,12.36,3.02,14.97,1.34,6.82.38,3.15.01,8.03-.08.99,1.02,6.37,1.47,7.5,2.62,6.63,14.35,4.5,10.2,16.33-.82,2.35-4.26,3.07-3.76,6.22.94,3.61,12.1-3.11,12.99,1.03.73,3.35-7.47,4.24-8.57,6.49-.77,1.58.45,2.95.27,4.33-.13.94-1.74,1.88-1.59,3.02.89,6.53,10.11,1.1,11.9,2.08,1.42.78,1.79,3.27,3.05,4.04,2.94,1.79,2.24.96,5.42,3.51,2.22,1.78,4.78,3.1,6.51,5.51l-2.98,4.49c2.62-.25,5.62.45,5.99,3.48-.33,1.33-4.82,1.9-3.99,4.51,1.48.19,7.11,1.59,7.75,2.27,1.5,1.58-.16,5.04,6.24,3.75-.93,6.08,2.28,7.02,5.99,10.49,0,.99-9.67,2.95-6,5.01,3.09,1.74,7.79-1.2,11.47-.52,2.91.54,5.38,5.64,10.58,4.47l.5,2.56c-1,1.79-5.07,2.11-4.53,4.95,2.66,1.37,7.93,1.83,9.97,3.54,1.72,1.43,2.07,4.65,3.59,6.41,2.24,2.59,5.89,5.74,8.91,9.09,3.88,4.32,11.17,5.6,13.55,7.45,1.33,1.03.64,3.31,1.47,4.53.66.95,3.16,1.26,4.55,2.45,5.73,4.89,6.1,9.02,14.68,11.32,2.06.55,4.31-.17,6.33.67,1.03,7.45,1.9,7.45,8.76,9.74l.18,8.83,11.83,1.15,1.11,3.27-3.95,1.6c-2.52,2.67,11.91,6.38,13.7,1.1l1.63-.02,6.21,7.89c2.46.88,1.17-5.17,6.02-2.03,5.56,3.6-3.15,6.58,3.4,8.6,2.5.77,5.02.08,7.33.67,8.13,2.06,16.45,4.48,24.24,6.76,3.63,1.07,7.66,2.01,11.48,2.02l-4.86,8.68,1.52,2.16c5.53-.96,12.95,1.75,17.87,1.24,3.26-.34,3.7-2.69,6.01-3.1,7.38-1.31,5.53,5.02,8.92,8.05,1.81,1.61,4.21,1.55,6.09,2.91,2.35,3.42-3.05,7.13-.04,10.01,4.13,3.96,6.25-.23,8.72.2,2.38.41,6.51,4.72,8.32,4.9,3.37.33,5.83-4.17,8.17-4.84,3.02-.87,6.76.34,9.77-.23,2.42-.46,3.26-2.91,6.05-3.95,3.8-1.42,7.79-.32,10.79-1.21,2.3-.68,2.71-4.11,4.72-5.28,1.71-.99,8-1.59,8.76-2.75.51-.77.03-2.62.69-3.77,1.45-2.53,12.11-4.56,15.05-2.18l1.26-2.09-.79-3.75c8.21,2.51,12.94-.8,19.91-4.59,5.69-3.09,11.61-7.19,17.84-10.16,1.47-.7,3.75-.16,5.65-1.35,2.07-1.3,2.04-4.31,3.62-5.38.49-.33,9.22-3.43,10.95-4.04,2.05-.73,5.92-.64,7.31-1.46,1.26-.74.74-3.51,2.68-4.57,3.27-1.79,5.17,1.82,6.46,1.53.73-.16,7.17-9.34,10.19-10.86,4.07-2.05,8.63.23,11.42-4.58,1.66-2.86,1.06-3.79-.92-6.25l.31-1.33c4.2-3.38,10.51-2.58,13.6-7.44.95-1.49.83-3.26,1.55-4.45.97-1.62,2.92-2.55,3.68-4.33.82-1.92.36-4.51.97-5.53.33-.55,2.15-.73,2.78-1.67,4.3-6.41,2.85-12.22,2.98-19.56,4.19.53,8.47-1.34,12-3.52.5-1.71-5.16-8.51-5.01-11.88.19-4.2,6.06-9,6.13-10.09.4-5.63-10.95-16.32,1.88-15.51.29-2.36-2.51-3.82-1.87-6.29.47-1.81,3.72-2.76,3.92-5.26.31-3.79-6.75-12-7.04-15.03-.34-3.52,1.84-12.68,4.97-14.91-.96-1.25-2.64-2.23-3.44-3.54-2.05-3.38-6.77-14.29-7.24-17.62-.23-1.64,1.27-2.98.24-5.31-.25-.56-7.1-9.16-7.6-9.49-3.23-2.14-8.52,1.16-10.48-3.57-1.14-2.74,3-4.62,2.6-7.42l-3.06-4.11-6.98,2.56c1.07-10.16-7.11-8.43-11.95-11.56-1.45-.93-1.74-3.61-4.3-4.7-3.26-1.39-9.16-1.06-12.99-2.01-9.12-2.27-12.8-9.73-19.49-11.59-2.51-.7-5.77,2.05-8.31.39-2.89-2.66,2.53-3.58,2.03-6.52-2.09-.47-4.37,1.21-6.26.8-2.08-.44-8.12-5.34-9.43-5.65-2.13-.51-5.88,2.26-8.28-1.66l2.98-4.5h-15.5c-.6,0-2.36,3.44-3.99,3.01l-1.05-3.08c-3.9,1.19-8.67-1.25-11.97-1.03-2.28.15-3.46,1.92-5.03,2.08-2.82.28-5.64-2.56-9.04-.05-1.8,1.33-2.22,5.8-5.92,5.07l.07-6.05c-7.65-3.1-11.99-.22-10.58,8.05l-4.06-.44-.94-5.57h-2.99c1.06,4.75-2.84,8.97-7.52,9.08-2.01.05-4.07-1.23-5.76-.88-2.27.47-24.08,10.18-26.26,11.77-2.43,1.77-2.59,5.61-4.45,6.55-1.66.83-4.58.46-6.81,1.19-12.95,4.21-4.01,5.66-5.33,10.58-.5,1.88-4.17,3.76-5.29,5.8-2.69,4.88-2.69,11.98-4.49,16.5-1.41,3.55-6.27,5-2.17,10.02,1.34,1.64,4.88.72,4.08,2.89-.19.52-2.4,2.65-3.04,2.96-1.44.69-8.99.83-7.94,3.04,1.45,3.02,5.77.9,7.67-.36l1.34.3,2.91,8.15c12.09-1.11,7.98,6.04,10.97,10.03,1.99,2.65,13.48,4.89,17.02,4.47,1.59,1.03-2.68,7.55,5.6,7.99,2.61-1.09,15.09,1.33,16.55,2.61,2.68,2.37,1.69,14.96.21,18.1-1.28,2.72-3.68,1.82-5.82,3.18-2.14,1.36-3.22,4.35-4.93,6.07-1.46,1.47-5.03.62-4.64,4.84-5.43-.36-10.98.88-16.43.16-2.28-.3-3.64-1.53-5.2-1.79-3.2-.54-8.91-.47-11.6-1.4-2.89-1-.46-5.74-3.29-6.7-4.9-1.66-8.29,2.04-10.61,1.72-4.42-.61-10.37-5.01-14.74-6.37-2.56-.8-5.47-.09-7.8-1.2-2.47-1.18-1.96-3.96-3.78-5.22-2.2-1.52-6.37-.59-8.42-2.58-2.17-2.11-4.25-6.85-7.97-10.03-1.55-1.33-4.17-1.67-5.13-2.87-1.12-1.41-.72-3.77-1.83-5.17-1-1.25-3.53-1.43-5.11-2.89-1.96-1.82-2.68-5.45-4.42-7.58-2.19-2.68-5.6-3.86-7.96-7.04-2.13-2.87-2.63-5.69-4.42-8.63-.3-1.91,4.48-4.27,4.66-6.94.09-1.3-1.65-2.43-1.85-3.91-.06-.45-.04-8.3.02-8.91.22-2.52,3.19-3.18,3.8-5.22,1.01-3.4-.62-8.54.18-11.59.24-.91,2.07-.95,2.8-2.39,1.67-3.29.72-8.18,1.45-11.59,2.24-10.39,8-17.62,10.49-26.51.87-3.09-.32-7.13,1.81-10.19,1.64-2.35,4.78-1.86,6.36-4.64,1.45-2.56.63-5.11,1.62-7.38,1.09-2.49,8.18-9.66,9.25-13.75.67-2.56,0-4.94,1-8,1.56-4.81,8.4-9.55,9.9-12.59,1.07-2.17.59-5.64,1.89-7.62,2.73-4.15,11.39-9.41,14.47-12.51,1.34-1.35.71-3.99,1.92-6.1,2.22-3.89,13.5-11.6,16.63-15.37,3.03-3.65,4.82-6.46,8.42-10.58,3.33-3.8,5.86-9.86,11.6-10.48,4.25-.46,5.94,2.93,8.63-2.32.53-1.03.6-3.35.87-3.58.37-.31,4.7.08,7.27-1.24,2.64-1.35,3.56-4.58,5.59-6.41,5.38-4.86,8.69-5.82,16.03-5.96l1.86-2.19c-2.47-11.93,4.21-1.38,9.67-6.29,5.61-5.04,2.87-2.09,8.46-4.53,1.44-.63,2.58-3.34,4.03-3.97,1.81-.79,3.92-.16,5.26-.74,2.18-.94,7.6-5.03,9.43-5.57,5.38-1.59,13.11.95,18.66.69,2.1-.76,1.29-3.86,2.54-5.47,2.33-3,5.81-.47,8.59-.4,1.95.04,3.73-1.42,5.78-.88,1.6.42,2.41,2.74,3.74,3.35,5.33,2.45,13.59,0,16.53.89,1.21.37,1.09,2.15,2.22,2.62,2.68,1.12,6.37,1.11,8.76,2.98,1.69,1.32,3.17,5.53,5.48,6.52,2.55,1.09,12.51,2.73,15.39,2.4,2.49-.28,6-2.14,8.09-1.9,2.08.24,2.77,2.43,3.96,2.62,1.3.2,3.81-1.15,5.55-.6,1.09,3.95-7.22,6.51-2.58,10.07,3.68,2.82,5.57-.66,8.16-1.08,5.87-.96,6.82,6.99,9.36,9.57,2.49,2.53,6.79,2.08,8.17,3.82,1.36,1.72.4,5.15,1.84,6.17.39.27,5.36-.63,9.01,1.97,1.37.98,7.76,6.58,9.09,7.91,1.67,1.67,3.02,5.53,3.93,6.09,2.06,1.26,4.32-.32,6.18,0,3.82.64,10,4.27,12.88,6.93,2.19,2.03,5.38,7.89,7.99,9.07,2.74,1.23,4.6-1.1,6.93-.07.33.15,5.28,4.3,5.48,4.6,1.53,2.36.87,7.22,2.05,8.95.59.85,4.77,2.14,6.45,3.55,5.91,4.98,11.21,10.13,16.97,15.03,1.21,1.03,1.85,3.34,3.07,3.93,1.89.91,4.74,0,6.08.92,1.33.9,1.64,10.29,7.93,9.58-3.38,5.36-.82,6.7,1.98,11.5l-2.97,2.97c1.65,2.21,4.51.99,6.57,2.43,2.06,1.45,2.49,6.98,6.36,9.64,2.65,1.83,5.77,1.5,7.63,4.46,1.17,1.61-1.64,2.82-1.44,4.31.66,4.96,8.48,10.43,10.29,13.74.93,1.7.85,4.02,2.02,5.98,2.74,4.57,10.6,12.08,5.57,16.45,7.86,2.66,3.86,6.85,5.18,12.79.39,1.75,2.32,3.18,2.42,4.21.11,1.13-1.59,4.47-1.69,6.99-.2,5.21-.38,21.52.05,26,.27,2.73,5.62,5.58,2.5,12.49-2.32,5.14-11.19,6.91,4.12,9.91l1.39,6.1-3.5-2.99-2.49,1.5v22c0,1.53-4.45,7.47-4.69,10.13-.19,2.05,1.32,4.96.7,7.37l3.99-1c.33,5.07-1.94,9.53-2.87,14.62-4.35,23.91-1.56,29.42-16.11,50.89-3.62,5.35-3.82,10.33-5.09,16.41l-5.58-1.79-2.33,1.41,2.84,7.81c-3.7,2.49-3.29,6.17-4.95,9.03-1.49,2.55-5.54,3.95-7.55,5.95-2.76,2.76-2.67,8.4-8.34,5.65.17,8.62-8.43,12.5-13.53,17.98-3.69,3.96-8.51,11.23-12.46,14.54-2.89,2.43-6.52,3.29-9.54,5.46-2.16,3.49,2.64,7.74,2.41,11.57-.23,3.91-7.19,9.56-11.25,8.36-1.07-.32-1.45-.9-1.47-1.61-1.71,1.32-4.48,2.04-7.26,2.49-.2,1.1-.44,2.08-.85,2.79-2.69,4.66-10.84,2.49-12.64,5.43l.56,6.99c-2.01.4-2.53-1.8-4.43-1.92-6.19-.39-8.73,6.45-14.15,7.89l.58,6.03c-5.2,1.58-2.93-6.18-6.35-5.88-2.22.2-5.52,4.75-7.93,6.1-4.63,2.59-4.61,1.91-9.05,5.44-5.35,4.25-8.25.95-10.71,1.88-.83.32-1.76,2.24-3.03,2.88-4.53,2.28-7.82,3.93-12.39.57l-2.46,7.58-21.49,3.32-.58,7.12c-5.94.07-7.54-6.36-14.88-3.88l-1.13,4.88-4.97-1.57-4.54,7.57c-2.6.74-6.41-5.82-11.45-3.5-.87.4-1.5,2.06-2.5,2.18-1.61.2-5.29-2.74-7.46-3.26-2.35-.55-8.12-.21-10.31.6-1.37.51-.92,2.82-3.23,3.03-3.51.31-7.43-2.55-10.09-3-2.65-.45-5.85-.28-8.93-.51-.56,1-1.53,1.8-3.02,2.13-1.77.4-3.55.68-5.33.92l-1.65,1.41c-.68-.33-1.33-.68-1.98-1.02-1.62.13-3.25.24-4.89.29-1.47.04-3.03.01-4.61,0-.19.22-.38.45-.56.72h-1.46c-.01-.25-.05-.49-.1-.72-2.38.04-4.75.22-6.87.9-1.87.59-3.54,1.65-5.24,2.65-.59.77-1.35,1.31-2.42,1.29-.32.15-.63.29-.96.41-3.43,1.31-6.81,1.29-10.26.04-1.12-.41-2.13-1.21-2.82-2.2-1.43.98-3.26,3.77-6.74,2.51-1.24-.45-1.27-2.28-1.87-2.64-.41-.25-5.13-2.87-5.44-3.01-.67-.31-6.32-2.14-6.67-2.07-2.4.44-7.96,10.33-12.67,7.39-2.37-1.48-.61-6.33-3.97-5.54l-.96,5.55-15.4,3.53-2.17-8.08c-2.6.8-7.23,2.27-9.88,2.01-.94-.09-.68-2.28-2.24-2.84-.84-.3-6.73-1.15-7.9-1.18-6.82-.18-15.25.44-21.92,0-1.86-.12-3.33-1.9-5.13-2-2.46-.15-4.12,2.86-6.8,1.97-2.79-.93-.1-6.32-4.08-8.97-4.73-3.16-9.15-.5-12.23-1.68-2.85-1.1-3.6-4.4-4.58-5.01-1.01-.63-2.83-.16-4.27-1.21-2-1.46-3.13-3.98-5.74-5.27-5.99-2.96-12.53-.24-19.2-.81-6.2-.53-9.62-4.47-14.99-2.98l-1.5-1.5,1.85-2.16-1.39-2.34-8.45,1.98c.63-7.31-3.35-5.75-7.09-8.41-3.85-2.74-6.47-9.02-9.02-10.98-3.65-2.81-11.43-2.62-15.8-4.69l-.7-7c-4.51.8-10.49-5.56-12.98-5.92-5.72-.83-14.38,11.21-14.44-2.97l-6.57-.93-.44-6.06c-.3-.36-5.06,2.95-8.05-2.45-1.36-2.45-.53-4.48-1.46-6.54-1.81-4.04-11.76-15.67-15.47-18.53-.17-.13-.34-.26-.5-.37-.49.02-.98-.01-1.45-.12-1.05-.24-1.85-.81-2.44-1.56-1.77.2-1.91,2.63-4.4,1.94l-6.23-4.89c-.32-1.22,2.29-3.11,4.11-5.17-.02-.17-.06-.33-.07-.51-.06-1.38.58-2.68,1.57-3.6-.02-.06-.03-.12-.06-.18-2.21-3.51-8.3-4.88-10.59-7.48-2.75-3.11-2.74-6.44-7.46-10.54-9.76-8.47-11.03-9.65-16.28-21.72-.82-1.89-3.14-3.2-3.78-5.22-.8-2.54-.08-5.13-1.19-7.81-.97-2.33-4.49-3.99-5.05-5.95-1.71-5.98.85-19.06-4.22-22.78-2.12-1.56-6.19-1.68-7.46-4.54-1.73-3.86.41-10.83-.76-15.24-.51-1.92-2.98-3.53-3.52-5.48-.56-2.01.09-4.02-.77-6.23-1.64-4.18-8.2-5.86-4.35-12.93l3.89-.11c.84-.77-3.51-9.71-3.79-11.76-.56-4.07,1.1-7.26.68-11.62-.41-4.23-3.78-8.18-3.89-11.24-.11-3.12,2.71-3.54,3.03-5.93.46-3.41-2.42-9.28.05-13.82-8.6-2.4-3.69-13.48-4.11-19.09-.14-1.88-2.01-3.47-1.95-5.05.06-1.4,1.79-2.51,1.97-4.04.06-.55-.83-9.98-1.01-10.95-.46-2.49-3.43-3.67-3.6-5.99-.25-3.47,3.38-2.3,3.62-2.53.18-.17-.85-3.15-.62-5,.48-3.84,3.6-5.57,3.58-8.34,0-1.06-.91-8.13-1.16-8.96-.46-1.53-2.65-2.18-2.82-4.21-.11-1.33,1.11-2.99.9-3.94-.26-1.16-2.6-1.12-2.9-2.25-1.36-5.17,1.77-8.59,1.99-11.85.17-2.56-1.86-6.36-.97-9.46l-6.02-.5,5.02-4.01c-3.09-4.73-4.04-12.5-2.99-17.96.5-2.59,2.67-2.96,3.41-4.59,1.27-2.78,4.93-10.37,1.84-11.72-6.56-2.84-16.47-1.62-4.46-9.7-1.52-2.69-4.52-10.02-3.33-12.49.45-.93,2.26-1.71,2.43-2.66.21-1.21-2.19-2.61-1.98-4.82.17-1.86,2.17-2.61,2.75-4.2.72-1.97-.41-6.48.84-9.34,1.2-2.74,5.17-2.5,6.29-4.7,2.87-5.62,1.44-13.62,3.16-19.61l9.02-2.71c.89-.98-4.88-5.39-3.86-9.26.89-3.41,6.44-4.46,7.35-5.74.74-1.04.45-3.05,1.47-4.53,3.17-4.59,7.97-4.35,5.46-12.47,1.29-2.12,11.88-2.88,13.36-7.71.5-1.62-.2-4.05.67-5.33.63-.93,2.92-.75,4.01-1.99.81-.92.68-3.02,1.95-4.05,2.94-2.39,9.96-4.01,13.15-8.85,1.61-2.45,1.26-5.72,2.4-6.6,1.32-1.02,5.36-.4,7.11-2.89,1.67-2.38.54-5.26,1.13-7.87.24-1.05,11.76-15.49,13.25-16.75,6.24-5.33,7.6-6.44,13.15-12.85,2.27-2.62,6.26-2.93,5.45-8.05l5.52-1.03c-3.05-7.68,6.67-7.02,7.27-11.71.19-1.46-1.8-2.48-1.8-2.82,0-.57,3.6-2.4,4.51-3.44,8.08-9.21,16.76-17.5,23.84-27.16,5.45-7.43,7.08-6.23,12.66-11.34,2.26-2.07,5.04-9.06,8.3-8.37l3.15,2.8,2.44-6.54c5.74.3,7.21-4.05,11.51-6.49,4.83-2.74,10.04-3.45,15.54-2.96-3.38-10.87,4.34-6.23,8-8.5.74-.46,1.08-2.14,2.1-2.9,2.55-1.93,4.85-1.3,5.85-6.15l4.08.03c2.27,2.27,2.09,5.58,1.98,8.53h2.99s.19-7.82.19-7.82c5.61-4.03,13.76,5.2,14.65-3.42l-1.83-4.76c5.84,1.43,12.77-3.64,16.49,1.98,2.36-6.84,6.17-4.64,10.47-7.52,4.26-2.84,2.8-9.52,11.03-7.46l-1.99,5.99c2.32.47,2.87-2.29,4.69-2.8,4.18-1.17,7.41,1.07,11-4.09l6.57,2.77c3.49-1.2,5.52-4.82,8.81-6.3,1.26-.57,15.47-3.19,13.93-5.55l-3-2.51c5.44-6.76,10.12-.61,16.55-1.46,1.32-.17,7.25-1.79,8.74-2.26,2.43-.77,2.52-4.04,4.37-4.63,1.89-.61,4.44.17,6.62-.38,4.21-1.08,9.13-2.52,10.38-6.85,4.38-.37,11.73,3.4,15.72,1.96,1.81-.66,1.36-3.27,2.64-4.37,1.07-.92,3.71-.99,5.27-1.73,1.52-.73,2.5-2.68,4.27-2.84,2.02-.18,3.22,1.72,5,2.02,7.3,1.21,10.27-1.57,16.23-2.77,2.21-.44,4.13,1.11,6.78-.05,2.42-1.06,2.7-3.51,4.09-3.98,2.06-.7,4.77.34,6.66-.12,1.04-.26.96-2.44,2.31-2.88,3.69-1.22,10.77-.4,14.75-.23l2.65-7.92c5.78,2.74,10.38-.32,15.59-.89,10.59-1.14,19.65-1.2,29.89-1.29,3.51-.03,12.06-2.01,14.87-1.54,3.81.64,8.88,3.68,15.11,3.78,4.71.07,13.07-2.28,16.91-.93,1.73.61,1.48,3.18,2.64,4.36,2.05,2.09,5.71,1.09,8.25,1.75,7.65,2.01,14.61,5.83,22.74,4.19,3.18,7.46,4.88,4.42,10.74,6.33,4.58,1.5,14.93,10.46,19.22,11.81,3.58,1.13,6.04-.94,9.44-.56,7.97.88,14.69,6.22,20.96,10.12,1.56.97,2.97,3.35,4.36,3.72,1.91.51,11.92-3.13,11.15,1.48l-1.87,4.65c3.28-.96,4.55-2.75,8.47-1.99,3.74.73,2.94,4.96,6.52,4.99.06-2.2.26-5.1,1.58-6.92.51-.71,8.97-6.59,9.42-6.07.92,4.76-2.66,5.4-5.48,7.93l1.48,5.58c3.39,3.6,9.43-.46,12.37.58,1.94.68,1.55,4.38,3.62,5.43,2.51,1.27,7.36.09,10.46.54,6.92,1.01,10.33,6.72,15.09,10.91,1.44,1.27,5.4,3.02,5.98,4.02,1.11,1.92-.33,4.97,1.48,6.52,1.67,1.44,7.33,1.16,9.06,2.94,1.61,1.65.29,4.57,1.95,6.05,2.13,1.91,7.47.86,10,2,2.28,1.02,10.63,8.09,12.96,8.95,1.47.55,4.29-1.23,7.81.29,3.2,1.38,2.84,4.17,4.68,6.31,6.47,7.54,15.8,9.71,23.54,14.46,2.63,1.62,10.77,9.17,8.03,12.46,6.22-1.39,4.09,4.07,5.98,5.53,1.77,1.37,8.58,1.64,11.12,3.88,2.19,1.92,1.55,4.6,2.82,6.18.75.94,8.9,5.81,11.12,7.88,14.02,13.01,30.3,29.63,41.07,44.93,1.01,1.43,2.73,1.85,3.86,3.11l-2.01,3.02c1.5,5.8,5.47,2.25,8.49,2.51.47.04,6.83,2.66,7.06,2.96.89,1.13.97,5.25,1.78,7.22,1.05,2.56,8.1,17.53,9.33,17.72l6.37-1.92c-1.29,6.77-11.53.97-1.94,9.46,4.93,4.37,9.51,8.51,15,12.98,6.12,4.98,2.3,6.5,2.93,10.98.22,1.54,2.03,2.75,2.03,4.07,0,2.98-6.32,7.4,4.93,7.57,2.16,7.47,5.23,12.78,3.07,20.91,5.25-1.05,4.04,2.37,5.31,3.69,2.63,2.74,12.99,13.63,14.17,16.34.91,2.08.05,4.81.67,5.84.16.27,5.19,2.8,5.49,2.86,4.91.97,12.05.51,16.79,1.35,2.32.41,4.4,2.84,7.17,2.93,3.77.12,5-4.89,10.99-2.09,5.4,2.52,1.14,13.28,9.38,13.13-2.21,5.88.54,4.3,1.33,6.18.85,2.01.03,11.63-.53,14.09-.53,2.35-2.91,3.31-2.79,5.7,5.3-1.3,7.4,2.7,7.09,7.52-.21,3.25-2.83,3.76-3.13,6.03-.33,2.43,1.25,8.08,1.07,12-.92,20.25-7.5,35.53-10.81,54.18-1.85,10.46-.86,18.25-4.44,29.56-.76,2.39-4.46,3.1-5.78,5.23-1.1,2.6,6.64,2.67,8,2.49.88,4.2-1.55,2.31-3.45,4.02-5,4.48-.39,6.9-.64,8.35-.16.94-2.27,1.85-2.72,3.33-.36,1.19-2.93,13.29-2.9,14.01.08,2.59,2.72,7.41,2.57,10.85-.12,2.84-3.42,4.32-2.87,7.43h4.02s0,12,0,12c9.04-3.36,9.08,7.36,0,4.01-1.9,6.15,2.54,6.41,3.73,8.26.62.97.33,3.03,1.02,4.46,2.09,4.3,4.27,2.42,7.21,3.81,1.37.65,2.15,2.89,3.75,3.33,3.37.91,11.31-3.58,14.36-1.43,1.19,3.07,3.27,10.31,5.32,12.67,1.88,2.17,4.56,1.48,6.15,2.89.84.75.89,1.81.79,2.63,1.31.51,2.6,1.16,3.88,1.99,4.25,2.76,7.62,6.66,12.1,9.08.15.08.29.17.43.26l22.25,1.04-2.99,4.48c2.26,3.3,5.85,3.64,8.89,5.11,4.29,2.08,5.68,5.18,12.4,3.19,2.26-.67,3.8-4.85,6.18-4.8,1.3.03,2.53,1.78,4.06,1.97,3.08.4,7.97-.75,10.46.53,2.56,1.31,1.35,4.69,2.6,5.62.73.54,6.95,2.28,7.38,1.9.31-2.9,1.65-7.84,3.52-9.98,1.7-1.95,4.84-2.1,5.36-3.64.94-2.8-.73-6.94,1.7-10.3,2.02-2.79,6.89-3.25,8.43-4.57,1.47-1.26.68-4.87,3.43-6.57,3.85-2.39,12.01.58,6-10.85-.96-1.82-5.77-4.71-5.42-6.56.6-3.15,5.58,2.06,7.54,2.44,2.02.39,4.37-.1,6.45.04-1.57-5.7-1.29-9.9,5.04-11.52l-3.04-6.96c6.64-2.2,4.27-5.28,6.26-9.77.83-1.85,2.6-2.52,3.21-3.79,2.15-4.47.76-10.15,9.48-7.35l2.06-1.14-7.92-11.83c3.03-3.46,6.05-6.55,4.81-11.58-2.62-.11-3.34.55-2.91-2.56,7.14-5.33,9.39-6.54,6.18-15.8,1.99-2.42,6.35-11.31,5.9-14.17ZM982.61,461.93l-2.05,3.95-7.5-10.98c5.33-.96,6.39,4.09,9.54,7.02Z"/>
  </g>
</svg>