<?xml version="1.0" encoding="UTF-8"?>
<svg id="Layer_2" data-name="Layer 2" xmlns="http://www.w3.org/2000/svg" viewBox="0 0 2015 735.07">
  <g id="Layer_1-2" data-name="Layer 1">
    <path d="M2015,619.63l-8.47-2.58c.16,2.54-4.05,5.01-6.06,5.07-1.65.05-9.19-9.35-8.46-10l6.28,1.89,5.72-4.42-3.96-7.02c-3.92-1.21-7.31,1.26-11.49.51-3.73-.67-6.94-4.29-14.07-4.94-10.63-.97-25.62-1.26-35.79-4.21-1.7-.49-2.4-2.68-3.72-3.28-2.93-1.35-8.26-.71-11.71-2.29-9.94-4.53-19.54-11.92-29.06-17.19-8.97-4.96-18.77-8.91-27.68-14.06.05-3.92-4.58-9.16-5.32-11.68-1.33-4.51-.42-12.24-1.24-16.76-.44-2.38-2.56-3.49-2.99-7.01-.9-7.34.95-15.07,1.07-21.98.33-18.5-.21-36.1-2.03-54.08-.34-3.42,2.23-10.75,1.8-14.69-.95-8.86-9.42-11.24-13.85-16.24-.96-1.08-.93-3.38-1.95-4.07-2.36-1.59-5.16,1.88-3.97-4.9.4-2.3,2.78-3.29.94-6.55-4.34,1.05-3.15,7.7-6.49,8.06-6.86.74-1.05-13.02-5.04-14.06-1.69-.44-6.41,3.57-9.46,2l-.05,7.96c-5.67-1.83-11.01.35-13.81,5.67-3.01,5.71,1.44,4.39,1.88,6.06,1.37,5.19-2.1,7.36-3.55,11.27-2.76,7.46-4.02,8.07-6.89,14.11-2.32,4.87-1.39,13.78-9.57,11.92-.38-2.97,1.9-6.43.86-9.33-.53-1.49-2.53-1.56-3.31-2.72-1.26-1.87-1.4-6.56-3.13-8.87-5.16-6.84-15.32-16.06-21.36-22.64-1.56-1.7-1.95-5.05-4.51-6.49-2.54-1.42-6.33-.71-6.56-.94-.22-.23.28-3.08-.16-4.32-1.17-3.36-6.96-2.13-9.63-3.4-4.82-2.28-.62-1.62-8.66-3.33-6.94-1.47-12.22-3.32-19.81-.72-3.93,1.35-4.25,7.18-12.1,3.83-1.89.63-1.49,4.32-3.64,5.43-1.37.71-3.45.32-4.93,1.07-4.65,2.36-9.73,7.25-14.17,9.83-3.25,1.88-12.35,4.58-14.44,6.56-1.41,1.33-1.3,3.37-2.48,4.54-3.21,3.2-13.69,10.72-17.94,14.04-8.25,6.46-17.06,11.4-23.94,19.04-1.38,1.53-1.96,5.07-3.12,5.9-1.14.82-3.61.66-5.36,1.64-6,3.35-10.36,11.21-14.19,15.81-2.08,2.49-7.04,4.19-8.9,7.1-1.67,2.61-1.06,4.77-2.07,6.93-1.52,3.26-9.07,10.13-10.72,15.35-1.31,4.14,1.77,10.64-.85,15.58l-5.81,1.74,1.93,8.37c-2.63-.87-4.88,2.26-6.94,1.56-6.61-2.23-3.18-8.48-8.05-9.55-1.41,4.35-7.25,6.61-10.92,9.6-2.24,1.83-4.58,5.54-7.6,7.4-4.91,3.01-11.01,4.55-15.47,6.48-1.25.54-2.11,2.97-3.75,3.39-1.77.46-3.42-.86-4.67-.64-1.03.18-2.03,2.02-3.34,2.55-14.19,5.75-31.99,10.93-46.49,14.5-11.5,2.83-21.03,5.44-32.2,6.72-2.72.31-4.15,2.96-7.1,3.11-3,.15-3.99-1.7-6.05-2.08-5.18-.96-8.7,2.59-13.21,3.69-14.07,3.46-28.58,3.91-42.65,6.35-3.56.62-6,2.91-9.97,1.14-4.69,6.41-3.56,2.67-8.16,1.84-7.57-1.36-20.84.33-23.01-8.98-4.16-17.85.64-35.13,4.65-52.56,1.9-8.26,3.08-8.46,5.65-15.29,2.09-5.55,2.4-12.61,5.38-18.62,3.06-6.18,8.18-8.56,9.45-15.56.3-1.66-.72-2.99-.06-4.96.71-2.11,23.43-34.47,25.61-36.48,3.55-3.28,11.16-7.72,15.89-6.61-1.95-4.17,2.4-4.75,5.03-7.46,7.15-7.36,15.49-14.21,24.03-19.97,4.3-2.9,11.33-3.42,11.11-10.39,12.05-5.51,23.26-9.31,36.41-11.1,11.48-1.57,22.31-2.49,33.8-4.19,6.83-1.01,12.23-1.58,19.12-1.69,4.31-.07,12.64,1.5,16.78.6,4.38-.95,5.64-4.26,3.82-8.23l.86-1.09c6.19-.2,8.78-4.93,14.42-1.51,2.29-4.73,6.28-2.81,9.55-6.54,1.33-1.52,5.04-8.17,5.06-10.05.03-2.29-1.82-3.24-1.91-4.82-.06-1.15,1.45-3.95.91-4.55-1.21-1.35-9.22.73-5.01-9l-12.44.93-2.09-4.93c-3.75,2.32-5.99-.87-7.95-.98-1.82-.1-5.1,2.86-8.99,3.05-5.22.25-9.98-2.3-15.52-.08v-3s-5,1-5,1l8.73-13.76,3.27-14.23,4.94.97c-.06-3.62,2.96-4.18,4.44-6.08,3.1-3.97,6.14-9.73,9.17-13.83,1.7-2.3,5.92-5.13,6.89-7.11.26-.53,2.55-7.08,2.56-7.48.04-2.13-4.08-3.54-3.02-6.46,5.38.53,2.75-6.29,8.94-5.07-1.19-4.85,4.04-8.92,4.85-12.65.61-2.81-.42-6.39.37-8.67.24-.7,5.79-5.72,5.77-8.05-1.48-3.78-.46-7.82-1.36-11.65-.84-3.6-3.85-4.79-4.38-6.62-.64-2.22.47-5.73-.65-7.35-1.05-1.51-7.09-1.71-5.57-7.93-4.33-1.3-5.5,2.18-8.97,2.97l1.57-5-5.57-3.01c-2.66-2.74,7.77-1.98,6.99-5.47-.26-1.16-2.82-2.79-4.3-2.41-2.26.58-6.53,7.97-10.69,6.89,2.25-4.62-4.47-19.09-8.78-12.26-5.09,8.07-6.12,4.98-12.64,8.36-10.24,5.32-20.04,12.31-30.1,17.9-8.38,4.66-19.76,24.74-29.61,30.39-9.57,5.47-14.15,8.84-19.98,18-1.74,2.74-7.16,6.4-8.96,8.3-1.08,1.14-2.49,6.36-3.2,7.05-.63.61-3.44.84-5.27,2.24-3.62,2.77-9.38,13.05-14.96,18.04-7.52,6.72-13.26,17.1-20.52,25.48-5.95,6.87-5.94,5.62-10.96,14.04-.98,1.64-9.09,10.52-10.66,11.33-7.01,3.64-7.66-2.12-13.89-1.96-4.47.12-11.69,3.76-18.03,4.11-3.1.17-5.7-1.12-7.91-.98-3.16.19-4.24,3.12-6.27,3.74-5.78,1.78-14.56,1.09-20.74,4.28l-2.04-4.04c-2.9,8.95-13.73,5.53-20.73,8.25-.63.25-9.54,5.18-10.31,5.69-8.94,5.88.69,12.01,1.4,14.74.67,2.58-4.49,10.57.06,15.88,1.84,2.16,5,.67,6.57,2.43,1.6,1.8,3.66,8.38,3.52,10.99,6.76-3.13,5.17,3.94,6.12,4.87.35.34,2.55.06,3.8.67.96.47,1.52,1.81,2.81,2.23,2.59.84,10.57-.1,8.07,4.06-.22.36-2.3.6-3.26,2.21-.37.62-3.5,8-3.5,8.46.02,1.65,1.58,2.9,1.78,4.23.22,1.5-1.13,3.81-.82,4.23.27.37,6.1,1.14,6.01,4.53-.03,1.26-1.56,2.28-1.75,3.29-.75,4.06-.16,12.29-.69,14.27-.54,2.05-3.91,4.43-4.82,7.22-.64,1.95-3.42,9.79-3.53,10.35-.35,1.68,1.55,4.93,1.31,6.91-.28,2.31-5.09,6.79-5.45,8.19-.54,2.13,2.05,3.34,1.82,4.66-.17.96-2.29,1.87-2.73,3.33-.59,2,.12,4.44-.41,6.59-.82,3.32-4.29,6.89-4.75,10.3-.49,3.63,1.49,6.86.99,9.87-.43,2.6-3.78,3.28-3.04,7.05l3.08,1.05c1.37,4.81-1.59,8.26-2.12,11.9-1.28,8.92,2.87,19.86,2.89,28.98l-.82,1.06c-4.82,1.23-9.35,3.35-13.99,5.04-8.95,3.28-7.56,3.27-15.11,7.89-10.1,6.18-19.3,7.77-29.84,12.16-1.83.76-3.69,2.93-5.83,3.26-1.86.29-3.48-.81-4.63-.61-1.78.3-5.45,6.66-9.52,4.67-1.54-10.02-11.9,2.68-15.17,4.52-4.28,2.4-14.62,1.81-19.34.5-4.93-1.37-8.23-6.19-15.58-3.93l.99-4.99c-2.22-.65-3.02,2.5-4.47,2.66-9.88,1.09-6.74-16.32-6.49-21.12.14-2.77-.94-8.88-.72-10.12.19-1.07,2.42-1.46,3.08-2.53,4.69-7.55,6.04-13.64,8.77-21.26.51-1.43,2.6-1.29,2.85-2.34.42-1.75-.27-3.94.43-6.35.89-3.05,7.51-12.77,9.28-16.71,2.49-5.53,4.36-13.96,7.06-18.94,1.51-2.77,4.07-4.2,5.42-7.58,3.53-8.85-1.3-11.42-.21-17.18.45-2.4,3.36-3.52,2.99-5.02-6.29-2.35-4.01-3.88-5.67-8.34-2.16-5.79-6.86-9.35-12.31-5.18l-.46-6.99c-5.35-4.42-12.34-4.58-18.5-7.1-.66-.92,2.69-6.04-1.53-5.92-.4.01-7.01,2.31-7.48,2.55-.67.33-10.51,7.4-11.03,7.97-4.33,4.73-5.35,15-9.56,19.47-1.07,1.14-2.94.77-3.29,1.17-.47.54.02,3.18-.71,4.79-4.88,10.78-13.38,19.76-19.88,29.13-3.87,5.57-2.79,8.76-9.72,15.33-3.75,3.55-1.87,2.51-4.57,6.38-16.32,23.42-51.86,57.75-75.65,73.35-9.65,6.33-19.27,14.57-29.71,19.29-4.78,2.16-9,2.42-13.19,3.81-1.95.64-2.4,3.15-4.72,2.77-.13-1.76,0-3.49.26-5.24,1.29-8.57,7.84-13.89,9.52-23.52.47-2.7-2.42-4.62,1.71-7.29,1.3-.84,3.39-.84,3.52-.97.32-.34-.9-4.51,1.61-8.91,2.77-4.86,1.34-2.62,2.62-8.34.74-3.34,3.37-5.69,4.19-7.8,6.6-16.89,13.11-33.57,19.98-50.02,4.66-11.17,9.76-22.95,14.79-34.21,2.13-4.77,3.64-10.88,5.31-14.69.62-1.41,3.2-2.47,3.95-4.05,10.37-21.89,6.81-33.4,7.81-55.68.08-1.8,2.32-3.08,1.73-5.27l-4.45-.07-.55,3.07c-1.11.13-1.98.03-3-.5-.61-.31-9.5-8.59-10.02-9.26-2.73-3.52-1.87-9.38-5.44-12.28-2.27-1.84-6.97-1.98-9.04-4.95-3.08,7.85-13.36,1.5-15.51-4.01l-1.45.02c-2.5,3.88-6.98,2.87-10.46,4.55-5.18,2.5-14.95,11.12-20.15,14.85-3.21,2.3-8.16,4.71-10.86,7.14-5.32,4.79-3.72,5.45-10.95,10.05-7.22,4.59-18.11,19.67-26.6,26.4-.85.67-6.78,4.77-7.2,4.88-4.02,1.08-3.8-3.97-4.87-5.81-.76-1.3-2.44-2.07-2.92-3.08-1.33-2.85.23-6.17-.95-9.05-1.34-1.93-6.12-.14-8.56-1.44-2.36-1.27-2.58-6.58-4.03-7.97-3.92-3.73-12.11-6.7-17.2-7.79-1.03-.22-2.02-1.56-3.36-1.75-2.34-.34-6.51,2.01-8.45,3.48-2.12,1.62-7.11,8.25-8.4,10.6-1.09,2-.81,4.91-2.11,6.89-1.1,1.7-3.97,2.26-4.36,3.69-.57,2.07,1.36,5.29-.9,10.06-1.16,2.46-6.77,7.7-7.07,8.98-.37,1.59,1.13,3.33.66,5.53-.9,4.2-8.29,12.42-10.51,17.58-1.8,4.17-2.49,10.73-4.24,13.65-.42.71-2.68-.58-3.61,1.56-.61,1.4.69,2.84.31,4.23-1.82,6.65-6.87,13.67-9.45,19.58-5.89,13.53-10.56,27.29-17.92,40.12-.61,1.07-3.06,1.66-3.83,4.09-.57,1.81-.41,5.52-.71,5.85-.36.4-2.46-.06-3.35,1.11-1.36,1.76-2.33,9.48-2.67,9.87-.39.45-2.44,0-3.33,1.13-1.03,1.32-2.06,7.97-2.74,8.79-.43.51-2.36.5-3.28,1.17-6.47,4.74-13.47,6.6-20.47,9.58-1.41.6-3.57,3.76-6.12,4.88-17.25,7.61-35.16,14.71-50.97,23.03-3.24,1.71-8.83,2.79-12.36,1.68l-1.48,4.43c-6.67-1.06-8.81,4.32-13.07,5.98-5.32,2.07-15.04,4.02-21.05,5.95-15.52,4.99-44.8,12.7-60.43,14.57-4.06.48-8.73-.44-12.95.05-25.85,3.01-69.67,15.94-94.11,12.95-4.87-.6-11.04-3.55-16.46-3.53-1.8-.89-3.13-8.04-3.06-10.05.07-2.13,1.6-3.04,1.77-4.11.22-1.36-.91-3.02-.72-4.76.34-3.01,3.34-5.43,6.08-6.13l-1.56-6.49-2.98.05-.52-2,3.56-.93c-.91-5.82,3.18-6.99,4.68-10.34,2.29-5.13,3.49-14.55,5.68-20.32,4.28-11.25,11.56-28.29,16.68-38.32,7.4-14.51,13.57-30.09,20.97-45.03,5.33-10.75,9.66-21.98,15.38-32.62,6.48-12.08,13.44-24.06,20.11-35.89,2.41-4.28,6.55-15.15,10.97-17.03,1.92-.82,4.08-.18,5.97-1.03,1.29-.58,2.1-2.91,3.73-3.35,2.97-.8,12.51,3.76,12.27-4.13l-7.99,1.99c-.49-2.53.47-1.77,1.94-2.51,2.99-1.51,20.93-2.37,23.09-.97.71.46.78,2.38,1.48,2.52,3.68.74,2.82-2.82,4.51-4.52,2.99-3.02,6.42-.41,9.24-.75,3.54-.43,7.44-2.09,11.41-2.4,4.06-.32,13.22,1.68,15.68,1.32,1.24-.18,3.17-2.05,5.39-2.47,3.41-.64,18.37.9,19-2.67-.75-7.25-5.2-1.94-8.02-1.82-7.14.3-16.73-.94-23.28-.63-1.92.09-4.28,2.88-4.95,2.87-2.75-.04.68-5.3,2.17-5.82.99-.34,11.54-1.09,13.8-1.2,8.08-.41,20.9,1.41,28.03.03,2.41-.47,2.89-2.95,6.02-3.1,3.27-.16,4.73,2.49,7.89,2.13.74-.08,7.94-1.94,8.87-2.25,1.22-.41,1.9-1.38,2.71-2.27-5.72-3.75-1.71-5.27-2.99-10.49,4.01-1.48,10.05,2.24,8.91-4.39-3.55-1.9-13.26-6.08-16.92-5.18-7.02,1.72-10.02,5.25-9.99,12.57l2.52-3.05c2.39-.44,4.8.81,6.98.86,2.06.05,7.22-2.81,6.51,1.2-4.31-.89-5.64,3.37-9.57,3.96-3.79.57-7.73-1.15-11.72-.09-2.49-2.9-8.99-11.6-4.74-14.37-4.12-5.14-6.99-.58-10.48-.38-2.88.17-3.89-1.67-5.96-1.94-5.48-.73-14.65,1.2-20.52.82-.12-4.2,3.3-4.58,5.99-6.5-5.48-3.16-11.11-.64-16.49-.4-3.8.17-9.18-.33-13-.1-2.49.15-4.88,1.49-7.48.99.6-3.41-2.5-5.85-1.82-9.19.37-1.81,8.14-13.28,9.79-15.3,3.68-4.5,7.84-7.48,11.4-12.6,14.15-20.37,30.03-41.84,47.07-59.92,1.13-1.2,3.49-2.08,4.02-3.01.71-1.23.23-3.44.63-3.84.38-.39,6.24-1.91,9.4-5.1,5.33-5.37,10.4-12.04,16.02-17.98,16.42-17.39,35.4-36.68,53.38-51.62,23.93-19.89,46.36-43.32,69.11-64.89,9.11-8.64,17.68-16.37,25.99-26.01,8.73-10.11,19.29-19.64,26.58-30.42,1.49-2.21,8.99-11.08,9.2-11.8.65-2.2.34-7.24.25-9.84-.08-2.33-.79-11.17-1.25-12.75-1.65-5.68-8.09-2.03-8.79-2.71,2.58-6.12-4.11-11.21-10-10l2.99-9.99c-4.7-1.67-2.96,5.27-5.57,5.98-1.81.49-2.91-1.49-4.08-1.69-1.16-.2-2.63.92-3.73.62-1.29-.36-1.53-4.48-5.62-2.91-.1-2,.75-7.33-1.52-8-2.48-.73-3.36,2.26-5.12,2.7-6.79,1.71-7.2,2-12.36,7.8-5.15,5.79-6.97,7.39-12.42,12.58-2.44,2.33-3.85,6.51-6.05,8.95-9.42,10.45-19.48,20.37-28.53,30.47-6.06,6.77-12.95,9.88-22,10.5l-.44,13.06c-.86,1.18-3.79.73-5.17,1.84-2.46,1.98.57,5.1-7.45,4.56v3.4s-5.94,2.15-5.94,2.15c2.07,2.53,1.03,7.18-1.42,9.07-1.29,1-3.34.65-4.52,1.48-1.81,1.28-10.35,9.62-11.03,9.95-2.25,1.08-5.14-.15-7.05.97l-.97,1.02,1.56,2.5c-4.25,2.54-6.43,7.89-9.15,10.93-3.37,3.77-9.66,4.35-12.37,7.63-2.34,2.85-5.33,8.68-8.06,11.94-5.62,6.71-13.07,13.81-18.95,19.02-5.95,5.27-11.31,8.56-16.04,13.99-2.43,2.79-6.89,5.11-8.48,7.52-.97,1.47-1.42,4.55-1.71,4.79-.5.42-2.76.14-4.36,1.12-6.24,3.8-9.89,18.18-19.45,16.07-.55,2.68.61,1.47,1.99,2.49-2.32,2.58-6,5.39-9.09,6.95-1.24.62-3.43.34-3.78.69-.22.22-.19,2.82-1.09,4.39-2.33,4.04-5.01,4.02-7.01,6-1.24,1.24-1.32,3.61-2.98,5.11-1.68,1.52-3.29.2-4.05.8-.63.49-4.9,7.27-6.94,9.09-3.64,3.25-6.94,4.02-10.01,6.02-4.46,2.91-11.15,12.44-15.53,16.47-8.83,8.14-20.19,15.48-30,24-9.96,8.66-20.75,18.38-29.54,27.46-.96.99-1.39,2.77-2.44,3.56-2.35,1.76-6.79,1.15-8.54,2.46-1.11.83-1.18,3.23-2.44,4.56-7.08,7.49-16.6,13.16-24.84,21.66-6.88,7.1-14.48,5.25-22.23,5.27-19.91.04-41.83-.08-61.04,1.99-2.17.23-7.27-1.12-10.95-.97-10.87.43-20.8,4.94-32.01,5.79-1.42.11-2.97-1.14-4.78-.67-1.4.36-2.64,2.78-4.43,3.65-4.69,2.29-8.18-.05-8.37,8.77-.06,2.95,1.57,3.79,1.78,5.11.22,1.41-.95,3.1-.74,4.79.3,2.46,7.2,10.82,5.95,15.91,3.78.79,6.07,4.89,9.14,6.1,1.69.67,4.77.37,4.95.54.26.25-.42,4.21.48,6.02.99,2,4.96,1.83,5.41,3.55l-.87,4.42,3.98-2c.94,8.95,7.91,3.04,11.36,3.04,1.2,0,9.69,1.31,9.64,2.46-3.69,4.58-7.92,8.88-13.04,11.94-2.53,1.51-8.38,4.69-10.89,3.58.51,4.98-3.18,3.17-5.05,4.48-.51.36-4.59,7.02-6.48,8.52-2.31,1.83-6.36,2.68-7.83,3.92-1.02.85-.84,2.71-2.13,4.1-4.12,4.39-19.3,15.11-25.03,19.99-7.62,6.47-14.74,12.09-22.43,17.57-7.5,5.34-11.38,12.85-19.73,18.27-1.96,1.27-5.31,1.44-6.92,3.08-1.81,1.85-.96,3.85-1.64,4.85-1.46,2.14-19.57,13.9-23.06,17.18-1.01.95-.72,2.64-1.73,3.5-3.67,3.14-14.53,6.63-19.47,11.55-2.63,2.62-3.07,7.23-3.47,7.48-6.43,4.14-14.26,7.49-20.55,12.51-4.87,3.89-9.65,10.56-15.01,13.99-2.64,1.69-6.77,2.36-8.2,3.29-2.5,1.64-8.18,10.56-11.77,12.82-2,1.26-3.24-.37-4.57.34-.84.45-.15,2.19-.87,3.07-5.02,6.14-12.57,9.07-18.33,13.45-10.69,8.14-18.86,16.16-30.24,24.03-1.52,1.05-7.59,7.66-8.14,7.83-1.95.6-4.16-.29-6.36.68-3.33,1.46-14.2,12.57-18.45,12.55-2.92-.01-4.41-1.9-8.17-.18-3.03,1.39-1.88,3.25-2.6,3.9-.75.69-5.28.28-7.87,2.63-.98.88-7.15,11.27-6.92,12.05.89,2.99,5.58.61,7.32.84,1.29.17,3.42,2.53,5.68,1.7l-.95,5.38,3.93,1.65-.98,5.96c.93.86,6.98-2.89,5.81,2.3l-1.81,3.7c6.75-2.15,8.88,1.76,4.98,7.48,2.77,1.6,3.62,1.97,3.02,5.52,1.87-.15,3.59-1.19,5.53-1.12,1.82.06,1.33,1.92,2.14,2.1,2,.44,4.19-.42,6.19.14l1.18,4.83c5.41.05,6.54-4.65,12.98-2.36,3-2.07-.99-11.08,10.48-4.83l3.01-3.79,2.98,2.01c.56-2.93,4.99-3.82,5.29-4.19.65-.8-.29-2.89,1.22-4.28,2.24-2.07,7.35-1.94,8.76-2.75.5-.29,1.04-2.38,2.16-3.31,16.33-13.48,33.68-26.2,50.12-39.94,7.98-6.67,17-15.99,26.45-22.51,1.8-1.25,15.34-9.57,16.26-9.81,2.42-.64,4.01.5,6.23.81.39-2.12-.71-6.1.25-7.77.29-.5,7.72-7.96,8.22-8.26,2.36-1.44,6.67-1.56,8.58-3.5,1.33-1.35.14-2.82.7-4.19,1.62-3.96,10.82-7.17,14.72-10.31,5.8-4.66,10.3-11.33,16.6-15.4,4.81-3.1,3.3-2.76,6.52-5.47,1.62-1.37,4.74-1.41,6.1-2.41,15.66-11.51,31.38-26.5,45.35-39.14,2.87-2.6,10.28-4.95,12.3-6.47,1.1-.83.72-3.12,2.05-4.17,1.24-.99,3.28-.66,4.54-1.47,1.18-.75,3.95-5.21,6.05-6.95,12.27-10.19,24.24-20.15,37.33-29.67,10.19-7.41,18.32-19.21,27.19-25.81,5.03-3.75,11.39-3.24,11.5-12.01,6.06,1.94,3.9.14,6.07-1.37,10.13-7.03,20.31-14.42,30.43-21.61,4.42-3.14,4.85-7.94,5.46-8.46,1.01-.86,8.29-4.55,9.6-4.52,5.41.13.7,8.66.02,11.16-.44,1.65.46,3.55-.1,4.77-1.13,2.49-7.71,6.96-8.32,11.74-.16,1.28,1.41,2.09,1.63,3.06.75,3.26-3.46,5.97-5.07,8.48-2.16,3.39-4.16,10.05-8.74,9.77l2.97,4.49c-4,2.24-3.71,8.75-5.53,11.44-.76,1.13-2.8,1.25-3.3,2.7-.97,2.83.69,7.11-1.34,10.66-1,1.75-4.06,3.14-5.78,5.22-.83,1-8.01,12.06-8.31,12.76-1.26,3.06,1.03,6.62-1.89,11.05-1.37,2.08-3.61,1.25-3.9,2.26-.54,1.91.71,5.39-.09,7.74-.6,1.76-3.42,1.98-4.32,3.67-1.66,3.12.21,7.49-4.35,9.61l-2.17,14.37-3.99-.99c2.98,7.41-2.9,12.06-4.57,18.93-.93,3.83-.57,10.24-1.61,13.42-.52,1.57-3.55,1.32-3.82,5.15-.22,3.03,3.97.13,2.98,2.97-.75,2.16-3.24,5.66-4.31,8.7-1.21,3.43.22,7.02-3.66,9.32l7.93,5.93c-1.1,1.36-1.73,4.06-2.88,5.13-2.21,2.05-6.34.81-6.06,4.43,4.37-1.12,4.3,2.15,6.06,3.47,1.28.96,3.27,1.11,4.03,2.23,1.03,1.51-.76,10.21,2.12,15.64,1.7,3.22,7.9,10.81,9.25,13.71.81,1.74.25,3.84,1.45,5.55,1.17,1.67,4.75,2.02,6.07,3.92l-1.99,3.49c4.7-.81,4.14,3.66,5.28,4.74,1.93,1.84,5.16.07,3.73,7.27,5.9-2.21,7.29,2.82,11.06,5.44,1.93,1.35,12.86,9.11,13.65,9.35,3.51,1.1,9.73.67,13.56,1.44,4.54.92,13.28,5.6,16.31,5.71,4.51.17,9.14-4.44,14.92-4.92,6.55-.55,10.96,3.08,16.21,2.7,1.62-.12,2.67-1.69,4.73-1.78,4.47-.19,13.3.97,16.84.07.97-.25,1.12-2.2,2.29-2.89,7.45-4.44,12.51-3.63,20.88-4.16,1.27-.08,2.95,1.12,3.98.89.46-.1,4.12-4.8,7.3-5.61,5.16-1.32,9.76,1.35,13.67.74.63-.1,9.46-2.91,9.91-3.17,2.37-1.35,2.98-4.95,8.14-4.85,2.07,7.15,3.32,2.81,6.29,2.25,1.45-.28,2.7.86,4.2.29,1.67-.63,5.05-4.36,7.63-4.54,2.28-.16,3.55,2.13,4.77,1.94,1.36-.22,3.81-4.85,7.62-5.54,3.42-.62,3.8,1.61,5.54,1.66,3.74.11,8.47-12.72,15.38-9.93l1.68,3.92c1.98-1.12,6.32-.84,7.84-1.92,1.09-.77-.68-3.83,5.23-4.1,1.84-.08,1.14,1.81,2.02,2.02,1.73.4,8.13-1.44,9.34-2.54,1.08-.98.53-2.99,1.69-3.5,4.23-1.84,12.84-2.6,17.31-4.47,5.53-2.31,9.84-2.94,14.22-4.78,3.23-1.36,11.33-7.59,14.48-8.52,2.77-.81,5.9.34,8.76-2.24,2.42,1.85,2.01,6.17,3.06,8,.88,1.53,7.06,5.1,9.05,5.97l-.52,9.01c9.56-.75,14.46,10.07,23.27,2.18l7.18,4.7c2.49-2.71,6.37-5.46,8.48-8.34,9.39-12.74,15.37-27.26,23.98-40.02,8.62-12.77,26.24-28.8,32.4-41.46.4-.83-.52-2.24.5-3.55,1.42-1.83,5.62-2.39,6.62-4.46,1.41-2.9-.48-8.03.95-10.05.62-.87,2.83-.9,3.99-2.02,4.25-4.11,5.88-14.3,13.1-13.89,1.88.11,2.44,2.35,4.45,1.94l-1.99-5.97c6.02-1.93,6.42-9.64,10.46-14.06,1.9-2.08,6.16-3.95,7.58-6.42,1.58-2.75,1.18-7.91,2.18-9.31.69-.95,13.13-6.69,14.77-8.73,1.59-1.98.45-4.45,1.98-6.02.84-.86,3.17-1.26,4.52-2.48,4.53-4.06,8.92-9.7,12.83-13.66,5.39-5.45,11.56-8.77,14.9-16.61.77-1.81.51-4.79,1.22-5.78.83-1.16,3.26-.77,4.48-1.52.77-.48,6.73-6.7,4.82-1.19-2.77,7.98-4.54,11.74-8.76,18.5-2.66,4.25-2.7,12.2-4.49,17.25-1.77,5.02-5.75,9.46-7.71,14.29-1.89,4.63-2.49,13.15-4.36,16.64-3.53,6.59-5.7,10.42-8.16,17.84-3.28,9.85-13.85,34.94-12.95,43.92.17,1.68,1.89,2.89,1.7,3.8-.27,1.28-7.59,1.8.96,7.01-2.81,2.61-2.5,10.26-1.92,13.95.54,3.41,2.93,4.11,3.7,6.3,1.42,4.05,1.81,14.42,3.76,18.2,1.32,2.55,4.81,2.51,2.47,7.06,5.85-1.16,5.6,3.8,7.61,5.9,3.69,3.85,7.24,7.1,10.79,11.21.74.85.69,2.82,1.56,3.44,1.79,1.27,6.18-.17,6.97.59.07,5.37,11.79,7.79,16.46,7.76,6.41-.04,16.43-4.9,21.85-2.8,1,.39.51,2.22,2.19,1.95,1.28-.21,4.75-2.23,6.06-3.06,3.01-1.91,9.14-8.43,11.54-9.53,1.5-.69,3.18.88,3.83.45,1.81-5.62,3.49-1.71,5.92-1.06,1.81.48,6.35-3.15,8.13-4.44,24.21-17.57,48.3-34.98,70.77-54.72,1.69-1.48,2.69-5.23,5.28-7.23,8.7-6.7,11.46-.09,15.46,6.64,1.65,2.78,3.05,4.26,4.08,5.92.91,1.47.19,3.82.95,5.05.98,1.57,3.94.41,5.33,1.19.73.41,4.51,5.41,5.57,6.42.79.75,2.81.66,4.26,2.24,3.49,3.82,5.75,12.62,13.41,11.1-1.06,3.08,1.66,9.02,4.24,4.67.81-1.37,3.66-5.81,5.76-3.67,2.14,2.19-1.84,2.84-1.95,3.03-1.57,2.74,5.37,1.66,4.97,5.96h1.47c3.31-7.1,6.71-.65,10.02,0,4.74.92,15.32-1.45,17.79-.84,1.96.49,4.06,5.03,9.25,4.75,1.3-.07,2.28-1.53,2.94-1.54.67-.01,2.02,1.74,4,1.76,2.68.03,15.39-4.73,19.04-5.1,4.14-.42,11.06,1.88,16.45-.52,2.88-1.28,2.21-6.42,8.01-4.5l-.6-4.03,10.3-7.85c3.98-1.04,5.96,6.14,2.81,4.88-1.37-.55-2.1-3.82-4.51-.47,4.29,9.73,15.64,1.18,14.17-7.35l8.35-3.15c-.2-4.79,4.25-6.08,5.91-9.09.88-1.59,3.87-11.38,4.63-11.92.48-.34,2.4.9,3.45.83,8.4-.58,10.45-10.77,18.49-9.85l2,11.52,4.99-1.51c1.41,2.09-.03,8.24.43,9.01,1.08,1.82,7.03,2.07,8.66,4.41,1.23,1.76.64,4.03,1.86,6.14,2.03,3.5,9.67,7.73,12.08,11.92,2.84,1.9,6.71-1.1,9.27-.36.82.23,5.93,6.13,7.49,6.84,9.03,4.11,14.74-.07,22.84-.83,3.55-.33,9.56-.87,12.32,1.42,1.7,1.42.91,3.38,4.53,3.54,7.31.32,10.09-4,15.3-5.82,5.43-1.9,20.62-6.37,25.95-7.08,4.28-.57,10.57.17,15.71-1.26,3.44-.96,5.66-3.76,10.11-3.98,3.81-.18,5.76,2.19,7.71,1.92.83-.12,14.37-4.84,15.71-5.41,1.21-.51,2.25-2.56,4.01-3.08,2.16-.64,7.11.78,10.35-.36,1.33-.47.33-3.26,2.3-3.95,2.03-.71,4.35.99,5.77.71,1.83-.36,9.69-5.66,10.3-5.81,5.35-1.31,11.6-1.65,17.24-4.54,1.85-.95,4.48-4.8,6.72-5.16,2-.32,4.51,1.66,7.4,1.29,3.6-.47,6.6-4.29,7.59-4.46,1.15-.2,3.39,2.74,6.66,1.94,2-6.41,9.26-4.48,12.27-6.97,1.58-1.3,1.6-4.87,3.94-6.07l2.98,2.97c3.21-1.37,3.62-4.01,5.12-5.87,1.07-1.33,2.61-1.55,3.63-3.37,1.01-1.79,2.45-10.57,3.27-10.74,6.02,2.45,3.66,9.89,6.46,14.52,2.86,4.74,9.26,6.04,10.53,7.47,1.43,1.6.96,5.97,1.72,6.84.33.38,1.93,0,2.42.45,5.6,5.15,6.6,9.58,15.77,4.64,1.11,3.75,6.53,5.29,9.92,4.76.87-.14,1.9-1.37,3.23-1.63,5.28-1.03,2.28,2.24,5.11,3.77,3.31,1.8,9.13.58,12.62,1.37,1.82.41,3.13,2.33,4.35,2.54,3.33.58,13.16-3.04,15.87-5.78h.96c1.17,3.28,14.29.86,17.83-.14,1.56-.44,2.31-2.5,3.77-3.23,5.22-2.64,11.38-5.75,17.31-3.64,3.03-7.2,5.14-4.11,11-5.05,7.95-1.28,6.98-4.06,12.11-7.89,2.74-2.04,8.74-5.77,11.51-7.49,1.45-.9,3.73-.2,5.04-.98,1.57-.94-.16-3.03.43-4.5,1.71-4.27,6.86-2.36,9.82-3.23.96-.28,13.59-8.14,14.17-8.83,1.19-1.41,1.38-5.97,4.04-6.96,2.76-1.03.15,3.81,2.97,2.98,2.26-3.87,2.12-5.88,7.52-4.99.38-1.47-.76-3.38-.6-4.54.53-3.87,18.11-10.18,19.42-15.97l-2.79-3.89,7.47-7.58c1.44-.03,4.44,13.7,2.5,15.97l2.81.14c1.01,1.08,1.92,9.53,2.69,10.87.68,1.19,3.61,1.61,4.75,4.25,1.16,2.68.36,8.01.9,8.62.24.27,2.62.38,3.95,1.53,2.92,2.53,8.29,13.46,11.44,16.58,1.21,1.2,3.36,1.33,5.04,2.96,3.41,3.32,6.11,11.86,11.91,16.09,1.63,1.19,3.63,1.57,5.52,2.05v3.43c6.7-2.13,6.16,3.07,9.07,4.93,1.26.81,3.33.49,4.54,1.46,1.38,1.11,1.1,3.55,1.55,3.93.56.47,12.35,2.62,13.86,3.65.64.43,2.88,5.82,4.55,7.49.99.99,2.85.8,3.22,1.24.73.87-.26,3.82,1.73,4.78,9.9-8.07,18.74,6.05,26.2,9.79,5.1,2.56,8.69,2.83,13.55,3.43,6.67.82,5.7,5.05,7.33,5.62.63.22,5.32-.81,6.87-.78,4.11.09,11.11,1.31,15.05,1.05,2.29-.15,3.66-2.1,4.98-2.1,1.73,0,5.1,3.92,8.58,1.55,1.47-1-.24-4.48,2.92-3.56l.51,3.02c7.78-3.15,8.09,3.72,15.39.37,2.33-1.07,4.53-4.06,6.59-4.41,3.18-.54.03,5.27,3,4.01,1.78-.76,8.77-7.63,9.5-9.51,1.32-3.38-7.82-.23-8.97-.93-.89-1.03-4.04-5.48-3.01-6.55,1.98-2.05,4.27,3.05,4.55,3.06.48.02,7.7-3.69,7.95-4.06,1.5-2.18,2.68-12.96-.5-14.51-2.03-.99-5.4.68-5-1.98,3.06-2.46,7.94-.95,8.99-6ZM1518,362.12l-.99,3.99c3.08,1.02,5.17-3.73,7.47-3.62.27.01,5.16,1.69,4.52,3.11-1.95,3.59-5.43,1.85-8.22,2.78-1.47.49-7.14,4.41-7.76,3.73.25-3.49.4-9.79,4.99-9.99ZM1508.03,223.08l-18.91,24.07-22.79,26.19c-.99,1.02-2.43-.26-5.12,3.39-1.61,2.18-3.63,6.82-5.9,9.51-14.36,17.02-29.88,32.46-30.39,31.57-1.61-2.82-18,11.74-18,11.74l18.84-19.84,5.21-5.49,2.59-1.11c3.15-1.35,5.81-3.64,7.61-6.55l5.46-8.83,8.33-8.77,11.7-12.32,5.25-3.52c1.92-1.29,3.56-2.94,4.83-4.87l.02-.03c.16-.25.31-.49.46-.74l2.32-2.05c1.31-1.16,2.54-2.4,3.68-3.72l24.79-28.61ZM630.01,380.63c2.1-3.77,7.43-2.9,7.99,1.48-1.11-.45-9.08,1.3-7.99-1.48ZM553,262.12c1.04,4.3-1.98,2.33-3.51,3.97-.95,1.02-.87,2.96-1.77,3.76-1.04.91-5.27,2.04-6.71,4.27-1.36-3.83,9.99-13.98,11.98-11.99ZM505.99,301.6c9.41-6.57,17.59-16.62,26.65-23.31,2.01-1.49,3.68-2.61,6.36-2.17l-2.16,5.82c-8.77.04-13.58,9.99-19.79,15.74-1.2,1.11-3.02,1.12-3.71,1.76-4.86,4.52-10.12,11.41-15.29,15.21-1.37,1.01-2.02,1.88-4.04,1.45l11.98-14.51ZM289.35,485c-1.33,1.58-6.23,5.23-6.8,6.16-2.03,3.28-.42,6.2-7.54,5.95.76-4.91,5.72-2.38,6-8.48l11.99-9.51c.77.8-2.88,4.97-3.65,5.88ZM1211.42,600.16l1.69-7.93,6.89-.11c.56,2.54-2.27,5.2.49,6.97l7.99-4.99,1.5,1.5c-6.19,4.69-10.9,9.95-18.57,4.56ZM1248.01,598.11c-1.7-1.45,10.05-8.99,10.99-7.99.83,6-6.12,8.77-10.99,7.99ZM1775.98,472.07c-4.88-.51-3.13,3.23-5,5.52-2.41,2.95-10.53,9.86-13.93,13.07-15.97,15.04-32.25,25.68-50.04,37.93-1.02.7-.88,2.98-2.6,4.43-.58.49-7.86,4.59-9.48,5.52-9.62,5.56-20.67,9.59-30.94,11.96-3.89.9-22.51,9.81-24.92,7.5l-.06-2.89c-5.18,2.29-10.38,3.61-16,1.99-.29-1.42.31-2.45.8-3.7,1.74-4.43,10.99-18.15,14.63-20.37,2.24-1.37,4.91-.28,6.58-2.45l-1.91-5.77c1.69-1.65,2.93-3.92,4.51-5.6,10.37-10.99,22.01-20.45,33.76-29.24,4.72-3.53,7.46-8.7,10.75-11.26,6.26-4.86,17.53-8.24,23.85-13.15,1.69-1.31,2.5-4.4,5.12-5.88,2.8-1.58,7.8-1.98,10.82-3.21,4.07-1.65,9.59-7.25,14.9-4.15.36.21,1.14,2.38,2.16,3.31,4.89,4.47,4.47,4.97,7.56,9.46.83,1.21,3.4,1.02,4.59,2.44,1.51,1.81-.31,5.27,5.19,3.35,1.79-.62,3.27-3.53,4.18-3.54.59,0,3.55,2.74,5.53,1.76l-.02,2.95Z"/>
  </g>
</svg>