<?xml version="1.0" encoding="UTF-8"?>
<svg id="Layer_2" data-name="Layer 2" xmlns="http://www.w3.org/2000/svg" xmlns:xlink="http://www.w3.org/1999/xlink" viewBox="0 0 404.01 571.39">
  <defs>
    <style>
      .cls-1 {
        fill: #fce49d;
      }

      .cls-2 {
        fill: #fdb840;
      }

      .cls-3 {
        fill: none;
      }

      .cls-4 {
        fill: #f280a2;
      }

      .cls-5 {
        clip-path: url(#clippath-1);
      }

      .cls-6 {
        fill: #504e4b;
      }

      .cls-7 {
        clip-path: url(#clippath);
      }
    </style>
    <clipPath id="clippath">
      <rect class="cls-3" width="404.01" height="571.39"/>
    </clipPath>
    <clipPath id="clippath-1">
      <rect class="cls-3" x="-85.11" y="3.19" width="570.84" height="567.41"/>
    </clipPath>
  </defs>
  <g id="Layer_1-2" data-name="Layer 1">
    <g class="cls-7">
      <g class="cls-5">
        <path class="cls-2" d="M-33.84,52.2h-.02s-4.89,19.53-4.89,19.53l80.51,5.96c.56-19.55.8-35.48.8-35.49l2.92-79.87-15.72,26.7L-6.74-13.22l-13.38-25.86c.97,4.24-8.15,68.96-13.72,91.28Z"/>
        <path class="cls-2" d="M100.52,57.95l-.19-2.32-3.24,19.87,81.28-.65c-1.11-19.53-2.23-35.43-2.23-35.44l-1.82-78.5-15.56,26.54-36.81.75-13.27-22.54c1.33,4.14-4.48,69.59-8.16,92.29Z"/>
        <path class="cls-4" d="M38.45,55.43h-.02s-3.58,19.81-3.58,19.81l73.54-.44c-.37-19.48-.86-35.34-.86-35.36l-.91-79.66-13.12,27.79-33.32.66-17.11-27.04c1.07,4.14-.56,71.6-4.63,94.24Z"/>
        <path class="cls-1" d="M173.95,43.05l-2.07,12.64-3.6,19.81,71.48-.28c-.75-19.55-1.57-35.46-1.57-35.48l-2.41-79.91-14.01,27.64-36.82.08-12.98-25.11c1.26,4.17,6.08,57.97,1.98,80.6Z"/>
        <path class="cls-2" d="M35.57,132.56l-.19-2.32-3.24,19.87,81.28-.65c-1.11-19.53-2.23-35.43-2.23-35.44l-1.82-78.5-15.56,26.54-36.81.75-17.07-26.57c1.33,4.14-.68,73.61-4.37,96.32Z"/>
        <path class="cls-6" d="M166.8,133.73l-.19-2.32-3.24,19.87,81.28-.65c-1.11-19.53-2.23-35.43-2.23-35.44l-1.82-78.5-15.56,26.54-36.81.75-13.27-22.54c1.33,4.14-4.48,69.59-8.16,92.29Z"/>
        <path class="cls-4" d="M-22.68,130.67h-.02s-3.58,19.81-3.58,19.81l73.92-.37c-.39-19.49-4.05-33.62-4.05-33.64l-1.86-80.95-13.43,27.41-34.31.64-15.21-26.89c1.08,4.14.63,70.33-1.47,93.98Z"/>
        <path class="cls-6" d="M165.87,130.59l-.19-2.32-3.24,19.87,81.28-.65c-1.11-19.53-2.23-35.43-2.23-35.44l-1.82-78.5-15.56,26.54-36.81.75-17.07-26.57c1.33,4.14-.68,73.61-4.37,96.32Z"/>
        <path class="cls-4" d="M108.27,117.54l-2.07,12.64-3.59,19.81,68.11-.83c-.56-19.51-1.21-35.4-1.22-35.42l-1.66-79.79-13.56,27.72-35.08.36-12.17-24.98c1.16,4.15,5.34,57.85,1.25,80.48Z"/>
        <path class="cls-2" d="M-36.79,202.49h-.02s-4.89,19.53-4.89,19.53l81.05,6.09c.53-19.55.75-35.49.75-35.5l2.82-79.9-15.78,26.68-36.75-2.3-13.51-25.89c.98,4.24-8.1,68.97-13.67,91.29Z"/>
        <path class="cls-2" d="M97.51,208.24l-.19-2.32-3.24,19.87,81.28-.65c-1.11-19.53-2.23-35.43-2.23-35.44l-1.82-78.5-15.56,26.54-36.81.75-13.27-22.54c1.33,4.14-4.48,69.59-8.16,92.29Z"/>
        <path class="cls-4" d="M31.93,205.14h-.02s-3.6,19.81-3.6,19.81l81.28.84c-.75-19.55-1.57-35.46-1.57-35.48l-2.41-79.91-14.01,27.64-36.82.08-12.98-25.11c1.26,4.17-5.77,69.49-9.87,92.12Z"/>
        <path class="cls-1" d="M170.94,193.34l-2.07,12.64-3.6,19.81,71.48-.28c-.75-19.55-1.57-35.46-1.57-35.48l-2.41-79.91-14.01,27.64-36.82.08-12.98-25.11c1.26,4.17,6.08,57.97,1.98,80.6Z"/>
        <path class="cls-2" d="M31.52,287.85l-.19-2.32-3.24,19.87,81.28-.65c-1.11-19.53.21-36.36.21-36.38l-1.57-78.07-18.25,27.04-36.81.75-13.27-22.54c1.33,4.14-4.48,69.59-8.16,92.29Z"/>
        <path class="cls-6" d="M158.61,288.41l-.22-2.33-3.25,19.87,85.46-.03c-1.32-19.56-2.61-35.48-2.61-35.5l-2.51-78.6-16.16,26.45-38.7.48-14.13-22.67c1.43,4.16-4.18,69.63-7.88,92.33Z"/>
        <path class="cls-4" d="M-26.28,285.59h0l-3.6,19.81H43.6c-.75-19.55-1.57-35.46-1.57-35.48l-2.41-79.91-14.01,27.64-36.82.08-12.98-25.11c1.26,4.17,2.01,70.34-2.1,92.97Z"/>
        <path class="cls-4" d="M107.67,268.12l-2.07,12.64-3.6,19.81,71.48-.28c-.75-19.55-1.57-35.46-1.57-35.48l-1.03-79.88-15.38,27.62-36.82.08-10.72-24.6c1.26,4.17,0,56.96-.28,80.09Z"/>
        <path class="cls-2" d="M-38.9,356.49h-.02s-4.89,19.53-4.89,19.53l81.06,6.09c.53-19.55.75-35.49.75-35.5l5.86-79.46-18.83,26.24-36.75-2.3-13.51-25.89c.98,4.24-8.1,68.97-13.67,91.29Z"/>
        <path class="cls-2" d="M99.42,363.67l-.27-2.34-3.28,19.87,94.06,1.22c-1.74-19.62-3.4-35.6-3.41-35.62l-16.19-82.14-11.12,29.59-36.61-.08-15.89-22.93c1.64,4.19-3.56,69.72-7.29,92.42Z"/>
        <path class="cls-4" d="M33.92,360.47h-.02s-3.59,19.81-3.59,19.81l77.28.18c-.55-19.51-1.2-35.4-1.2-35.42l1.56-78.65-16.74,26.58-35.01.38-14.23-25.36c1.16,4.15-3.96,69.84-8.05,92.47Z"/>
        <path class="cls-1" d="M174.81,349.79l-2.07,12.64-3.6,19.81,71.48-.28c-.75-19.55-1.57-35.46-1.57-35.48l-2.41-79.91-14.01,27.64-36.82.08-12.98-25.11c1.26,4.17,6.08,57.97,1.98,80.6Z"/>
        <path class="cls-2" d="M25.54,435.34h-.02s-4.89,19.53-4.89,19.53l80.51,5.96c.56-19.55.8-35.48.8-35.49l2.92-79.87-15.72,26.7-36.5-2.24-13.38-25.86c.97,4.24-8.15,68.96-13.72,91.28Z"/>
        <path class="cls-6" d="M159.9,441.1l-.19-2.32-3.24,19.87,81.28-.65c-1.11-19.53-2.23-35.43-2.23-35.44l-1.82-78.5-15.56,26.54-36.81.75-13.27-22.54c1.33,4.14-4.48,69.59-8.16,92.29Z"/>
        <path class="cls-4" d="M95.01,438.39h-.02s-3.59,19.81-3.59,19.81l77.48.22c-.56-19.51-1.22-35.4-1.22-35.42l1.22-83.15-16.46,31.08-35.1.36-12.18-24.98c1.16,4.15-6.04,69.45-10.13,92.08Z"/>
        <path class="cls-4" d="M-32.5,437.71h-.02s-3.6,19.81-3.6,19.81l74.32,1.12c-.75-19.55-1.57-35.46-1.57-35.48l3.04-81.72-12.49,29.18-36.82.08-12.98-25.11c1.26,4.17-5.77,69.49-9.87,92.12Z"/>
        <path class="cls-2" d="M-39.35,509.96h-.02s-4.89,19.53-4.89,19.53l81.05,6.09c.53-19.55.75-35.49.75-35.5l2.82-79.9-15.78,26.68-36.75-2.3-13.51-25.89c.98,4.24-8.1,68.97-13.67,91.29Z"/>
        <path class="cls-2" d="M94.96,517.69l-.19-2.32-3.24,19.87,81.28-.65c-1.11-19.53-2.23-35.43-2.23-35.44l-4.8-85.79-12.59,33.83-36.81.75-17.07-26.57c1.33,4.14-.68,73.61-4.37,96.32Z"/>
        <path class="cls-4" d="M33.85,513.81h-.02s-3.58,19.81-3.58,19.81l73.92-.37c-.39-19.49-4.05-33.62-4.05-33.64l-1.86-80.95-13.43,27.41-34.31.64-15.21-26.89c1.08,4.14.63,70.33-1.47,93.98Z"/>
        <path class="cls-1" d="M167.01,511.84h-.02s-3.58,19.81-3.58,19.81l73.92-.37c-.39-19.49-4.05-33.62-4.05-33.64l-1.86-80.95-13.43,27.41-34.31.64-15.21-26.89c1.08,4.14.63,70.33-1.47,93.98Z"/>
        <path class="cls-1" d="M169.1,500.92l-2.07,12.64-3.62,19.81,74.76.27c-.93-19.58-1.91-35.52-1.91-35.53l-3.13-80.03-14.44,27.57-38.51-.2-13.77-25.24c1.35,4.18,6.81,58.09,2.69,80.72Z"/>
        <path class="cls-2" d="M23.88,587.29h-.02s-4.15,19.7-4.15,19.7l81.23,3.07c-.21-19.56-.59-35.49-.59-35.51l-.19-79.95-14.77,27.25-36.81-.93-14.47-25.37c1.14,4.2-5.5,69.23-10.23,91.74Z"/>
        <path class="cls-6" d="M156.9,591.38l-.19-2.32-3.24,19.87,81.28-.65c-1.11-19.53-2.23-35.43-2.23-35.44l-1.82-78.5-15.56,26.54-36.81.75-13.27-22.54c1.33,4.14-4.48,69.59-8.16,92.29Z"/>
        <path class="cls-4" d="M99.08,575.67l-5.01,13.37-6.38,19.04,81.28.84c-.75-19.55-1.57-35.46-1.57-35.48l1.35-82.7-17.76,30.43-36.82.08-14.5-28.05c1.26,4.17-.84,50.2-.59,82.46Z"/>
        <path class="cls-4" d="M-33.27,590.31h-.02s-2.42,19.99-2.42,19.99l74.25-3.23c-1.91-19.47-3.67-35.31-3.67-35.32l-.2-80.32-12.34,28.42-36.75,2.23-14.44-24.31c1.5,4.09-1.64,69.71-4.4,92.54Z"/>
        <path class="cls-2" d="M222.17,48.28h-.02s-4.47,19.63-4.47,19.63l80.62,4.26c.14-19.55.04-35.48.04-35.5l1.22-79.92-15.15,27.02-36.54-1.47-13.93-25.58c1.06,4.22-6.68,69.12-11.78,91.55Z"/>
        <path class="cls-2" d="M356.62,51.21l-.24-2.32-2.81,19.94,81.25-2.36c-1.53-19.5-2.98-35.37-2.98-35.39l-3.49-78.44-14.99,26.86-36.79,1.53-13.75-22.26c1.42,4.12-2.99,69.67-6.19,92.44Z"/>
        <path class="cls-4" d="M294.51,49.99h-.02s-3.15,19.89-3.15,19.89l73.52-1.98c-.78-19.47-1.61-35.32-1.61-35.33l-2.6-79.63-12.52,28.06-33.3,1.36-18.22-28.22c1.16,4.11,1.5,73.15-2.09,95.86Z"/>
        <path class="cls-4" d="M164.18,51.87h-.02s-3.18,19.88-3.18,19.88l74.32-.44c-1.17-19.53-2.32-35.42-2.32-35.44l2.85-80.27-13.41,27.93-36.81.85-13.51-24.83c1.34,4.14-4.29,69.6-7.91,92.31Z"/>
        <path class="cls-2" d="M167.83,129.02l4.63,25.53-18.09-10.67,81.17,4.38c.11-19.56,0-35.5,0-35.51l1.11-79.94-15.21,27.01-36.79-1.52-17.92-26.14c1.07,4.22.84,73.8,1.1,96.87Z"/>
        <path class="cls-2" d="M293.27,127.17l-.24-2.32-2.81,19.94,81.25-2.36c-1.53-19.5-8.48-35.72-8.48-35.73l2.01-78.1-14.99,26.86-36.79,1.53-17.63-26.2c1.42,4.12.88,73.61-2.32,96.39Z"/>
        <path class="cls-4" d="M235,126.5h-.02s-3.16,19.89-3.16,19.89l73.9-1.93c-.8-19.47-4.76-33.53-4.76-33.55l-3.58-80.89-12.85,27.69-34.29,1.36-15.78-26.57c1.17,4.12,2.13,70.3.54,93.99Z"/>
        <path class="cls-4" d="M363.27,112.11l.57,11.19-3.17,19.88,68.08-2.27c-.98-19.5-1.97-35.37-1.97-35.39l3.83-79.68-13.82,27.74-41.41,1.3-12.7-24.71c1.25,4.13-4.53,70.21.59,81.93Z"/>
        <path class="cls-2" d="M222.41,198.6h-.02s-4.47,19.63-4.47,19.63l81.17,4.38c.11-19.56,3.96-37.69,3.96-37.71l-2.86-77.75-15.21,27.01-36.79-1.52-14.06-25.6c1.07,4.22-6.63,69.13-11.72,91.56Z"/>
        <path class="cls-2" d="M356.82,201.52l-.24-2.32-2.81,19.94,81.25-2.36c-1.53-19.5-2.98-35.37-2.98-35.39l-3.49-78.44-14.99,26.86-36.79,1.53-13.75-22.26c1.42,4.12-2.99,69.67-6.19,92.44Z"/>
        <path class="cls-4" d="M301.37,199.54l-10.21.26-3.18,19.88,81.28-.87c-1.17-19.53-2.32-35.42-2.32-35.44l-4.11-79.84-13.41,27.93-36.81.85-13.51-24.83c1.34,4.14,2.28,69.19,2.28,92.06Z"/>
        <path class="cls-4" d="M171.48,206.82l5.19,3.39-15.49,11.86,74.32-.44c-1.17-19.53-2.32-35.42-2.32-35.44l2.85-80.27-13.41,27.93-36.81.85-16.3-20.97c1.34,4.14.73,67.88,1.97,93.08Z"/>
        <path class="cls-2" d="M171.39,285.52l2.09,3.51-.68,8.63,66.75,6.19c.11-19.56-.73-36.42-.73-36.44l-2.9-79.27-15.21,27.01-36.79-1.52-14.06-25.6c1.07,4.22-.98,73.02,1.53,97.49Z"/>
        <path class="cls-2" d="M293.27,282.51l-.24-2.32-2.81,19.94,81.25-2.36c-1.53-19.5-.57-36.36-.57-36.37l-3.91-79.9-13.23,29.15-40.55,1.68-13.93-27.81c1.42,4.12-2.81,75.22-6.01,97.99Z"/>
        <path class="cls-4" d="M234.7,281.46h0l-3.18,19.88,73.46-1.55c-1.17-19.53-2.32-35.42-2.32-35.44l-4.11-79.84-13.41,27.93-36.81.85-13.51-24.83c1.34,4.14,3.51,70.28-.12,92.99Z"/>
        <path class="cls-4" d="M368.24,261.18l-1.8,12.68-3.18,19.88,71.46-1.78c-1.17-19.53-2.32-35.42-2.32-35.44l-1.63-79.8-15.9,27.89-36.81.85-11.28-25.13c1.34,4.14.6,57.58,1.46,80.84Z"/>
        <path class="cls-2" d="M223.59,352.61h-.02s-4.47,19.63-4.47,19.63l81.17,4.38c.11-19.56,0-35.5,0-35.51l2.77-79.71-16.87,26.78-36.79-1.52-14.06-25.6c1.07,4.22-6.63,69.13-11.72,91.56Z"/>
        <path class="cls-2" d="M362.03,356.88l-.32-2.33-2.86,19.93,94.06-.76c-2.16-19.58-4.16-35.52-4.16-35.54l-13.48-84.06-8.97,31.98-42.58.8-15.69-29.99c1.73,4.15-2.76,77.19-6.01,99.96Z"/>
        <path class="cls-6" d="M300.2,366.21l-3.75-11.16-3.17,19.88,77.27-1.44c-.97-19.5-1.95-35.37-1.96-35.38l.65-79.73-16.94,28-35,1.11-15.95-26.32c1.25,4.13-1.75,81.28-1.17,105.04Z"/>
        <path class="cls-4" d="M167.86,353.49l7.2,5.02-3.18,19.88,63.26-.44c-1.17-19.53-2.32-35.42-2.32-35.44l2.85-80.27-13.41,27.93-36.81.85-13.51-24.83c1.34,4.14-4.08,63.9-4.08,87.29Z"/>
        <path class="cls-2" d="M289.7,430.08h-.02s-4.47,19.63-4.47,19.63l80.62,4.26c.14-19.55,4.74-35.89,4.74-35.91v-79.89l-18.62,27.4-36.54-1.47-15.59-26.25c1.06,4.22-5.02,69.79-10.11,92.22Z"/>
        <path class="cls-4" d="M367.48,431.66l-5.19.17-3.17,19.88,77.47-1.41c-.98-19.5-1.97-35.37-2.51-35.78l.64-79.19-16.45,27.84-35.09,1.1-14.53-25.23c1.25,4.13,2.43,69.91-1.18,92.62Z"/>
        <path class="cls-4" d="M227.71,433.68h-.02s-3.18,19.88-3.18,19.88l74.32-.44c-1.17-19.53-2.32-35.42-2.32-35.44l3.31-79.82-13.87,27.48-36.81.85-17.47-26.36c1.34,4.14-.33,71.13-3.95,93.84Z"/>
        <path class="cls-2" d="M226.41,506.05h-.02s-4.47,19.63-4.47,19.63l81.17,4.38c.11-19.56,0-35.5,0-35.51l-5.06-82.73-10.94,29.72-34.88-1.45-14.06-25.6c1.07,4.22-6.63,69.13-11.72,91.56Z"/>
        <path class="cls-2" d="M360.81,508.97l-.24-2.32-2.81,19.94,81.25-2.36c-1.53-19.5-2.98-35.37-2.98-35.39l-3.49-78.44-14.99,26.86-36.79,1.53-17.63-26.2c1.42,4.12.88,73.61-2.32,96.39Z"/>
        <path class="cls-4" d="M302.53,508.31h-.02s-3.16,19.89-3.16,19.89l73.9-1.93c-.8-19.47-4.76-33.53-4.76-33.55l1.46-80.12-17.89,26.92h-38.65s-15.24-25.04-15.24-25.04c1.17,4.12,1.19,57.91,4.36,93.83Z"/>
        <path class="cls-2" d="M289.95,580.41h-.02s-4.47,19.63-4.47,19.63l81.17,4.38c.11-19.56,0-35.5,0-35.51l1.11-79.94-15.21,27.01-36.79-1.52-14.06-25.6c1.07,4.22-6.63,69.13-11.72,91.56Z"/>
        <path class="cls-4" d="M358.72,581.61h-.02s-3.18,19.88-3.18,19.88l81.28-.87c-1.17-19.53-2.32-35.42-2.32-35.44l-1.03-80.42-16.49,28.51-36.81.85-13.51-24.83c1.34,4.14-4.29,69.6-7.91,92.31Z"/>
        <path class="cls-4" d="M231.92,584h-.02s-3.18,19.88-3.18,19.88l74.32-.44c-1.17-19.53-2.32-35.42-2.32-35.44l2.85-80.27-13.41,27.93-36.81.85-14.5-29.52c1.34,4.14-3.3,74.29-6.92,97Z"/>
        <path class="cls-2" d="M161.63,431.92l-1.83,8.98-1.22,8.63,81.25-2.36c-1.53-19.5-2.98-35.37-2.98-35.39l.49-78.44-15.42,26.71-40.34,1.68-13.75-22.26c1.42,4.12-2.99,69.67-6.19,92.44Z"/>
        <path class="cls-4" d="M167.72,495.28l-.5,11.08.67,20.88,70.28.96c-1.82-19.62,1.66-36.49,1.65-36.51l-1.31-81.3-16.58,27.63h-42.83s-15.05-26.18-15.05-26.18c1.66,4.19,2.67,55.19,3.66,83.45Z"/>
        <path class="cls-2" d="M165.21,585.02l1.66-1.77-2.81,19.94,81.25-2.36c-1.53-19.5-2.98-35.37-2.98-35.39l-3.49-78.44-14.99,26.86-36.79,1.53-20.71-24.91c1.42,4.12,2.06,71.77-1.14,94.54Z"/>
      </g>
    </g>
  </g>
</svg>