<?xml version="1.0" encoding="UTF-8"?>
<svg id="Layer_2" data-name="Layer 2" xmlns="http://www.w3.org/2000/svg" viewBox="0 0 1352.15 948.04">
  <g id="Layer_1-2" data-name="Layer 1">
    <path d="M1349.71,762.82c-1.05-2.63-5.17-4.4-5.49-7.4-.28-2.58,2.54-5.38,2.62-7.81.12-4.11-1.75-10.89-1.89-15.11-.16-4.53.6-13.48,1.04-17.9.16-1.66,2.24-2.85,2.06-4.99-.22-2.58-4.77-3.68-2.86-9.85.45-1.44,2.78-2.83,2.78-3.2,0-.65-3.8-2.6-4-5.01-.44-5.4.94-13.34,1.05-18.93.14-6.64-1.36-12.7.1-19.42l2.78-.67c2.95-2.01-1.14-3.1-1.73-5.16-.68-2.34.22-5.06-.43-7.57-.43-1.64-2.32-2.73-2.73-5.29-.83-5.21,1.84-12.48.91-18.89-.81-5.57-5.18-15.71-5.78-20.3-.48-3.65,2.45-8.64,1.68-11.53-.5-1.88-3.65-2.73-3.9-5.26-.22-2.27,3.41-9.28,3.05-12.95-.22-2.22-2.76-3.08-2.93-4.14-.2-1.24,1.91-2.4,1.93-3.87.02-1.24-1.93-2.7-2.1-4.98-.23-3.02,1.82-6.12,1.9-9.01.37-12.82-.2-25.61-1.73-38.09-.74-6.05.9-25.35,1.97-31.87.39-2.39,2.74-4.81,2.85-8.15.21-6.64-5.33-8.18-4.96-15.92.33-6.97,2.48-9.51,7.94-13.11.35-1.87-3.14-4.76-3.66-7.08-4.57-20.35,7.23-42.79,1.58-60.58-.48-1.52-2.38-2.09-2.78-4.22-.4-2.12.46-4.63-.2-6.79-.42-1.37-2.37-2.18-2.59-3.31-.33-1.71,1.08-12.48.71-13.79-.36-1.29-2.76-1.25-3-2.26-.89-3.84,7.35-7.76,4.87-15.64-.39-1.25-1.92-1.9-2.27-2.74-.89-2.13-.98-14.74-.59-17.52.34-2.41,2.15-3.9,2.16-5.94.01-4.1-6.58-11.36-7.08-15.08-.4-2.94.95-5.25.72-7.66-.98-10.65-5.14-23.94-5.82-34.27-.43-6.42,1.66-8.55-1.71-16.2-.39-.89-3.37-5.26-3.72-5.26l-4.5,3.98,1.13-5.85,4.87-.14-.02-2.97c-2.27.46-9.6-3.99-9.95-5.64l5.02-6.91-6.9-8.13c-.56-2.77,5.22-5.34,3.69-8.63-2.97-6.36-9.81-2.37-13.85-8.23-1.51-3.69,7.3,1,7.98.52,3.86-6.32-1.58-10.7-2-14.59-.35-3.28,2.15-5.32,2.06-8.87-.07-2.87-3.21-7.99-2.98-8.95.36-1.53,4.4-1.92,3.92-4.08-.63-2.89-5.1-.23-6.41-.55-3.65-.87,1.87-6.55,2.84-9.04.83-2.14.19-4.83,1.47-6.52,1.13-1.48,2.69-1.53,4.09-1.3-.83-3.33-1.18-6.73-1.03-10.15-4.1-.91-6.65-5.84-9.94-8.47-1.18-2.81,5.31-.89,5.99-1.49-2.47-7.42-3.59-15.16-7.01-22.48l4.96-.51c-1.19-2.4-2.54-4.73-4.02-6.98-1.11-.74-2.21-1.49-2.95-2.49-.99-1.35-2.21-3.5-3.51-5.83-4.69-4.88-10.8-7.95-16.61-11.47.58,2.91-2.48,5.96-4.73,4.64-.3-.17-3.49-5.61-3.6-5.94-.46-1.35.51-2.73,0-3.91-1.09-2.53-6.21-3.28-6.55-6.56-.05-.46-.05-.87-.01-1.26-2.97-3.59-5.75-7.37-8.46-11.18-.57-.36-1.1-.76-1.61-1.19-1.88.4-4,0-5.94.6-1.96.61-3.24,3.05-4.65,3.43-2.8.75-4.52-2.52-5.96-2.72-1.27-.17-2.23,1.91-4.56,1.72-.61-.05-11.23-3.07-11.78-3.34-1.96-.97-1.92-4.5-3.38-5.62-1.59-1.21-3.83-.62-5.56-1.44-1.89-.89-6.33-5.49-8.76-6.24-.91-.29-8.94-1.27-9.57-1.1l-3.67,4.41c-3.3,2.06-3.25-1.58-4.29-2.26-.5-.33-9.15-4.43-10.49-5.02-6.82-3-8.62.44-13.68-.29-3.22-.47-4.24-3.57-7.65-.55-2.05,1.81-2.32,6.65-5.42,6.62-1.6-.02-5.66-4.78-7.95-6.09-.85-.49-8.4-3.82-8.89-3.78-2.55.21-9.84,10.68-11.54,3.13-.29-1.31,1.12-3.08.87-3.28-4.4-1.19-7.7,1.56-11.46,2.02-7.66.93-17.33-4.45-23.16,1.91-5.12-4.78-5.13-1.17-8.81-1.05-7.39.24-15.97-2.28-23.92-1.84-4,.22-10.13,4.11-14.21,1.03-4.75-3.58.21-4.42-9.62-2.77-4.59.77-11.22,1.67-16.28.67-2.32-.45-3.11-2.93-4.99-2.98-1.59-.05-14.46,6.11-17.03,6.1-2.49,0-12.39-4.16-14.97-4.2-2.42-.04-4.09,1.95-6.06,2.07-3.71.23-11.06-1.13-14.87-.9-3.23.19-8.35,2.96-11.13,2.82-2-.1-4.37-2.99-6.99-2.83-1.65.1-3.56,2.86-5.33,1.77-.33-.2-.41-1.86-1.1-2.32-2.4-1.58-5.19.17-7.65.37-3.35.28-3.14.3-6.15.89-6.46,1.27-6.84-6.54-10.72-5.79l-3.51,5.6-6-1.59v3.01c-4.51-5.25-11.27-.97-17.49-.93-6.73.05-15.02-2.22-21.78-.92-2.11.4-6.21,5.36-7.73,3.84-2.08-2.07,3.08-3.02,1.99-4.99-4.13.97-5.37-1.48-8.48-3.02-2.99,7.6-10.38,4.43-16.93,5.09-2.67.27-4.85,1.93-8.08,2.01-5.75.14-14.63-4.22-16.91-4.1-2.71.14-7.68,3.8-11.16,3.95-3.51.15-9.32-1.84-12.98-1.97-14.88-.55-33.15,2.19-48.89,3.09-1.79.1-3.16,1.73-5,1.82-6.12.28-10.7-4.65-13-4.76-3.37-.15-9.28,1.87-13.03,1.95-3.66.07-8.3-1.49-10.97-1.07-2.8.44-3.66,3.96-6.03,4.01-1.57.04-5.81-3.22-9.28-3.72-5.04-.73-8.69,1.11-13.24-.26.26,1.67.23,6.59-2.48,5.98-3.72-3.77-7.01-6.3-12.59-4.53-2.41.76-3.31,3.66-5.94,3.54v-4c-2.17-.49-4.57,1.21-6.47,1-1.52-.17-2.62-1.9-4.04-1.97-3.99-.2-14.57,11.51-14.51-1.03-7.15,3.09-13.3,5.62-18.49-1.98-3.5,4.94-10.41,2.25-15.87,3.91-3.02-1.04-.2-3.91-.64-4.93l-5.45-1.04c-1.79,7.1-7.35,4.41-12.96,5.11-2.44.31-4.52,1.92-7.06,1.94-6.22.04-15.51-3.35-21.46.54-2.12,1.39-5.38,8.34-4.06-1.55-3.34.2-9.48-.09-10.01-3.99l-1.47-.02-3.21,3.9c-2.16.59-3.66-1.83-5.64-1.68-1.91.15-4,2.82-7.15,2.83-2.6.02-5.12-1.83-8.01-2.05-8.01-.61-18.87-.35-27,.02-2.77.13-5.55,1.81-8.01,1.81-2.95,0-7.95-3.2-10.54-1.38-1.46,1.03-1.42,7.01-5.82,5.39l-2.59-2.87c-3.59,1.91-10.03,4.44-14.04,4.05-2.07-.2-2.79-2.64-5.05-3.04-3.77-.66-5.7,2.37-9.94,2.09-3-.2-4.69-2.1-7.3-2.78-4.22-1.11-6.43-.27-9.55-.59-.98-.1-2.08-1.71-4.14-1.78-5.21-.18-4.85,5.84-11.76,2.81-8.08-3.55-4.36-1.22-11.28-1.63-2.1-.12-3.28-1.68-5.09-2-7.91-1.38-9.66-1.18-17.09,1.7-3.12,1.21-8.28,3.54-9.84,6.15l-1.94.09-6.16-7.98c-5.58.94-10.39.1-14.84,3.94l-13.11-6.03c-4.26,1.29-7.11,4.55-11.92,5.09-4.4.5-10.6.05-13-4.04-2.75,4.64-5.85,3.2-9.55,4.43-1.79.59-4.16,3.53-4.45,3.53-.45,0-2.38-4.09-7.98-2.97-2.28.45-2.99,2.77-5.07,3.04-2.28.3-4.49-1.49-6.72-.9-1.73.46-7.58,5.87-9.2,5.87l-13.05-5-6.84,4.91-5.63-4.93c-.02,2.73-.78,4.43-3.59,4.99-4.58.91-3.46-2.48-4.98-2.86-.53-.13-9.64.73-10.89.93-7.66,1.22-3.11,2.34-12.14.93-.55-.09-8.81-.02-9.87.05-5.53.37-5.24,6.19-7.18,6.83-.91.3-7.24.89-8.98,1.04-10.46.88-19.48,1.57-30.3.67-6.29-.53-8.93,1.39-14.72,2.29-2.43.38-4.93.04-7.37.13l2.98,4.49c-.98,1.82-7.64,3.19-13.37,4.54-.7,1.96-1.69,3.72-2.91,5.3.11.03.21.06.3.11,4.59,2.62-6.46,6.56-6.98,10.11l-1.39.36-.93-.69c-.4.35-.79.69-.76.63-.86,1.97-2.4,2.7-3.97,2.6-.11.95-.49,1.83-1.42,2.59-.8.67-2.36.85-3.46,1.58-.69.46-.89,1.81-1.36,2.08-5.92,3.37-9.75-1.88-12.8-1.31-3.83.72-2.22,7.09-4.61,8.68-2.63,1.74-9.41-1.18-11.36,1.33-2.02,2.6.58,2.63.89,4.29.51,2.7-5.2,4.31-6.89,5.75-2.06,1.74-5.97,7.37-7.01,7.99-1.33.8-3.29.26-4.45,1.55-1.45,1.63-1.91,7.05-3.03,8.97-1.26,2.15-3.97,1.69-4.94,3.05-3.34,4.67-.69,6.25-.42,9.47.08.92-.02,11.18-.1,11.98-.15,1.5-1.89,2.59-1.96,4.03-.1,2.08,2.75,4.53,2.92,7.06.18,2.62-1.76,5.97-1.95,8.96-.7,11.23.51,23.33.44,34.37.41,0,.82.04,1.22.15,2.33.64,3.7,2.83,3.62,5.12.52-.7,1.09-.87,1.7-.15-.55,3.95,1.96,8.92,1.84,12.53-.22,6.26-1.23,12.43-.87,18.92.15,2.67.71,7.27,1.09,9.99.34,2.4,2.08,3.92,2.06,7.06-.03,5.13-5.14,7.75-5.15,9.99-.01,2.02,2.66,2.98,3.47,4.56,1.51,2.94.34,5.8,4.55,7.44-4.61,4.45-3.55,13.61-5.88,19.85,8.96,4.47,8.39,9.4,7.89,18.65-5.7-2.6-2.7-6.09-3-11-1.54.26-1.93,1.91-2.3,3.19-.71,2.41-1.77,16.75-1.62,19.39.11,1.84,2.07,2.52,2.67,4.18,2.22,6.08-1.65,12.64-.69,19.69.26,1.88,1.8,3.36,1.91,5.1.16,2.38-1.75,5.65-.96,8.45l4.03-.6c5,5.71-.74,10.15-1.01,14.16-.23,3.4,2.92,6.8,3.06,10.93.26,7.54-3.54,8.98-1.79,18.7,1.11,6.14.45,5.84.66,11.26.13,3.45,2.13,8.69,1.97,11.98-.04.82-2.49,10.27-2.95,10.58-.85.58-7.35-4.37-3.98,6.99,9.89-3.04,4.81,5.23,4.91,10.5.22,11.59-.29,23.54.05,35.04.19,6.57,2.33,12.96,2.07,20-.16,4.33-2.89,10.68-3,12.95-.14,2.79,3.42,4.4,3.94,7.03.99,5.05-2.26,9.92.06,14.99l-1.66,2.42c-3.15.88-7.48-4.99-4.36,5.08,11.44-3.95,5.47,6.27,5.01,12.51-.35,4.77,2,21.94-2.05,23.99-1.18.59-2.68.53-3.98.51-.27,4.17,3.92,5.58,2.01,9.99l3.99-1c1.98,5.61.06,10.39-.03,15.46-.12,6.58,1.45,25.06-1.63,29.33-1.41,1.95-2.87,1.23-4.3-.21.58,2.61,1.11,5.23,1.55,7.87,1.79-.45,3.83-1.08,4.95.53.39.55,2.31,10.94,2.44,12.55.8,9.37-1.02,18.72-.98,27.98.02,3.93,1.94,9.91,1.89,13.9-.08,6.71-3.78,18.07-2.63,24.97.22,1.3,2.25,2.66,2.67,5.19,1.15,6.87-.89,13.08,4.06,20l-3.9,4.05,2.89,14.39h-4.01c-.11,13.89,4.73,28.22-1.09,41.48-.46,5.06,3.67,12.01,4.11,16.14.33,3.08-2.11,4.64-1.92,5.76.22,1.28,3.16,2.49,3.7,4.34.36,1.24.51,7.7.09,8.18l-4.3,1.02-.58,3.09c6.76-2.29,7.72,5.22,8,10.5.11,2.16-1.58,4.12-.83,6.76.36,1.28,14.17,21.06,15.3,21.76,2.14,1.34,5.04.95,6.64,3.44,1.27,1.97-.29,3.41.28,5.54,1.14,4.26,4.48,3.19,6.53,4.56,1.3.87,8.85,6.36,9.15,6.85,1.75,2.92.43,7.26,2.89,10.11,1.71,1.11,5.06.03,7.33.67,4.53,1.27,13.88,10.9,18.46,11.62,3.44.54,9.07-1.71,13.72-.81,2.33.45,3.32,2.77,5.47,3.53,3.25,1.14,8.13.97,11.86,2.14,5.54,1.74,13.06,5.67,18.96,7.04,3.91.9,8.79-1.22,11.27,2.73.33.53.57,1.05.76,1.55,2.21-.89,4.59-1.33,6.9-.84-.36-.6-.67-1.12-.61-1.53.51-3.52,4.56-2.8,6.33.44.72,1.32.35,3.37,1.57,4.43,2.07,1.81,10.58,2.89,13.46,2.44,10.35-1.62,6.37-.3,15.12.99,4.11.61,9.03-.54,12.99,0,2.54.35,3.76,1.85,6.88,2.13,3.92.35,6.62-.48,10.09-2.06l6.97,6.03c2.25.35,1.67-2.68,3.48-3.56,1.59-.77,3.35-.5,5.02-.49l1.49,5.98c2.62-2.73,6.29-1.39,9.47-2.51,5.77-2.03,17.52-10.14,22.76-11.28,3.34-.73,5.49,1.03,7.73.8,4.79-.48,8.5-1.84,15.03-1.99,1.62-.04,3.72-1.24,4.86-1.08,1.12.16,1.05,4.47,5.07,4.1,6.08-.56,3.86-6.25,5.54-7.56,1.27-.99,14.31-3.41,16.58-3.49,5.73-.2,10.19,4.68,15,4.99,5.87.38,13.05-4.3,18.71-2.72,1.52.42,2.7,2.3,4.36,2.5,2.18.27,5.92-1.91,8.91-1.84,3.08.07,4.26,1.77,6.91,2.15,3.9.55,19.98-.69,24.94-1.08,3.93-.31,7.22-4,10.1-4.05,3.2-.05,4.71,2.74,7.98,3.14,3.75.45,7.28-1.03,10.99-1.1,5.28-.1,12.92,1.29,17,1.02,2.19-.15,3.77-2.17,7.02-2.05,3.52.14,5.4,3.37,7.98,3.13,2.17-.2,2.99-3,5.02-3.05,2.26-.06,3.97,2.81,6.09,3.01,2.33.22,4-1.91,6.79-1.95,3.92-.05,7.64,3.02,8.09,3.02,3.81,0,13.35-5.29,19.14-6.01,6.43-.79,13.39,3.05,17.72,1.72,2.51-.77,5.98-6.02,7.79-7.22,2.68-1.78,10.75-4.18,13.02-1.18l2.4,6.58c2.55-2.89,7.29-5.96,11.22-5.72,1.73.11,2.73,1.97,4.71,1.78,1.62-.15,2.74-2.26,4.99-2.08,1.68.13,3.53,2.3,5.52,2.62,1.72.28,3.2-.73,4.52-.57,1.61.2,2.8,2.06,3.91,1.89.94-.14,2.84-3.19,5.11-4.02,2.54-.93,4.64.51,6.96.13,2.07-.34,10.56-4.53,14.13-5.03,2.57-.36,16.91,2.44,18.42,1,.9-2.38-3.52-6.03-1.03-7.53,2.94-1.77,11.21-.34,14.49-.42,11.52-.28,30.08-1.51,40.96.05,4.51.65,6.6,4.5,11.58,1.9-.97,9.1,9.76,4.34,16.49,5.02,8.09.81,5.25,2.43,14.09.98,6.62-1.09,18.12,3.23,21.97,2.6,1.1-.18,1.84-2.17,3.96-2.58,1.76-.35,6.12-.26,8.01-.03,4.54.55,5.73,4.04,8.93,4.09,4.3.06,7.92-3.94,10.12-4.11,2.23-.17,3.37,1.93,5,2.09,2.12.21,3.21-1.86,4.86-1.95,1.21-.07,2.93,1.12,4.04.91,3.53-.68-2.6-3.93,1.01-5.98,6.34.85,3.71,8.72,10,9.06,2.66.14,4.53-1.42,6.37-1.55,2.09-.15,4.11.71,6.54.41,3.33-.41,6.72-2.88,10.14-2.99,3.17-.1,7.1,2.28,9.52,1.62,2.2-.6,5.96-5.25,8.97-6.1-1.26-2.72-3.5-5.18-1.07-8.05,6.95-2.51,11.51,11.05,17.65,11.57,2.19.19,4-1.02,5.93-1.01,4.93,0,9.95,3.03,17.03,2.07,2.81-.38,8.23-3.94,9.79-3.85,4.09.26,13.76,6.76,17.67,4.31,1.68-1.05,1.54-4.93,5.49-4.59,3.61.31,1.57,5.05,4.14,5.95,3.94-.81,9.55,1.27,12.82,1.08,3.73-.22,6.16-4.16,8.26-4.75,3.64-1.03,16.21.34,17.3-5.7.43-2.39-.61-5.58.16-7.84.76-2.26,7.63-5.94,7.92-1.14.18,3.05-4.23,4.91,1.95,9.01,2.34,1.49,5.33-1.73,7.33-1.34,1.49.29,3.42,3.72,5.26,4.68,7.52,3.9,9.4-2.14,13.8-1.86,3.28.21,5.06,4.02,7.06,4.01l12.01-5.71,9.03,4.69c2.28.03,3.35-3.43,5.09-3.77,2.87-.55,8.92,2.55,11.07,2.56,1.42,0,2.34-1.64,3.76-1.71,1.44-.07,3.12,1.18,5.01.95,2.87-.34,6.99-6.52,8.33-7,5.13-1.83,12.43-.11,17.78-2.12.75.96,3.85,2.11,4.11,2.35.66.62.35,2.35,1.32,3.2,1.4,1.24,13.2,5.4,14,4.53v-4.02s4.33-.03,4.33-.03l1.57,3.43,2.61.63c.4-4.61,7.07-5.29,11.1-5.91,5.39-.83,5.19-.13,10.21-1.99,7.6-2.8,15.72-1.08,21.5-3.3,1.79-.69,1.89-3.33,3.32-3.73,1.33-.37,3.2,1.02,4.82.9,1.95-.15,4.31-2.9,7.16-2.97,2.57-.07,5.22,2.88,8.75,2.67,4.25-.25,9.47-4.39,13.58-5.24,5.3-1.09,11.73-.5,17.32-1.69,2.46-.52,4.63-2.58,6.3-2.74,2.95-.3,6.75,2.75,9.13,2.77,1.63.01,8.23-2.73,11.83-2.59,3.17.12,7.02,2.24,10.36,2.28,2.07.03,9.75-2.72,10.69-4.44,1.44-2.65-3.54-3.87-3.52-6.41.12-.56,8.34-6.87,8.99-7.13,1.42-.55,10.24.18,13.26-.68,1.97-.56,3.03-3.46,4.74-4.26,1.71-.8,3.65-.32,5.53-1.47,1.75-1.07,2.51-4.26,4.48-5.52,2.58-1.66,6.36-.92,8.53-2.47.99-.71,4.07-7.58,4.22-8.8.52-4.2-2.91-12.63,4.23-15.81,3.08-1.37,3.19,1.57,5.97,1.53-.05-1.15-.11-2.09-.08-2.86-.97-1.47-1.76-3.14-2.41-4.87-.77-2.04.53-4.61,2.3-5.65,1.36-.79,2.76-1.48,4.2-2.1.09-.55.24-1.07.51-1.51.24-.4,6.85-5.6,7.5-5.55.49.04.85.13,1.14.27.03-.01.07-.03.1-.04,1.03-.35,2.04-.74,3.05-1.13.55-1.14,1.59-2.11,3.08-2.7,2.79-1.11,5.54-1.37,8.31-1.16,1.51-3.46,2.01-7.63,2.55-11.11.22-1.45.44-2.93.67-4.41.05-1.11.14-2.32-.14-3.44-.83-3.25-8.48-10.1,1.63-5.81.28-.07.51-.21.71-.4.29-.84.61-1.67.98-2.48.6-4.62-1.54-13.28-2.34-15.29ZM223.17,172.72c5.02-3.79,6.1.29,9.29.29,2.08,0,4.62-2.18,9.02-2,6.4.26,6.96,3.55,11.97,5.11l1.02-2.09,3.97,2.04,1.56-2.51c0-1.06-3.43-3.93-.52-4.49,3.46-.67,2.98,2.87,4.16,3.07,1.51.26,3.34-.88,4.94-.99,1.33-.09,2.92.93,3.8.74,1.14-.25,2.16-3.13,3.62-4.3,1.46-1.17,8.17-5.6,9.42-5.59,1.57.01,9.18.08,9.82.2,1.91.36,3.22,2.67,5.17,2.76,3.28.16,9-2.11,12.93-.77l3.13,6.85,6.93-5.9c4.04,2.09,8.96-1.37,12.95.05,1.93.68,1.79,4.94,4.22,5.84,4.07-3.92,6.48-2.28,10.87-3.01,1.55-.26,2.76-1.96,4.04-1.96,1.53,0,3.15,2.42,7.01,2.09,3.31-.29,4.52-3.75,6.86-3.04l6.15,5.95c7.61-2.49,13.47-5.78,21.97-5,7.98.73,4.83,2.84,7.44,6.56,2.95,4.2,7.12,1.19,10.57,1.35,11.29.53,14.49,1.45,25.97.06,4.54-.55,13.39,1.08,16.91.09.66-.18,1.39-8.59,10.83-4.03,1.36.66.92,2.53,3.25,2.99,3.91.77,7.51-1.12,10.99-1.06,5.38.09,10.98,1.61,17.08,1.07,5.62-.49,9.54-3.38,14.05-3.95,4.21-.53,8.15,1.32,10.87.95,2.23-.31,3.03-2.93,5.09-3.1.48-.04,8.56,2.47,9.23,2.78.43.2.75.49,1.02.82,3.24.23,6.46.78,9.65,1.55.6-1.37,1.21-2.77,3.07-3.12,5.09-.95,6.27,4.35,11.48,3.03l-.56-6.99c5.99-5.12,10.4.43,16.37,1.19,1.09,2.84.69,3.81,3.9,4.55,15.49,3.56,30.48-1.45,43.8,5.11,4.83-6.72,10.25.43,15.87-.16,3.09-.32,11.94-4.36,15.19-4.71,2.17-.23,3.5,1.5,5.17,1.78,8.54,1.42,15.97.15,24.72.27,13.08.18,26-1.14,39.09-1.09,11.2.05,27.18,1.13,37.96.06,3.15-.31,5.77-2.12,9-2.1,5.28.03,12.79,6.07,14.83,5.89,3.36-.3,3.99-4.91,6.34-5.61,7.96-2.37,21.92.06,30.81-.19,3.39-.09,6.91-.17,10.23-.27,2.4-.07,6.07-2.94,10.78-2.81,3.41.09,9.3,3.19,10.86,2.88,3.37-.66,9.57-13.72,13.72-8.38,2.75,3.54-1.43,6.35-1.09,8.05l7.72,3.36c4.11-3.74,10.02-5.3,15.58-3.63,1.84.55,2.78,3.26,4.31,3.56.99.19,7.36-.99,7.92-1.74.84-1.13.39-5.43,2.95-5.7,3.94-.42,5.19,4.26,5.69,4.56.79.47,6.18-1.62,9.42,1.04.49.4.79.95.99,1.57,2.88.04,5.77.6,8.63,1.63.59-.68,1.21-1.25,1.86-1.57,1.66-.81,11.56-2.46,13.56-2.45,8.64.03,16.68,2.42,26.83.83,3.6-.56,5.45-3.52,10.09-3.04,4.1.43,3.16,3.25,5.13,3.94,4.24,1.5,6.82-1.43,9.9-1.79,7.67-.9,15.19,1.15,22.89-2.09l8.46,5.58c2.05.25,3.89-2.5,7.58-2.65,1.7-.07,14.33,1.77,15.87,2.26,2.7.86,1.82,4.6.71,6.42-1.65,2.72-6.4,3.26-8.04,4.95-1.46,1.51-1.49,4.35-3.47,6.53-3.53,3.89-8.93,3.54-9.49,11.51-3.83,1.16-5.92,1.15-7.56-2.54-1.52.79-1.04,2.75-1.81,3.67-10.11,12.21-23.14,22.94-36.2,33.31-2.69,2.13-1.51,5.66-7.46,3.01.17,4.15-14.12,17.05-16.74,17.8-1.59.45-4.49-.21-5.16.34-.3.25-1.64,4.77-3.62,6.87-2.92,3.1-7.84,4.89-11.01,7.99-1.88,1.84-6.02,9.18-6.49,9.51-1.52,1.06-6.34.7-8.94,2.06-2.19,1.15-3.88,4.52-6.15,5.85-7.54,4.45-6.24,4.23-12.43,9.57-4.64,4-13.12,7.47-17.53,11.47-2.31,2.09-3.56,6.34-4.95,7.07-2.72,1.45-5.58-1-7.01-.1-.87.55-1.37,2.7-2.48,3.59-2.27,1.83-4.89,2.3-7.1,4.91-1.09,1.28-1.27,3.53-1.64,3.84-.62.51-2.8.17-4.35,1.14-1.54.97-2.44,3.72-3.94,5.07-3.36,3.04-8.84,6.41-12.44,9.54-2.55,2.22-13.44,12.04-15.06,12.97-2.38,1.37-7.01.63-10.96,4.04-2.07,1.79-3.19,5.93-4.71,6.37-1.78.52-3.75-1.2-5.31-.46-5.39,2.58-14.27,12.7-19.27,14.78-2.73,1.14-6.24.22-7.55.96-.6.34-2.12,4.82-3.63,5.87-1.82,1.27-3.9.62-5.56,1.44-1.76.87-2.6,4.53-5.08,5.92-5.89,3.3-15.56,1.37-13.8,11.13-2.53.31-6.6,5.01-7.82,5.3-4.49,1.06-4.15-3.53-10.31,3.64-2.95,3.43-1.93,2.69-5.71,5.8-3.8,3.12-.15,4.13-8.13,1.85-3.4,4.14-1.16,7.14-1.17,11.85-4.1-1.02-8.06-1.29-8,4-.31.34-3.57-4.55-8.36-2.87-2.4.84-1.08,4.54-2.53,6.46-2.84,3.75-14.47-2.85-18.06-4.13-2.12-.76-4.46-.25-6.79-1.21-2.85-1.17-5.2-5.76-7.87-7.13-4.71-2.4-8.08-.06-9.5-8.01-1.16-.83-4.32.98-6.18.71-5.32-.76-7.87-9.45-9.68-10.34-1.9-.94-5.53-.37-8.09-.91-3.45-.74-4.96-2.46-7.65-3.35-1.72-.57-4.65.45-5.82-1.18-.75-1.04-.11-3.61-1.42-4.58-2.08-1.54-13.29-.64-13.71-3.9-.16-1.27,1.79-3.75-.28-5.11-4.15-.31-8.54-1.58-11.94-4.06-2.77-2.02-5.39-7.11-7.12-7.88-2.59-1.15-5.63.17-8.01-.99-1.21-.59-1.98-3.13-3.64-4.36-3.92-2.92-12.39-7.26-17.1-9.9-4.31-2.42-11.96-5.34-16.19-7.81-4.95-2.89-12.37-10.99-17.6-11.42-1.84-.15-3.28,1.44-5.41.52-2.66-1.14-8.28-9.79-11.07-11.07-2.73-1.25-5.55.99-8.37.6-2.72-8.18-9.38-9.14-17.13-9.13-4.52,0-7.7,2.84-11.46-2.47-.45-2.13,6.55-2.77.99-7-6.5.08-8.12.6-13.49-3.49-2.72-2.07-7.19-8.36-9.54-9.46-1.77-.83-3.93-.4-5.68-1.32-2.61-1.37-8.33-6.54-9.99-7.01-2.98-.84-6.33.55-9.28-.71-3.33-1.61-.56-4.95-1.94-6-3.18-2.4-10.84-2.76-14.32-3.75-7.28-2.06-13.89-4.64-20.67-8.33-2.67-1.46-12.76-7.35-15.04-8.03-3.31-.98-5.39,1.48-8.78-.12-5.53-2.61-4.6-10.48-6.68-12.35-3.15-2.84-14.2-3.24-17.3-5.2-.9-.57-2.18-4.29-4.3-5.23-2.65-1.17-4.92.5-6.04,0-1.42-.63-2.4-4.3-3.93-5.06-1.6-.79-3.63,1.13-4.84.45-.42-.24-4.47-6.59-5.72-7.82-2.84-2.8-8.25-6.56-11.72-9.08-.59-.43-.76-1.22-.78-1.92l-5.93,2.94-.93-3.57c-4.72-.24-7.37-.94-10.01-5.06l1.92-2.88-.96-1.02c-3.32-.41-12.56-2.13-10.28-5.98l-1.3-1.4c-2.61,2.05-7.36-2.59-8.49-4.55-1.14-1.97-.69-3.82-1.48-5.52-2.45-5.28-15.47-4.52-20.42-7.58-4.48-2.77-10.01-10.17-12.02-15.04-1.44-.93-4.37,1.81-7.41,1.56-3.02-.25-6.4-2.97-10.01-1.97-1.35-.15-1.04-3.12.59-4.35ZM518.96,356.06c-3.29,3.11-10.94-10.79-4.21-6.72.43.26,5.45,5.55,4.21,6.72ZM495.46,921.07c-.94-.66.56-1.72,1.13-1.88,4.28-1.19,7.88,1.42,9.37,5.36-.79,4.05-9.35-2.19-10.51-3.48ZM1194.01,666.53c-.19,2.09-2.87,2.73-3.14,6.02-.46,5.43,1.95,16.01,2.09,22.02.22,9.01-.18,16.56-3.44,24.55-.84,2.05-.08,4.46-2.07,5.94l-2.98-2.97-4.15,6.06c-2.92.25-6.83-3.42-9.38-2.69-2.49.71-2.78,3.36-4.02,4.09-2.51,1.48-3.77-.76-5.46,4.52-3.2,1.01-3.36-3.37-5.14-3.9-.57-.17-8.21,1.01-10.84.88-3.04-.15-11.21-2.92-11.81-2.81-2.01.36-3.62,2.89-7.69.83l.99,6.99-3.9-.13-.09-2.87c-3.35.69-4.5,3.91-7.5.02-2.91,5.93-4.15,2.72-7.73,3.23-10.07,1.42-18.55,1.72-28.24,2.77-5.99.64-15.11,3.88-20.05,4.04-3.2.1-6.32-1.77-9.95-1.04-2.31.47-3,2.83-4.94,2.92-1.38.07-3.23-1.13-5.08-1.02-5.52.31-10.95,1.7-16.8-.1-2.78-.86-2.35-5.3-6.18-4.88-2.34.26-2.49,2.89-4.12,3.97-4.46,2.98-14.32,1.25-19.82,2.18-4.36.74-8.37,2.96-13.24,3.55-4.41.54-13.48-1.1-16.76-.64-1.88.26-2.97,2.14-6.08,2.14-3.15,0-4.74-2.28-6.91-2.16-1.73.1-3.33,1.86-5.17,2.03-2.18.21-4.09-1.16-5.88-1-3.56.34-9.89,2.94-15.03,2.78-4.26-.13-9.81-2.87-13.02-2.84-2.79.02-4.63,2.41-7.48,2.06l-1.51-4.02c-4.9.64-2.44,7.14-5.11,7.96-4.42,1.34-4.92-4.9-5.88-4.92l-3.05,6.98c-4.15.65-9.11-6.27-11.18-6.84-2.48-.69-4.43.93-6.56.66-1.95-.25-3.93-2.71-6.21-2.73-4.26-.03-8.51,11.65-13.98,12.91-6.84-2.34-11.8-6.22-17.17-10.91l-6.9,3.94c-3.23.17-1.89-5.45-4-6.01-7.07,3.5-13.32,3.03-20.94,2.99-1.9,0-3.83-1.11-5.98-1.05-6.89.21-14.12,7.06-18.05-3.95l-6.46,4.51c1.45,1.61,4.81,2.05,3.91,4.9-1.62,5.18-12.98,2.48-17,2.17l-.93-4.58c-4.53-.86-4.01,3.02-5.53,4.97-2.47,3.17-4.65-1.26-6.57-2.35-1.45-.82-6.17-2.42-6.61-2.9-.61-.66-.26-2.41-1.28-3.19-3.17-2.42-11.51-2.87-15.45-2.47-1.68.17-3.07,1.63-4.22,1.74-1.85.17-7.04-3.33-10.33-1.78l1.99,4.5c-2.87,2.05-5.43-1.54-7.79-2.21-7.4-2.12-10.62.38-16.72-.26-2.66-.28-4.43-1.92-6.99-2.11-4.1-.31-6.26,2.15-9.98,2.16-2.59,0-6.08-1.9-7.04-1.77-1.07.14-1.84,2.2-3.09,2.46-.63.13-12.06.3-12.8.22-2.07-.22-3.59-2.15-6.01-2-2.62.17-7.09,3.63-9.28,3.84-1.92.18-2.73-2.87-4.81-2.89-2.56-.02-6.41,8.05-8,8.05h-14.5v-4.01c-4.38,1.05-4.93.35-8.37-1.93-1.88.91-3.49,4.31-5.35,4.81-3.01.8-4.33-2.01-5.65-1.78-1.01.18-1.96,2.4-3.35,2.79-1.92.53-3.66-1.02-5.54-.67-1.46.27-2.99,2.27-5.37,2.48-3.27.28-8.66-1.7-11.88-1.68-5.44.04-14.65,3.21-20.96,3.05-3.44-.09-6.77-2.97-9.04-2.98-2.11,0-4.44,2.45-7.06,2.87-4.28.69-8.74.04-12.92-.69,1.15,1.74,1.27,4.07-.73,5.93-5.03,4.66-11.6,5.5-18.14,4.35-1.37-.24-2.42-1.21-3.03-2.42-2.42,2.32-12.57-4.72-15.61-1.1l.38-3.14c-1.87-.22-3.75-.42-5.63-.53-1.18.23-2.37.46-3.55.66-7.72,1.32-15.53,1.92-23.35,2.15-2.72.42-5.44.83-8.16,1.19-.62.08-1.25.16-1.87.24-.81.71-1.49.66-2.06.27-18.01,2.34-36.45,4.49-54.59,3.87-4.37-.15-8.71-.81-13.02-1.62-1.3.37-2.9.61-4.78.81-1.57.17-3.1-.97-4.69-.73-2.23.34-5.21,3.69-9.43,3.59-2.32-.06-2.68-2.49-4.28-3.24-1.48-.69-8.24-.31-12.81.12-4.84,3.07-9.39,5.94-15.49,6.74-.85.11-1.7.19-2.56.25-1.42,1.32-3.01,1.69-4.15.12-2.3-.02-4.59-.15-6.89-.31-.34.49-.82.74-1.57.57-.51-.12-.85-.4-1.08-.77-2.15-.16-4.3-.3-6.45-.37-.08.59-.36,1.15-.97,1.65l-2.54,1.24c-5.08-6.86-12.42.7-17.06,1.25-2.53.3-4.75-1.11-6.71-.82-2.54.37-4,3.67-6.16,3.78-1.81.09-4.49-1.93-7.08-2.01-8.49-.27-19.46,2.98-28.97,2.49-5.07-.26-10.27-2.38-14.99-2.5-4.71-.13-9.1,1.84-13.96,1.01-2.61-.45-3.92-2.5-5.27-2.76-1.73-.34-3.82,1.47-5.31.41-.48-.34-5.74-9.1-5.9-10.15-1.22-7.75.06-17.54-.26-24.94-.47-10.9-2.53-23.4-2.6-34-.07-9.52,3.12-17.38.6-27.8-.55-2.26-2.73-3.34-2.89-6.2-.25-4.72,3.36-11.87,3.21-15-.16-3.39-4.7-6.11-4.96-9.2-.15-1.72,2.44-2.55,2.86-4.85.62-3.4-1.7-6.97-.86-9.74.42-1.38,2.49-2.3,2.58-3.2.13-1.4-3.17-5.17-3.93-6.82-.67-1.46-.76-3.11-1.38-4.62-.4-.98-2.04-1.73-2.33-2.79-.37-1.39,3.04-6.77,2.79-9.85-.11-1.4-1.53-2.49-1.79-4.04-.91-5.36-4.65-14.94,1.71-16.59l-2.79-15.81c3.59,1.65,7.3-.91,9.9-3.5l-5.89-6c3.61-3.07,5.08-4.72,9.97-3.99-5.61-9.55-4.35-22.16-5.01-32.99-.22-3.67-1.93-8.48-1.98-12.01-.07-4.13,1.75-9.08,1.04-14.04-.67-4.73-4.19-5.68-3.01-12.91.25-1.51,2.03-2.82,1.86-3.9-.2-1.25-3.67-2.95-3.86-6.19-.19-3.21,2.25-9.96,1.95-12.91-.05-.5-2.12-8.55-2.44-9.58-2.39-7.71-7.21-8.34-5.59-19.51.77-5.29,5.81-9.11-3.95-11.46l2.78-6.53c-.15-.91-2.41-1.56-3.18-2.56-5.76-7.51-.29-5.13,2.29-9.5,1.44-2.45,1.57-6.29,4.15-8.89-2.74-2.46-3.17-6.43-4.99-9.1-1.05-1.54-4.13-.71-3.06-4.4h6.01c1.2-4.82-2.29-5.81-3.93-9.37.7-2.22,4.63-3.33,5.42-4.64,2.01-3.32-.48-12.36-.26-16.25.17-2.95,2.58-6.66,2.7-9.32.15-3.4.17-13.8-.04-16.99-.28-4.4-1.76-1.05-.2-8.25,1.48-6.81.5-13.24,2.76-20.24,2.71-8.43,6.33,2.89,7.86,4.73,4.55,5.48,8.16.78,13.18,4.32,7.24,5.09,3.89,11.55,10.57,15.42,2.1,1.22,6.63,1.64,7.94,3.06,1.18,1.26.82,3.17,1.56,4.44.82,1.42,14.51,9.89,16.48,10.52,2.44.79,5.18.13,6.98,1.02,1.65.82,2.15,4.66,4.44,6.56,2.21,1.82,5.02,1.78,6.92,3.08,2.61,1.79,6.92,7.66,10.1,9.9,6.47,4.53,12.97,9.4,19.45,13.55,1.58,1.01,3.43,5.34,6.1,6.9,2.73,1.6,4.84,1.08,6.92,2.08,1.38.66,2.2,2.92,3.75,3.33,2.41.64,4.46-1.66,7.25-.39,2.42,1.1,4.63,5.83,6.51,7.54,6.97,6.35,12.68,9.2,20.05,13.95,7.36,4.75,21.74,12.71,30.45,15.55,3.3,1.08,7.21.64,10.73,2.27,4.04,1.87,19.6,16.83,20.93,17.07,1.48.26,2.88-1.79,4.68-1.65,5.16.42,14.48,4.95,18.71,8.25,6.55,5.1,13.33,11.09,20.6,15.4,2.71,1.61,7.11,3,10.32,3.18l.97,6.54c3.45,2.24,5.14-2.38,7.51-2.53,4.31-.27,7.2,4.68,10.06,6.95,1.55,1.23,7.72,6.54,8.19,6.81,2.55,1.44,5.87.65,8.28,1.72,1.75.77,3.7,4.4,5.5,5.5,2.93,1.8,6.81,1.41,9.89,3.11,2.68,1.48,4.53,5.3,7.36,6.64,2.67,1.26,5.35.71,7.48,1.52,4.55,1.74,9.08,4.64,13.84,6.19l-.03,8.51c3.49.73,4.08-3.21,7.4-3.01,2.08.12,4.13,2.22,6.35,2.76,3.19.78,10.17.39,11.73,3.31.57,1.07.21,2.76.78,3.68.57.92,6.07,3.17,7.78,4.72,2.41,2.17,7.08,10.31,10.38,10.46,1.38.06,2.55-1.33,4.54-.46,1.59.69,2.27,3.23,3.38,4.2,1.62,1.41,8.13,7.56,8.64,7.86,1.79,1.05,4.2-.05,6,1,1.31.75,2.25,4.75,4.7,5.35,2.14.53,4.13-1.49,5.97-1.61,1.18-.07,10.82,6.85,12.36,8.22,2.23,1.99,3.79,5.74,6.03,6.97,2.37,1.3,7.48,2.07,10.63,3.37,2.37.98,7.13,4.66,8.97,4.89,1.93.25,7.33-2.53,7.29,1.71-.03,3.06-2.92,5.59,2.3,7.83,4.53,1.95,7.61-.92,10.07-.14,1.95.62,1.77,4.43,4.67,3.9-.21-1.71-.46-7.72,2.49-6.99,4.52,3.19,2.6,7.83,3.67,11.34,1.15,3.78,12.58,3.08,15.9,4.1,3.44,1.06,4.56,5.89,6.39,6.17,1.23.19,3.91-.95,6.09-.71,2.06.22,3.8,2.09,4.77,1.92,1.06-.19,1.94-2.06,4.12-1.86.57.05,9.56,2.84,10.85,3.27,1.92.64,4.63,4.76,5.23,4.75.39,0,1.75-2.37,3.2-2.79,6.27-1.82,23.11-3.21,29.8-2.99,7.18.24,17.38,7.53,15.55-4.16,7.24-1.75,20.64-.46,24.98-7.51,1.63-2.66.93-6.02,4.02-7.98.88-.56,12.75-6.41,13.48-6.55,2.33-.44,3.99.05,5.68.7.35-1.25.8-2.46,1.42-3.61,0,0,0,0,0-.01-.4-.49-.66-.97-.57-1.44.19-1.07,3.05-2.84,3.94-4.13.98-1.43,1.26-3.08,2.46-4.54,1.4-1.7,6.12-4.82,6.32-5.17.77-1.39-.5-3.98,1.19-5.32,1-.79,4.72-.89,6.46-1.53,3.42-1.27,9.95-3.55,12.83-5.16,2.62-1.47,3.5-4.32,3.93-4.56,1.25-.68,3.71.17,5.79-.72,2.57-1.1,4.73-6.94,9.29-8.71,2.77-1.08,9.46-1.54,11.73-3.27,2.37-1.81,1.44-10.56,8.06-13.02,3.12-1.16,3.55,1.74,6.19,1.4,4.17-.54,9.92-6.17,12.78-7.34,2.03-.83,4.31-.2,5.99-1.01,1.83-.89,1.82-4.1,3.43-5.57,4.64-4.24,14.43-4.98,20.14-11.91,2.36-2.86-.36-4.52.81-6.1,1.89-1.36,4.06-.62,6.16-1.88,5.1-3.05.18-8.66,12.85-6.98,2.36.31,4.84,2.14,7.03,1.91,2.12-.22,3.99-3.16,6.54-3.01l-3.53-5.99c1.69-3.23,8.08-4.23,9.62-6.42,1.12-1.6.71-4.22.99-4.5.32-.32,6.68-.63,8.92-1.58,2.85-1.2,4.67-4.47,5.95-4.94,1.14-.42,2.65.82,4.01,0,3.23-1.96,7.87-16.87,13.33-15.44.78.21,1.53.93,2.3,1.81,1.4-1.26,2.93-2.31,4.68-2.99l-.33-1.36c.34-2.46,3.18-3.64,4.47-5.65.84-1.31.54-3.2,2-5.01,2.2-2.71,10.71-.05,13.13-4.94,1.02-2.07-2.47-2.79,4.63-5.29,8.6-3.03,5.71-3.14,10.85-6.14,1.61-.94,4.13-.62,5.97-2.03,2.31-1.78,1.69-4.35,3.41-6.59,2.23-2.89,8.69-4.91,12.58-9.42,5.78-6.7,5.57-5.8,11.93-11.07,1.7-1.41,3.39-5.3,5.51-6.49,1.84-1.03,9.73-2.06,10.56-2.97.3-.34-2.06-3.95,2.45-8.02,3.04-2.74,6.9-1.64,8.58-3.41,1.33-1.4.7-4,1.91-6.09,1.02-1.76,8.84-8.42,9-9.03.12-2.07-2.34-3.51-2.75-5.12-1.76-6.9,6.65.66,8.82-.74,1.02-.66,1.61-3.44,2.92-4.05,2.76-1.27,5.03,3.38,11.07-4,4.32-5.27,12.64-12.5,18.61-16.39,2.85-1.86,7.19-1.36,10.9-4.1,3.47-2.56,5.06-8.66,6.49-9.57,2.38-1.51,5.76,1.88,7.43,1.49,1.32-.31,4.42-11.03,9.16-7.02,2.52,2.13,1.31,17.28,1.37,21.63.1,7.8-1.35,20.29-.66,26.83.25,2.39,3.69,5.45.55,8.42,1.02,1.8.78,4.27-.61,5.8l1.76-.59c-.06,7.49-1.71,15.03-2.09,22.5-.12,2.38.96,4.48.84,6.74-.71,13.07-3.62,31.58-1.79,44.32.56,3.88,3.55,7.86,2.05,12.94-.16,0-.3-.02-.43-.05.95,6.67.94,13.23-1.62,19.41-.06,1.9-.18,3.49-.34,4.21-.45,1.99-3.23,2.06-3.25,4.43,8.02,8,2.53,18.42,1.92,28.29-.37,6.01,1.53,11.45,1.76,15.81.16,3.16-4.34,5.18-.02,9.88-2.87,3.6-1.84-2.01-4.5-1.48-2.5.5.7,6.48,4.53,5.54.65,3.52-1.99,6.47-1.95,8.99.03,2.32,2.2,3.49,2.68,5.22,1.56,5.6-2.8,6.61-2.62,8.57.14,1.57,2.47,4.01,2.88,7.16.89,6.97-2.03,17.97-1.01,23.96.39,2.26,2.77,3.6,2.95,6.1.21,2.96-1.99,7.79-1.96,10.97.03,2.78,1.88,5.59,1.84,8.02-.04,2.14-1.69,3.93-1.79,6.05-.13,2.6,1.33,5.47.99,8.95-.23,2.26-1.98,4.49-1.85,5.83.15,1.57,2.36,3.06,2.77,5.2.56,2.97-.27,6.65.13,9.87.38,3.13,3.18,13.77,2.97,16.05Z"/>
  </g>
</svg>