<?xml version="1.0" encoding="UTF-8"?>
<svg id="Layer_2" data-name="Layer 2" xmlns="http://www.w3.org/2000/svg" viewBox="0 0 1186.15 1218.58">
  <g id="Layer_1-2" data-name="Layer 1">
    <path d="M1052.12,499.85c.9-.9,1.85-1.48,2.84-1.8-3.01.21-5.51,1.94-7.38,4.45,1.07-.25,2.14-.5,3.21-.75.44-.76.87-1.44,1.33-1.91Z"/>
    <path d="M343.69,282.94c1.04-1.12,2.1-2.22,3.15-3.33-.02,0-.04,0-.05,0-1.59-.22-2.92.17-4.13.37.34.99.67,1.99,1.03,2.97Z"/>
    <path d="M1175.87,1097.23c-.46-2.31.13-4.72-.39-7.32-1.59-8-11.07-5.97-14.3-12.92,1.78-1.27,2.39,1.74,4.76,1.66,2.48-.08,4.61-3.21,8.19-2.86,3.09.31,3.04,3.07,5.66,3.28,2.42-8.13-2.34-9.74-4.04-14.55-1.95-5.51,1.15-5.98,1.31-10.01.25-6.54-1.1-11.53-.41-19.18.36-3.94.16-10.5.55-13.83.19-1.6,1.93-2.75,2.03-4.97.14-3.03-2.33-3.74-2.6-6.13-.31-2.81,1.42-5.39,1.18-7.84-1.08-10.78-.1-12.04.65-22.14.24-3.29-2.16-12.16-2.05-12.8.15-.84,1.53-1.84,1.76-3.23.46-2.75-1.35-4.13-1.33-4.96.03-.9,1.9-3.04,1.72-6.96-.13-2.88-2.99-9-2.93-10.09.05-1.06,2.4-2.63,1.52-5.83-.39-1.43-4.7-2.55-1.92-7.76l3.26-1.42c.57-10.36-5.03-21.87-3.45-31.98.24-1.5,1.9-2.73,1.78-3.84-.14-1.21-3.09-3.04-3.25-6.34-.17-3.45,2.33-8.84,2.16-11.84-.13-2.33-3.03-3.41-2.57-6.12,4.22-4.44.4-3.65.22-5.9-.65-7.81,2.24-19.86,2.78-27.95.65-9.66-.19-18.82.02-28.02.21-9.35-.01-15.41,1.89-24.72.58-2.83,2.69-5.85,2.74-9.22.08-5.3-4.53-7.39-4.03-15.12.12-1.81,1.94-10.37,2.64-11.45,1.17-1.8,3.7,1.3,4.94-1.32.56-2.15-1.93-4.12-2.29-6.26-1.89-11.26.28-21.25.38-31.83.04-3.95-3.94-10.77,2.48-7.4-.84-4.71,3.14-10.3.01-13.98l-2.76,2.87c-1.59-.04-1.61-6.58-.66-8.06,1.02-1.85,4.54,2.07,4.09-1.33-.35-2.64-2.8-3.34-3.24-5.31-.64-2.82.97-5.11.75-6.66-.17-1.17-2-1.98-2.32-4.2-.51-3.52.83-8.31.33-11.93-.31-2.28-2.59-4.13-2.42-6.13.13-1.47,1.85-2.45,1.73-3.74-.1-1.12-2.21-2.74-1.47-4.75l3,3.08c4.7-4.74-.7-11.12-.87-14.6-.1-2.07,1-3.82,1-5.79,0-4.91-1.89-8.45,1.39-13.53-4.6-.68-.07-4.34-2.32-7.71-2.13-3.2-12.13-.83-7.87-8.21l4.5-.31c.54-1.92-1.68-2.65-1.49-4.37.33-3.03,5.33-6.83.66-11.67l-2.28,1.43c-3.15,1.25-.58-5.81-.64-6.98-.1-1.99-2.32-3.76-2.22-5.1.08-1.01,3.87-5.66,4.17-9.01.29-3.26-.93-13.98-1.57-17.22-.68-3.4.3-5.87-3.1-8.28l-3.22,3.37c-3.73,1.66.25-8.96.12-9.89-.26-1.83-4.13-4.36-4.84-6.42,5.87-7.55-.25-12.39-4.83-18.02,1.53-2.52,4.62-.63,6.29-1.77,5.07-3.45-9.63-10.19-11.18-12.41-1-2.51,5.45-.89,7.16-1.76,4.44-2.25-.22-7.98-.5-11.11-.37-4.2,1.62-7.69,1.05-12.65-.63-5.49-4.13-7.39-5.22-10.98-1.26-4.15,2.87-5.62,3.9-8.76,1.75-5.32.1-8.21,5.45-8.08.7-2.93,1.3-5.9,1.86-8.87-4.72,1.25-7.22-6.22-11.35-10.75,9.09-5.61.26-17.17-.08-25.51.61-.65,6.44,2.95,5.33-.32-5.91-3.47-6.93-11.95-10.98-16.42-1.36-1.5-9.4-8.04-10.83-7.68-2.66,3.6-3.64,5.77-7.29,1.68-3.91-4.38-2.21-6.72-3.17-9.12-.71-1.76-4.22-2.69-4.45-4.62-.31-2.65.41-4.36,1.58-5.68-2.73-.08-5.14-1.11-8.05-2.39-.93-.41-1.6-1.05-2.07-1.8-.67.61-1.47.94-2.47.78-.96-.15-1.94-1.57-2.95-1.74-3.36-.58-9.58-.31-13.09-.62-2.75-.24-7.05-5.05-11.38-3.46l-2.49-6.07-6.72-.13c.21-6.39-8.65-10.65-13.33-9.23-1.41.43-2.54,2.69-3.99,3.56-4.55,2.75-9.43-3.65-13.03-6.34l-1.21.14c-.67,4.7-7.25,4.5-10.27,3.35-2.64-1-2.42-9.33-7.2-5.14-2.11,1.85-.31,5.52-5.41,5.01-5.77-.58-8.43-8.92-13.11-9.53-3.49-.46-5.5,5.87-8.11,5.8-2.51-.16-2.82-4-4.21-5.25-2.47-2.21-5.16-.11-8.03-.14-4.83-.05-12.68-1.35-16.94-.61-2.41.42-1.63,3.08-3.6,3.01-3.38-.12-2.68-3.13-3.55-3.25-.64-.09-2.26.94-3.51.93-8.02-.07-14.48-1.78-22.15-1.78-3.47,0-6.24,2.6-10.8,1.78-2.93-.53-4.32-3.67-8.09-4.12-4.49-.54-10.65,1.24-15.79.33-2.7-.47-4.31-3.24-6.1-3.24-1.69,0-2.4,2.25-3.8,2.68-1.56.47-3.44-.2-4.96.27-2.74.84-4.81,3.75-7.79,2.03-5.2-3-3.96-.69-7.34-1.89-1.28-.46-1.91-2.81-3.7-3.04-1.82-.23-2.96,1.68-4.51,1.88-4.33.56-9.62-.59-14.16-.39-.94.04-1.94.25-2.96.51.14,1.74-.46,3.57-2.15,4.78-3.11,2.23-4.56,4.93-.94,7.34,3.76,2.5,7.67.77,10.39-2.63,2.31-2.89,6.62-.96,7.35,2.44.8,3.7,3.21,6.29,4.69,9.68.69,1.57.57,3.2-.03,4.53,2.53,1.53,5.06,3.06,7.59,4.6,2.42-.01,4.82.11,7.24.34.65-2.45,2.89-4.18,5.52-3.45,5.15,1.43,9.07,4.18,11.63,8.36,1.37-.59,3.01-.53,4.14.32,5.26,3.96,8.52,9.25,12.47,14.62,4.37,5.95,9.74,5.69,16.2,4.19,1.81-.42,4.15.4,4.94,2.46.94,2.44,1.71,4.95,2.54,7.44,5.13-.83,10.48.3,13.95,5.03,1.34,1.83,2.21,4.28,2.62,6.91,6.63,5.75-11.23,14.92-2.85,16.56,2.51.49,3.38,3.87,2.9,6.25-.18.89-.19,1.79-.13,2.69,1,1.87,1.78,3.88,2.51,5.89.03.02.06.04.09.06,3.08,2.07,5.06,4.54,6.19,7.23,5.65,3.53,10.6,8.31,15.39,13.47,6.02,1.43,10.79,5.88,12.26,13.13,2.51.26,4.99.81,7.23,2.14,3.06,1.82,5.55,4.83,8.14,7.35,2.69,2.61.62,7.6-2.39,8.41,2.68,2.62,5.19,5.41,7.29,8.61.85,1.29,1.15,2.83.97,4.24,1.2-.03,2.44.04,3.7.21,2.23.31,4.57,2.28,4.28,5.14-.19,1.92-.62,3.61-1.22,5.16.3.42.59.85.86,1.29,1.3-.11,2.58-.1,3.77.2,5.86,1.51,6.84,7.75,4.64,13.33-.65,1.64-1.84,2.97-3.29,3.4.05.63.08,1.26.11,1.89,1.95,1.73,4.09,3.16,6.59,3.99,4.83,1.61,3.39,8.75-.72,9.62.96.4,1.9.98,2.78,1.68,2.9,2.33,2.5,6.43-.28,8.63-1.04.82-2.36,1.4-3.79,1.83,0,1.78.08,3.55.17,5.33,2.3.56,4.5,1.45,6.71,2.69,4.12,2.32,1.36,9.94-2.64,9.37,2.38,3.28-.15,9.17-4.75,7.97-.14-.04-.29-.05-.44-.08-.08.27-.17.53-.26.8.34.34.64.73.89,1.13.11.18.21.37.31.56,1.32.84,2.28,2.37,2.19,4.35-.11,2.4-.39,4.94-2.19,6.53-1.11.98-2.45,1.33-3.69,1.15-.25,1.26-.55,2.51-.92,3.75.78,4.23,2.74,8.71,3.62,11.71,2.43,8.35,3.2,16.98-1.92,23.96.13,2.73.2,5.83.23,7.67.15,11.41,7.69,21.21,7.08,32.45-.15,2.79,1.85,6.62.15,9.53-.46.78-10.62,5.66-.26,4.04l1.39,2.47c-.45,3.37-1.71,6.59-2.11,9.96-1.28,11.01-1,22.81-2.01,33.92-.84,9.3-4.8,20.1-4.07,29.8.35,4.64,3.6,9.44.01,14.47-2.23-1.74-1.08-9.09-4.66-7.63,1.21,3.35.06,7.89.73,10.82.33,1.44,16.1,16.57,16.41,18.75,1.91,13.48,2.14,18.39.52,31.65-.46,3.78,1.44,12.66,1,15.88-.21,1.55-1.85,2.62-1.9,3.98-.04,1.09,1.45,2.8,1.66,5,.46,4.76-1.52,9.37-1.44,13.03.06,2.68,1.99,4.1,1.71,8.07-.19,2.63-2,4.91-1.9,5.72.1.84,1.39,1.9,1.48,3.29.64,9.35-1.51,18.73-.87,26.98.97,12.52.14,20.68-.18,32.94-.39,15.14.01,30.65,3.06,45.22l-2.9,3.82c.2,6-.66,12.07-.54,18.06.07,3.48.6,5.55.59,9.99-.02,8.32-.09,12.64-3.08,20.17-.68,1.7-.79,5.06-1.75,6.2-1.41,1.68-6.01.27-6.01,5.77-2.67.73-3.56-2.39-5.42-3.4-4.55-2.49-9.46,4.96-13.79,6.88l-3.49-4.02c-2.64.67-5.28.95-8,.64-2.62-.3-3.71-1.6-5.34-1.94-1.21-.25-2.86,1.04-4.25.52-1.39-.52-.99-3.04-1.8-3.03-1.45.02-4.11,3.21-6.71,1.82l.55,4.39-2.23,2.41c-4.83-4.34-7.3.45-10.64.8-2.06.21-3.94-1.3-6.07-1.23-7.33.22-16.57.85-23.98,1.4-3.76.28-11.94.76-10.55,6.54-3.62.81-.51-3.79-.76-4.02-2.55-.9-4.75,1.61-6.8,1.77-2.29.17-4.35-1.49-6.92-1.22-2.33.25-3.93,2.81-5.5,2.79-1.44-.01-2.76-1.88-4.43-2.09-2.36-.3-5.36,1.77-8.01,1.71-4.35-.09-11.13-4.57-13.14-4.41-2.35.18-6.35,4.24-9.3,4.5-3.25.28-9.14-1.48-12.22-1.29-6.33.38-14.5,4.61-22.29,3.38-1.54-.24-2.33-2.4-4.19-1.99-3.43.76-4.37,7.02-9.72,4.56l.13-4.01c-1.27-.12-2.52-.14-3.8.11-6.77,1.33-17.2,2.68-24.25,2.05-3.27-.29-5.73-2.87-9.76-2.45-2.04.21-3.11,1.74-4.56,1.94-1.38.19-3.18-1.1-3.95-.66-.92.53-1.59,3.94-3.29,4.21-1.08.17-2.66-1.13-4.26-.95-1.49.17-2.59,2.03-4.57,1.97-4.33-.12-8.04-6.76-9.73-7.27-1.39-.42-3.29.95-5.11.7-1.78-.25-2.92-2.07-5.27-2.14-4.75-.14-3.47,5.4-5.67,7.77-1.07,1.16-5.66,3.2-7.26,4.83-5.51-3.09-9.89-7.31-14.72-11.51-4.96,3.19-9.52,3.63-14.87,5.51.16-3.65,3.68-4.45,5.98-5.8l-.86-2.04c-3.67-.17-8.35,2.67-11.66,2.68-3.33.01-8.05-2.34-11.37-2.32-3.05.01-5.74,2.68-8.04,2.6-.72-.02-6.51-1.4-6.79-1.63-1.17-.95-.4-4.62-2.92-4.69-6.09-.17-.63,6.61-.66,7.53-.18,6.66-12.2,3.01-15.59,2.89l-1.43-3.78c-4.64-1.97-3.37,3.44-6.72,5.43l-13.19-11.1-6.52,1.66-1.22-4.04c-2.76-.57-2.16.21-2.36,2.81-7.54-.82-13.27,6.58-19.95-.51l-1.56,6.93c-3.5-2.62.22-9.87-5.85-8.06-.99,1.85-.75,6.9-3.43,6.77-.67-.03-.63-2.17-1.64-3.09-3.44-3.15-7.1-3.25-11.45-3.29-1.47-.01-2.71,1.51-3.64,1.45-2.58-.17-9.09-6.39-10.3,1.04l-1.31-.04c-2.18-6.52-6.86-2.33-9.55-2.54-1.75-.14-3.63-2.15-6.32-2.06-2.95.11-5.98,3.69-8.2,3.84-2.91.2-3.48-3.48-5.14-3.18-4.11.74,5.61,7.3,1.49,8.05-1.93.35-3-2.1-4.36-2.14-1.16-.03-2.29,1.69-3.66,1.84-3.56.39-14.96,1.26-13.61-4.4l-4.88,1.92-2.62-3.16c-.86.22-1.01,2.71-2.06,2.96-2.79.67-10.32.27-13.99.62-7.14.68-11.15.1-17.84.29-4.64.13-12.03,2.96-16.97,2.46-2.31-.23-4.16-3.04-7.08-3.27-3.71-.29-12.71,2.77-17.89,2.38-4.59-.35-7.54-6.76-5.92,5.94l-8.47.74c-1.94-4.98,5.13-3.14,6.88-7.29.19-3.05-9.98.06-10.72.61-1.09.81-1.28,6.66-4.32,7.3-1.86.29-6.62-7.73-9.99-2.71l1.68,2.55c-8.22-.35.08-10.23-5.79-13.18,0,12.48-6.23,1.76-8.35,1.89-3.93.24-5.85,5.93-7.67,6.47l-6.71-2.99-4.57,3.69c-1.97-1.61-2.83-4.68-5.76-4.12l-2.44,5.93-4.29-3.87c-3.59,2.5-7.5,1.33-11.51,1.43l-1.76-4.12c-2.85-1.02-2.94,3.09-4.7,3.72-3.09,1.11-4.48-2.17-6.82-2.12-2.13.04-5.14,3.38-9.09,3.74-2.28.21-4.72-.14-7-.34l-2.64-3.96-4.79,4.74c-1.76.55-2.83-2-4.21-2.07-1.56-.08-2.45,2.48-4.53,2.87-2.92.55-6.44-.82-9.55-.05-2.4.6-6.59,4.46-8.44,6.48-2.16.97-.68-3.65-1.95-5.65-3.45-5.45-7.28-.17-8.63.09-1.42.28-4.42-1.66-6.8-1.02-.87.24-.85,2.15-2.2,2.75-2.24,1-6.34.34-8.57,1.17-1.48.55-2.18,2.54-3.89,2.7-3.42.32-3.96-4.25-3.74-7.19l-2.66-.09c.28,9.19-6.18,8.97-4.84-.14l-3.51-2.12c-2.91,1.83-.14,8.84-3.11,9.83-3.2,1.06-4.11-3.12-6-3.14-1.73-.02-9.14,3.89-11.24,4.29-2.3.44-3.85-1.17-6.27-.44-1.7.51-3.14,3.11-4.21,3.31-1.31.24-4.7-2.88-6.98-3.03-2.17-.14-3.45,1.52-5.34,1.75-9.6,1.15-20.6.77-30.12-.96-1.45-.26-2.36-2.01-4.37-2.16-2.6-.19-5.81,1.97-8.96,1.8-1.24-.07-9.87-2.93-11.32-3.57-.68-.3-5.03-6.88-5.29-7.94-.86-3.46.12-7.75-.12-11.46-1.49-22.52.85-45.36.54-68.16-.07-5.44-2.2-11.45-2.26-16.02-.08-5.31,3.33-13.13,1.94-17.43-.68-2.08-4.4-5.23-4.63-7.68-.24-2.52,2.41-1.01,3.75-2.79,2.54-3.35-.42-6.25-.63-9.19-.25-3.55.64-7.14.05-10.68-.6-3.66-4.74-7.45-4.52-11.65.1-1.93,1.93-2.35,2.42-3.9,1.89-5.95-2.64-14.87-1.88-19.82.39-2.53,2.61-2.99,3.28-4.46,1.58-3.46-.94-10.75-1.76-14.51l5.35-2.99-1.02-9.49,7.69-4.28c-4.06-9.29-1.15-20.07-2.53-29.98-.31-2.22-2.15-2.86-2.48-5.11-1.26-8.67,6.85-14.43.17-21.95l.13-15.55-3.55.45-1.73-3.11c.1-2.33,4.55-5.6,4.65-6.06.54-2.43.14-16.89-.25-19.8-.58-4.38-8.52-10.87-7.39-15.05.29-1.06,1.86-1.95,2.43-3.4,3.59-9.13-1.31-6.63-3.02-11.78-1.57-4.74,1.39-6.66,1.08-8.89-.25-1.73-5.09-5.28-2.71-8.77,5.67-1.75,4.23-3.19,5.45-8,.27-1.08,1.58-2.02,1.63-3.24.13-2.81-6.34-11.22-5.8-13.17l6.31-2.83c.62-2.77-5.9-4.04-5.1-8.13.14-.69,5.04-1.62,6.2-5.07,1.93-5.7.43-9.78.66-14.69.13-2.86,2.02-6.63,2.07-9.14.05-2.34-1.46-3.26-1.51-4.85-.07-2.73,1.55-5.5.91-9.8-.69-4.63-4.17-5.18-4.78-9.3.3-1.27,3.17-1.5,5.27-2.96-.07-1.28-.07-2.59,0-3.89-2.21-.63-4.07-2.08-5.33-4.7-.04-.08-.07-.16-.1-.24-.34-.15-.64-.39-.87-.78-.24-.4-.35-.83-.39-1.28-1.68-1.79-2.35-4.95-.27-7.38.39-.46.74-.92,1.05-1.4-4.51-1.45-8.95-3.66-8.7-9.69.32-7.61,9.41-20.09,2.24-25.68-2.9-2.26-2.52-6.5.28-8.63,3.29-2.51,2.73-9.21,2.14-13.71-.77-.44-1.54-.91-2.34-1.41-2.32-1.44-2.88-5.96-.65-7.88,1.46-1.25,2.99-2.47,4.41-3.8-.28-.8-.47-1.66-.56-2.58-.06-.63-.08-1.27-.09-1.9-6.83-4.97-6.94-18.74.38-23.86-1.81-1.55-1.86-4.49-.64-6.6-.33-1.69.19-3.62,1.3-4.79,2.09-2.19,4.31-3.5,6.54-4.09.4-1.53-.01-3.61-.14-5.04-.48-5.11,4.06-7.93,7.58-4.62.26.24.54.46.82.67,1.36-1.91,3.15-3.23,5.25-4.01.14-1.03.39-1.98.72-2.86-.7-1.15-1.32-2.35-1.88-3.66-1.4-3.29.57-7.62,4.08-7.4.71.04,1.41.13,2.11.23,1.24-1.55,1.86-4.11,2.78-5.59,1.62-2.6,3.97-4.54,6.86-5.45,0-.04-.01-.07-.02-.11-.79-2.92,1.71-6.56,4.49-6.19,1.43.19,3.36-.53,5.47-1.46.83-1.06,1.9-1.89,3.64-2.22.54-.1,1.05-.07,1.55-.03.06-.02.12-.05.18-.07.1-2.45,1.06-4.83,3.29-6.91.78-.73,1.75-1.33,2.81-1.89.43-1.17.92-2.3,1.52-3.31,3-5.05,7.58-6.69,12.68-5.16,2.53.76,3.42,3.64,2.84,6.17.29.05.59.1.9.15.81-2.59,2.1-4.5,3.92-6.1,1.36-2.49,4.52-2.9,7.01-1.72.33.16.64.34.93.52.47.04.93.15,1.37.3.22-.19.43-.53.75-1.05,1.41-2.29,2.22-4.99,3.5-7.36.89-1.63,1.89-2.99,3-4.1-.09-2.7,1.6-5.34,4.47-5.24,2.36.08,4.46.41,6.6,1.16.63-1.24,1.17-2.62,1.4-3.13,1.63-3.7,2.71-7.69,3.82-11.61.4-1.4,1.32-2.46,2.42-3.04.47-.91,1.04-1.77,1.78-2.55,2.05-2.2,4.83-3.3,7.41-2.91.16-.2.32-.4.5-.59,4.61-5.1,10.57-3.86,16.43-3.63.38.02.73.1,1.07.21-.1-1.28,7.06,3.01,6.81,1.75-.83-4.24-8.39-18.87-5.38-16.35.07-.69.28-1.38.68-2.02,3.27-5.13,7.35-7.36,12.93-7.43.41,0,.8.07,1.18.2.62-1.83,1.1-3.76,1.37-5.84.69-5.31.28-12.45,1.48-6.61.13.63,7.51,6.83,7.58,7.46.42,0,.83,0,1.24,0-.22-4-7.54-13.56-7.01-17.57.69-5.13,7.92-7.06,8.77-1.05.05.35.28,1.04.34,1.48.08,0,.15-.03.21-.06.94-.57,2.36-.74,3.39-1.15,2.54-1,5-2.23,7.69-2.62.45-.07.93-.07,1.41,0,1.24-2.42,2.65-4.58,4.8-6.11-2.49-2.55-4.33-5-3.68-5.69,2.46.25,3.55,3.03,5.39,4.7.17-.08.32-.17.49-.24,3.28-1.37,6.63-2.58,9.94-3.84,3.28-1.25,4.23-1.33,4.24-4.08-1.37.21-5.67-.89-6.79-1.38-1.32-.57-1.98-2.35-3.01-2.7-1.93-.67-4.4,1.15-6.87.64-2.69-.55-6.73-4.7-11.45-4.34-5.18.39-13.11,9.71-17.27,9.52-2.73-.13-6.8-5.86-5.46-9.28-.27-.35-7.44.68-8.27.97-1.69.6-2.28,2.58-3.43,3.14-6.85,3.34,2.2,4.5-2.25,4.93-1.94.19-3.39,3.59-5.9,2.86-.06,2.93,2.63,3.16,2.55,6.57-.05,1.94-.48,3.34-2.43,3.49-3.66.28-2.97-5.43-5.99-7.23l-3.68,3.84c-1.31-1.44-1.34-3.4-2.46-5.11-3.54-5.38-4.07-2.03-7.73-.87-1.68.53-3.66.28-5.18,1.04-1.26.64-2.13,2.92-3.43,3.25-1.93.49-4.44-3.18-6.89-3.08-1.67.07-2.35,2.08-3.82,2.58-3.14,1.06-6.92.69-10.11,1.35-1.78.37-3.56,2.38-4.9,2.38-1.91,0-8.79-4.02-11.46-4.28l-5.57,4.63c-6.49-5.66-5.85.66-12.3.83l-1.21-3.7c-2.43,1.03-4.71-.63-6.62-.54-3.16.16-5.58,2.5-8.16,2.72-4.15.36-10.75-2.93-14.97-1.43-1.78.64-1.68,6.4-6.6,6.62-2.71.12-8.83-1.29-11.33-1.01-4.99.57-11.17,2.52-17.15,2.91-1.86.12-5.75.92-6.06.86-1.2-.21-2.81-2.91-5.29-2.73-.35.03-6.56,1.81-6.87,2.01-1.21.77-1.25,3.11-2.17,4.15-3.35,3.74-11.38,3.27-15.94,5.25l-.87,1c4.28,7.24-.03,6.17-2.92,8.98-1.5,1.45-2.7,4.98-5.26,5.16-2.38.17-.99-3.86-3.75-3.01.82,7.58-4.15,12.53-10.68,12.7-3.39.09-5.85-2.9-7.78-2.23-1.87.64-1.56,5.12-3.97,6.72-2.26,1.5-9.98.71-10.22,2.29,3.98,6.24-1.89,6.3-5.18,9.31-2.6,2.37-4.75,5.41-7.36,7.77-.98.89-2.73.82-3.6,1.9-2.33,2.91-.45,11.19-6.94,9.83l-2.55,26.39c2.04,8.54.57,18.3-.53,27.61,2.3-1.01,5.19-.18,5.74,3.31.77,4.9.52,9.95-.62,14.73,0,0,.01,0,.02,0l1.06,22.54c-.77,7.62-1.35,18.29-.84,25.99.23,3.45,2.31,7.4,2.23,10.07-.1,3.22-3.06,6.15-2.96,9.92.01.46,1.87,8.02,2.08,8.52.58,1.41,2.72,2.62,2.91,3.77.22,1.36-1.96,2.5-2.53,4.05-.82,2.25-3.74,13.76-3.45,15.48,6.95,2.46,8.41,13.33,5.19,19.83-1.78.82-2.2-5.73-4.39-2.16-.83,1.36-1.12,12.42-.44,14.05.97,2.33,7.74,3.08,5.47,10.16-2.3-.74-2.54-1.4-3.79,1.14-4.52,9.2,1.64,14.89-1.45,23.7l4.46-.85c2.67,6.53-1.66,12.16-1.5,17.45.1,3.25,2.33,6.1,2.37,9.16.04,4.15-2.83,8.52-3.01,11.8-.2,3.67,2.37,9.46,2.23,12.14-.09,1.77-1.65,3.13-1.83,4.96-.38,3.78,1.86,9.16,1.26,13.9-.36,2.86-2.35,6.31-2.44,9.59l-4.14,1.38-.09,4.43,4.46-.43c3.51,4-.1,8.83-.33,13.18-.28,5.26,1.29,13.59.99,18.83-.22,3.85-2.05,9.22-2.18,13.05-.33,9.55,3.46,21.28,1.55,30.96-.27,1.36-2.58,2.03-2.48,3.86.08,1.66,2.95,4.85,3.13,8.4.27,5.1-3.33,9.08-.52,14.79l-1.43,1.38H1.64s-.12,3.99-.12,3.99c.93,1.33,7.8-7.28,5.83,10.65-.15,1.33-1.5,2.26-1.61,3.77-.35,4.53,1.65,19.14-.53,22.72-.88,1.44-4.04,1.14-3.34,5.31l3.58,2.36c.79,9.68-1.16,19.18-1.36,28.81-.35,17.32.41,34.66.75,51.77.08,4.21,2.29,9.02,2.14,12.37-.22,4.87-4.95,11.96-.7,16.9-5.58,13.19-3.18,31.75-.24,45.75,1.41,6.71-.84,6.58-1.58,11.24-.67,4.2.15,8.85.58,13.02l-3.62,2.02c.23,2.37,1.29,4.7,1.38,7.09.18,4.84.66,12.42.51,16.91-.17,5.12-3.17,10.38-3.32,15.91-.04,1.45,1.99,19.8,2.25,20.88.35,1.47,2.08,2.17,2.36,4.31.43,3.29-1.41,6.14-1.18,8.85.89,10.62,6.11,24.23,10.89,33.01,1.05,1.93,1.17,4.4,2.45,6.11,1.45,1.93,4.24,2.53,6.03,4.25,4.88,4.68.85,8.38,2.12,10.81.28.55,5.01,1.39,6.55,2.27,4.98,2.83,8.06,9.04,7.98,15.23,9.43-2.31,14.74,10.56,22.39,12.6,4.05,1.08,9.05-.3,12.93.85,10.6,3.13,22.41,10.26,33.58,13.82,5.39,1.72,6.54-1.04,9.61,7.26l4.43-.72c.89-1.31-2.46-7.74,2.79-6.98,3.17.46,3.14,9.29,11.37,10.36,3.71.49,6.63-1.78,9.74-1.65,3.22.13,6.38,3.16,9.65,3.33,2.72.14,7.85-2.47,8.98-2.37,1.07.09,3.08,3.23,5.26,3.77,5.37,1.34,7.85-1.42,10.65-1.53,2.32-.09,4.52,2.99,6.01,2.93,1.4-.06,3.23-2.29,4.8-2.41,2.27-.17,6.26,2.96,9.7.31,2.7,8.02,4.2,3.27,10.03,2.52,6.94-6.46,13.25-5.79,21.11-6.83,2.61-.35,6.05-3.31,7.46-3.47,1.4-.16,2.69,1.71,4.28,1.93,1.81.25,3.73-1.12,5.11-.7,2.12.64,4.1,7.63,8.14,2.1l.51-4.49c5.9-.34,14.9-5.18,20.19-2.88,12.41,5.4,11.21,2.02,22.99,2.71,3.04.18,5.4,2.3,7.93,2.37,2.24.06,4.08-1.63,6.12-1.52,2.57.14,4.54,2.56,6.26,2.76,4.19.5,18.01-.42,22.3-1.17,2.69-.47,2.96-3.76,6.36-3.88,3.58-.12,8.47,4.14,11.49,4.47,2.16.23,3.55-1.71,5.36-1.8,4.5-.22,12.1,1.69,17.73,1.58,4.82-.09,12.43-2.31,16.2-2.31,1.91,0,3.68,3.51,6.01,3.98,2.4.49,4.68-.86,7.07-.86,1.48,0,7.47,2.65,7.55-.17.08-3.11-6.92-3.78-6.97-4.23-.39-3.78,2.56-3.63,5.03-3.42,6.4.54,4.9,6.39,6.98,7.25,1.18.49,14.29-2.04,18.64-1.39,6.57.98,6.92,4.8,13.44-2.44,2.1-2.33.98-5.28,5.54-5.86,1.67-.21,7.24.67,8.33,1.71,1.27,1.21.29,4.38,2.05,5.59,2.35.64,3.97-3.64,4.74-3.86,3.26-.91,7.19,1.52,9.52,1.3,1.39-.13,2.36-1.79,3.72-1.91,2.35-.21,3.53,2.68,5.35,3.04,3.23.64,12.26-.6,15.23-2.62.8-.55,1.15-3.24,2.7-3.53l4.7,1.6,2.85-4.46c2.2-.23,2.41,2.54,4.79,3.13,2.06.51,14.34.85,15.16-.44l1.4-5.59c2.95.18,6.82-1.19,9.44-1.12,8.56.22,17.4.56,25.82.8,8.79.25,16.96,1.51,25.54,3.74l.35,5.13c7.44-2.44,15.07,2.17,21.8,2.6,8.65.55,18.48.54,26.63,0,2.2-.14,5.93-.23,7.99.16,4.51.87,4.83,5.19,11.51,2.49,1.72-.7,2.85-2.77,4.52-2.98,2.65-.33,3.57,1.96,5.16,2.11.48.05,5.58-.56,5.8-.78.63-.66-.99-6.11,4.22-4.85,2.89.7,2.52,6.15,4.65,7.71,2.09,1.53,4.49-.26,6.68-.29,5.34-.06,11.49.36,16.71-1.48,1.27-.45,1.08-3.18,2.98-2.96l5.1,4.17c2.45-2.24,4.28-5.02,7.83-4.69.57-.66-4.86-8.23,1.57-8.02,4.86.16,6.3,6.43,9.94,7.95,6.01,2.5,17.83,6.03,23.95,4.77,3.25-.67,6.18-4.26,7.69-4.37,2.79-.2,9.31,7.26,14.8,5.6.47-.14.97-5.66,6.45-4.87,3.38.49,2.5,5.25,4.38,6.03.62.26,9.48,1.57,10.49,1.53,4.45-.18,5.33-4.08,7.48-4.68,3.24-.91,5.17,2.14,10.5-.82,6.42-3.57,2.86-6.27,4.81-10.82,1.5-3.49,7.31-5.95,8.35-1.03.66,3.12-3.76,5.26.78,7.81,2.85,1.6,5.05-.9,7.34-.13,1.29.44,2.01,2.6,3.26,3.4,5.49,3.53,6.72-.08,11.03-.18,5.26-.13,6.79,3.86,13.98,1.3,1.49-.53,2.26-2.56,3.91-2.68,2.27-.16,6.34,4.31,8.75,4.33,1.71.02,2.5-2.55,4.55-2.86,3.28-.5,6.25,2.16,8.9,2.29,2.04.1,2.94-1.72,4.33-1.76,1.27-.03,2.72,1.27,4.42,1.09,1.84-.19,4.26-3.61,6.68-4.53,4.62-1.77,10.75-.9,14.98-3.48,3.46,1.83,9.63,8.79,13.04,9.05,1.87.14,3.4-2.35,5.45-2.73,3.65-.68,6.59,1.12,9.61,1.15,4.99.06,16.64-3.35,21.98-4.76,1.89-.5,3.79-.32,5.7-.21l1.63-3.99c2.28-.52,3.56,2.39,5.65,2.25,1.77-.12,2.52-2.34,3.86-2.75.57-.17,10.96-1.82,11.55-1.83,2.47,0,3.98,3.05,8.67,2.23,3.1-.54,10.44-4.4,12.72-4.54,8.17-.52,8.04,1.5,17.12-2.18,5.35-2.17,6.4.67,10.49.98,3.28.25,8.27-1.83,11.55-1.66,2.5.13,3.58,1.82,4.51,1.94,4.17.55,9.77-.02,12.85-3.77-6.33-5.98-1.24-6.74,2.95-9.97,2.11-1.63,3.04-4.44,5.93-4.31,2.24.1,4.56,2.74,6.28-.8.59-1.2.2-3.29,1.12-4.02,1.49-1.18,6.05-.53,8.41-1.11,2.51-.62,8.67-4.03,11.93-5.39,7.19-3,3.6-15.06,6.35-21.44,3.5-8.13,9.08-5.66,10.84-7.75,1.92-2.27,2.29-9.6-.07-12.01l4.52-.29,1.83-5.11,8.03,2.35c.07.07.12.14.17.21,2.03-1.14,4.15-2.1,6.19-2.89,1.35-1.98,3.63-4.95,4.12-5.46,1.73-1.79,4.58.44,3.04-6.18-.47-2.01-2.57-3.68-2.95-5.57ZM1172.85,953.94c3.58-.91,3.85,4.99,1.35,5.82-4.61,1.51-4.93-4.9-1.35-5.82ZM1088.22,1183.49c-.86,2.85-4.13,4.25-3.86-.4.21-3.52.38-9.1,4.3-7.88-.29,2.59.29,5.83-.45,8.28Z"/>
    <path d="M868.12,330.42c.15-1.11.38-2.31.72-3.46-.56-1.05-1.14-2.06-1.7-3.07-2.04,1.21-4.27,1.95-6.53,2.2,2.26,2.18,4.59,4.25,6.05,4.57.47.1.94.12,1.4.11.02-.11.03-.23.06-.34Z"/>
    <path d="M844.2,311.52c-1.06.18-2.13.38-3.19.59,1.81,2.54,4.08,6.83,6.05,8.3-2.25-2.78-3.1-5.86-2.86-8.89Z"/>
    <path d="M834.36,300.51c-3.85.14-7.71-.19-11.53.46-.04.54.17,1.1.82,1.73,2.13,1.58,4.79-1.29,7.82.39.21.11,1.56,1.31,3.14,2.74.44-1.5.17-3.39-.24-5.31Z"/>
    <path d="M1163.52,378.02c.02-.06.06-.16.1-.28-2.27-.63-7.43-2.36-8.9-2.83-2.79-.89-4.46-3.99-3.49-6.66,1.14-3.13,2.67-5.85,4.73-8.33l-1-3.18c-4.68,2-1.12,14.01-7.71,10.63-4.02-2.06-2.06-7.79-11.16-10.26-1-.27-2.62.63-3.98.26-2.21-.59-8.57-6.8-9.41-8.97-1.75-4.55.05-7.37-6.27-10.64-2.75-1.42-4.89-.91-7.07-1.94-3.91-1.85-10.84-14.09-18.91-17.8-2.54-1.17-5.29-.51-7.98-2.16-2.96-1.82-2.46-5.46-5.17-7.58-2.85-2.23-6.55-3.64-10.66-6.86-3.95-3.09-13.23-8.39-15.9-11.38-5.95-6.67-3.69-5.26-11.51-11.14-2.56-1.93-5.32-7.57-6.68-8.28-1.99-1.03-4.48-.39-6.53-1.4-5.5-2.72.1-2.53-9.24-3.25-4.78-.37-6.82-6.5-9.85-9.38-3.05-2.9-8.35-8.31-10.99-10.59-2.63-2.27-7.5-2.68-10.17-4.28-5.43-3.26-3.01-3.29-11-6.57-8.04-3.3-13.39-9.25-20.89-12.09-4.58-1.73-11.93-2.08-15.68-4.55-2.39-1.57-3.85-5.68-7.08-7.94-8.4-5.89-23.27-9.49-31.75-14.29-.32-.18-4.4-3.89-5.5-4.77-6.41-5.14-13.3-10.86-19.73-16.09-3.97-3.23-10.28-2.48-14.38-5.67l-1.07-1.12,1.79-2.55-1-2.12c-11.28,5.72-18.01-6.76-26.34-12.39-8.47-.69-9.63-5.21-13.83-8.15-2.21-1.54-6.66-2.1-9.71-3.67-4.21-2.18-8-7.55-10.75-8.79-3.34-1.51-6.89-2.82-10.19-4.26-4.87-2.11-10.15-1.74-12.99-6.87-.91-1.63-.83-4.49-1-4.66-.35-.35-2.58.79-3.71.56-2.22-.46-18.27-6.01-19.64-7.01-2.3-1.68-2.05-4.44-3.51-6-.82-.88-12.27-11.37-13.03-11.84-2.61-1.61-5.77-1.34-8.46-2.74-2.36-1.23-3.48-3.96-5.6-5.21-1.94-1.14-4.56-1.13-5.89-2.02-1.15-.77.66-2.78-1.17-4.87-2.04-2.34-4.58-1.94-6.62-3.39-1.76-1.25-2.35-4.22-3.53-5.02-2.23-1.52-6.81,1.04-11.01-.5-.59-.22-8.69-6.4-9.99-7.44-6-4.82-16.01-14.32-23.53-16.84-4.29-1.44-10.68,1.26-13.07-3.54,6.85-12.94-6.37-7.62-11.22-8.76-2.29-.54-2.84-4.64-5.94-4.28l-.31,5.77c-3.3,1.98-4.91-2.71-6.9-4.09-1.95-1.35-4.47-1.01-5.93-2.92l5.49-1.35-1.42-5.21c-2.88-1.04-4.77,1.55-5.48,1.51-.74-.04-1.77-2.3-3.38-2.87-3.17-1.13-8.48-.96-11.47-2.15-2.48-.99-6.59-5.92-11-6.66-2.58-.44-5,1.11-7.55.66-.63-.11-9.9-3.4-11.74-4.02-2.02-.68-3.01-3.72-4.57-4.09-1.3-.31-3.52,1.46-5.48,1.61-9.02.72-21.73.94-30.77.59-5.33-.21-10.37-3.08-15.78-3.05l-1.4,6.84c-6.36,1.46-16.02.18-21.9,2.19-5.67,1.93-9.96,13.93-17.08,17.31-3.2,1.52-10.94.38-12.56,1.61-.58.44-.56,2.52-1.46,3.39-1.84,1.76-4.38,2.41-5.79,3.86-3.23,3.34-8.63,13.52-11.72,15.26-3.7,2.08-11,2.37-14.88,4.11-2.03.91-2.15,3-3.95,3.56-4.85,1.53-6.67-1.57-6.23,7.25-3.75.78-6.13-3.84-9.79-2.15-1.65.76-4.21,4.72-8.39,6.63-3.32,1.52-11.02,2.57-13.02,3.88-2.8,1.82-4.51,9.36-10.23,12.41-7.17,3.81-8.94-.14-12.82.67-2.27.48-2.66,3.3-4.38,4.3-2.53,1.48-9.65,1.76-11.11,2.62-1.1.64-.72,2.71-1.99,3.67-5.9,4.46-18.62,4.59-24.02,11.92l1.42,4.67c-2.55,4.07-6.98,1.91-10.25,3.61-3.12,1.63-2.65,5.9-4.06,6.77-1.09.68-8.83.28-10.58-.06-5.3-1.03-8.2-5.53-13.75,1.3l5.43,1.37c.58,6.73-8.08,7.06-10.11,9.2-1.03,1.09-.81,4.41-2.75,5.4-4.21,2.14-17.19-3.38-15.92,8.01-11.38-2.99-13.62,10.73-19.34,13.3-2.86,1.28-5.9-1.78-7.73-.56-1.17.78-1.47,4.38-2.6,6.15-.42.66-7.97,8.41-8.51,8.71-3.6,2.03-6.04-1.71-8.48.98-1.67,1.84.13,3.43-.35,5.08-.62,2.1-2.44,2.91-4.79,3.18.85.53,1.66,1.07,2.42,1.65,2.91,2.23,2.08,6.89-1.39,8.07-3.62,1.23-7.45,1.25-11.22,1.46-3.2.18-5.62.23-5.88,3.89-.21,3.02-2.86,4.76-5.7,4.09-.11-.03-3.39-.58-5.2-.89-.12,2.51-1.69,5.57-2.98,7.39-3.54,4.98-8.12,5.96-13.06,6.11-.49,2.21-2.75,4.03-5.58,3.52-.18.16-.26.22-.44.38.04,2.41-2.28,4.31-4.59,4.37-3.13.08-4.8,5.22-7.4,6.88-3.96,2.53-8.39,2.06-12.75,2.41.07,1.97-.08,3.94-.2,6-.16,2.61-2.96,5.28-5.7,4.09-1.61-.7-3.32-.95-5.03-1.23-1.23,2.94-3.18,5.1-6.25,7.04-1.36.86-2.69,1.64-3.26,3.28-.72,2.05-.12,4.45-.88,6.58-1.26,3.56-4.47,5.78-8,6.42.68,1.11,1.27,2.33,1.72,3.7.94,2.9-1.78,5.41-4.42,5.47-9.03.21-18.5-1.08-27.55.13,1.65,2.53,2.96,5.23,2.7,8.23-.23,2.64-1.71,5.37-4.17,6.46-2.55,1.14-4.05-.11-6.46-.51-2.32-.39-5.11,1.55-7.22,2.89.72.76,1.4,1.59,2.04,2.47,1.62,2.23,1.64,5.48-1.11,6.93-2.36,1.25-4.82,1.63-7.29,1.97.83.85,1.71,1.67,2.65,2.46,2.99,2.52.17,7.69-3.35,7.46-5.71-.37-10.3,3.41-15.36,5.77-1.34,1.5-2.83,2.83-4.38,3.81.4,1.06.76,2.06,1.04,2.98,1.88,6.17,2.24,12.13-.15,17.12.85,2.89.86,5.97.06,8.75,1.64-.05,3.29.15,4.87.66,5.47,1.76,6.91,6.97,5.32,11.85-.48,1.46-1.17,2.87-1.9,4.24.41.02.81.08,1.21.18,4.34,1.1,9.4,3.92,7.73,9.02-.79,2.42-3.01,3.8-5.42,4.74-1.39,4.21-3.74,7.99-6.81,11.01,2.65.1,5.21,1.91,5.24,5.35.06,5.61-2.05,11.01-5.7,14.54,1.97-.06,3.94.04,5.91.56,4.38,1.17,4.47,6.18,1.95,8.91-.93,1-2.01,1.99-3.03,3.04,5.4-1.34,8.95-5.23,7.82-12.37-.59-3.72,1.96-6.1,5.64-6.36,4.3-.31,9.66-.34,12.7,3.18,2.34,2.71,2.08,6.06.69,9,.59.42,1.12.99,1.57,1.72,1.97,3.18,4.35,6.07,6.81,8.92,7.35-.18,15.36,1.72,22.22,1.03,2.21-.22,4.47-.55,6.74-.9.73-.7,1.47-1.4,2.28-2.02,6.32-4.82,15.39-3.08,22.44-.72,3.32,1.11,6.43,2.59,9.46,4.23.77-1.15,2.04-1.94,3.66-1.84.68.04,1.35.11,2.01.2.39-.39.86-.72,1.37-.96,1.27-2.09,2.72-3.93,4.55-5.27.29-.7.58-1.36.91-1.88.72-1.16,1.6-2.18,2.6-3.05.17-2.24,2.26-4.43,4.55-4.15,1.81.22,4.41-.86,7.17-1.98.04-.05.07-.1.11-.16,1.58-2.45,2.33-4.99,5.27-5.9.39-.48.86-.95,1.4-1.4.77-.64,1.73-1.17,2.77-1.66.43-1.04.9-2.03,1.49-2.93,2.71-4.1,6.74-5.64,11.28-4.81,2.46-.72,5.1-.87,7.63-.74.44.02,1.49.25,2.4.37.42-.27.89-.43,1.38-.49.19-.1.39-.19.6-.26.56-1.26.85-3.6,1.07-4.37.97-3.4,4.64-4.08,7.44-2.75.33.16.64.34.93.52.25.02.49.06.73.11.02-.03.03-.06.05-.09.87-1.44,1.86-2.64,2.95-3.63-.1-2.4,1.56-4.73,4.4-4.63,2.34.08,4.42.38,6.53,1.05.62-1.09,1.15-2.32,1.37-2.77,1.6-3.28,2.65-6.81,3.74-10.28.39-1.24,1.29-2.18,2.39-2.68.46-.8,1.03-1.56,1.75-2.25,2.02-1.94,4.77-2.91,7.32-2.56.16-.18.32-.35.49-.52,2.97-2.95,6.52-3.49,10.24-3.45.89-1.43,2.48-2.39,4.37-2.38.79,0,1.56.05,2.32.14-.04-.22-.07-.45-.12-.67-.83-3.76,3.74-7.04,6.72-4.79.07-.61.27-1.22.67-1.78,3.22-4.54,2.34-11.85,7.86-11.89.4,0,.79.06,1.16.18.61-1.62,1.07-3.33,1.34-5.18.42-2.97,3.28-4.61,5.64-4.11.81-2.2,1.74-4.38,2.34-6.6.59-2.2,2.79-3.45,4.94-3.51,4.1-.13,8.23-.42,10.37,3.62,2.41-.86,4.75-1.87,7.31-2.2.44-.06.92-.05,1.39,0,1.59-2.8-3.81-10.78-.38-12.05,3.24-1.2,6.55-2.27,9.82-3.37,3.94-1.33,4.48-1.14,4.07-5.54-.5-5.45,7.18-5.11,8.68-.87.24.09.34.13.57.22,1.02-.63,1.71-1.08,1.84-1.22,4.07-4.31.18-9.82,11.44-6.9,3.22-2.98,6.45-5.95,9.65-8.96.94-.89,1.98-1.24,2.98-1.2.3-.74.64-1.35,1.12-1.61,1.45-.79,3.95.08,5.58-.71,1.31-.64,2.22-4.08,4.11-5.61,1.98-1.6,6.13-2.06,7.36-3.25,1.56-1.51.96-4.22,2.44-5.17.99-.63,3.19-.2,4.4-.86,1.69-.93,10.43-5.72,10.93-6.11,2.12-1.67,1.25-4.09,2.08-5,2.58-2.8,20.59-1.01,19.06-10.75l9.43-.49,1.88-6.33c2.3-.08,4.12,1.8,6.5.93,1.75-.64,9.46-6.75,12.16-8.22,1.9-1.04,4.41-.72,6.6-1.84,1.99-1.02,4.45-4.82,6.32-5.47,2.21-.76,4.63.08,6.63-.7,1.9-.74,3.24-4.94,5.85-5.98,2.84-1.13,10.45-1.22,12.86-2.94,2.25-1.61,1.24-4.82,2.93-6.86.27-.32,6.56-4.67,6.96-4.82,3.3-1.25,5.5,1.15,7.62.45,3.71-1.23,11.33-12.88,15-13.93,1.66-.47,4.52,1.68,6.71.39,2.77-1.63.08-6.28.34-8.49.47-3.87,4.58-1.6,6.53-2.51.62-.29,14.72,6.62,16.54,6.14,4.74,8.73,9.64,6.97,11.56-2.13,2.69-3.15,7.71.88,10.72,1.98,4.83,1.76,10.82,3.08,15.48,4.72,3.46,1.22,5.57,6.17,8.39,7.81,5.81,3.38,11.8.32,11.66,9.52,3.65.46,6.5-.05,9.61,2.25,2.65,1.96,4.78,8.74,5.22,9.03,1.15.75,9.88,1.29,12.28,1.96,3.66,1.03,6.47,4.89,11.83,3.86l2.45,6.91c5.94.96,11.11.72,16.42,3.98l.71,5.3c4.03,1.79,7.92,3.77,11.68,6.02,9.15,5.47,17.08,11.84,26.2,17.55,9.98,6.25,20.37,12.49,30.1,19.12,5.43,1.11,10.31,4.05,14.95,7.5,3.18-3.63,8.98-4.34,14.24-1.62,0,0,.01,0,.02,0,.05-.28.18-.52.4-.71,2.41-2.08,10.7,5.4,8.89,8.56,1.97,2.24,3.38,5.19,4.2,7.89l5.91-1.74c-.13,2.93-4.16,4.02-4.64,6.18,2.19.68,4.36,1.3,6.42,2.4,1.82.98,3.47,2.24,5.2,3.36,1.22-.27,2.45-.53,3.73-.53,1.99,0,6.98.8,10.62,2.35,5.19-.75,10.43.13,15.58-.76,2.91-.51,5.25,1.51,5.38,4.46.09,1.95.61,3.8.98,5.64,2.95-.41,5.88-.94,8.46-2.37,5.02-2.78,8.92,4.77,4.19,7.79-3.07,1.97-4.5,4.36-.91,6.51,3.73,2.23,7.59.71,10.27-2.3,2.27-2.56,6.54-.83,7.28,2.19.8,3.28,3.19,5.59,4.67,8.6.43.88.55,1.78.42,2.62,1.67,1.6,2.31,2.21,3.98,3.81,1.17-.2,2.36-.24,3.62.4.62.31,1.2.78,1.74,1.34,1.63.05,3.26.13,4.89.28.63-2.17,2.85-3.7,5.45-3.04,5.1,1.29,8.99,3.74,11.53,7.45,1.36-.52,2.98-.46,4.09.3,5.21,3.53,8.46,8.23,12.38,13,4.34,5.29,9.65,5.08,16.03,3.77,1.79-.37,4.11.37,4.9,2.2.93,2.17,1.7,4.4,2.53,6.61,5.07-.72,10.37.3,13.81,4.51,1.34,1.63,2.2,3.8,2.62,6.13,4.32,3.36,8.26,7.37,12.79,10.15.37.01.78.1,1.21.3.07.07.06.21,0,.41.57.31-.73.74-2.84,1.21,1.87,2.52,3.05,5.5,4.13,8.47.03.02.06.04.09.06,5.16,3.47,7.26,8.03,7.36,12.96,1.53,1.57,3.27,3.05,5.27,4.55,6.42,4.81,11.94,9.65,15.71,16.87.69,1.33.75,2.6.39,3.71.64.37,1.33.74,2.11,1.14,1.8.92,5.07.56,5.98,1.93.71,1.07-.8,2.67-.62,3.58.25,1.22,2.38,1.82,3.4,3.04,1.8,2.15-.95,4.19,7.03,3.42l-1.38,5.18c3.76-.9,6.04,2.66,8.33,3.37,2.79.86,6.01-.28,8.53,1.68,1.19.92,1.93,3.67,3.44,5.06.1.09.2.17.3.26.72.15,1.45.29,2.2.4,5.42.79,10.91.54,16.33,1.18,6.62.77,14.88,5.24,22.2,5.67-1.04-1.82-1.94-3.82-2.79-5.83-1.8-2.55-3.25-5.28-3.74-8.52-.88-5.76,7.27-9.01,10.24-3.51,1.24,2.31,2.09,4.76,2.99,7.19.41.62.85,1.22,1.32,1.82,1.02-.05,2.15.18,3.31.8.93.49,1.75,1.07,2.51,1.7,2.25,1.29,4.61,1.96,7.2,2.01.21-1.14.41-2.29.54-3.45.43-3.87,4.87-6.42,8.49-4.09,1.45.93,2.68,2.01,3.72,3.18,1.37-6.66,27.83-14.74,33.31-18.67,2.24-1.61,5.8-1.96,7.75.42,2.55,3.11,3.15,6.4,2.44,9.75.35.47.66,1,.89,1.62.99,2.7,3.14,5.27,5.68,6.53-2.62-3.85-3.57-9.45-3.29-14.76-.4-2.54-.41-5.04.03-7.34-1.06-5.81-1.18-12.27,3.04-16.29,2.18-2.08,4.75-2.94,7.22-2.85.02-.11.01-.08.03-.19-4.64-1.82-4.59-8.59-.13-9.91-.25-5.81.51-11.59,3.81-16.15-5.36-6.87-3.25-15.12.05-23.83.85-2.23,1.62-4.48,2.42-6.71ZM346.53,273.62l6.35,1.55-.06,4.05c-3.78.37-7.07-1.59-6.29-5.59Z"/>
    <path d="M952.4,381.09c-.6-1.05-.73-2.14-.54-3.15-.92.21-1.81.49-2.57.76-.28.1-.58.13-.89.15-.14.26-.29.52-.48.77l.9,1.36c1.9.04,3.18.51,4.22,1.18-.21-.35-.43-.69-.64-1.06Z"/>
    <path d="M912.38,352.93c1.69,1.09,3.21,2.2,4.71,3.3-1.15-1.63-2.3-3.25-3.59-4.76-.36.51-.74.99-1.12,1.46Z"/>
    <path d="M902.47,344.17c-1.15,1.08-2.72,1.63-4.13.94-.22-.11-.4-.24-.6-.36-1.26-.25-2.52-.44-3.78-.61.85,1.37,1.74,2.46,2.73,2.98,2.39,1.26,5.18.57,7.66,1.55-.42-1.87-1.03-3.33-1.88-4.51Z"/>
  </g>
</svg>