<?xml version="1.0" encoding="UTF-8"?>
<svg id="Layer_1" data-name="Layer 1" xmlns="http://www.w3.org/2000/svg" viewBox="0 0 566.93 566.93">
  <defs>
    <style>
      .cls-1 {
        fill: #231f20;
      }
    </style>
  </defs>
  <rect x="217.97" y="141.02" width="105.83" height="12.51" transform="translate(-.16 .29) rotate(-.06)"/>
  <path class="cls-1" d="M279.3,141h-16.83l-38.23,105.38h15.63l10.68-31.55h40.63l10.72,31.55h15.63l-38.23-105.38ZM255.16,203.2l15.73-45.81,15.73,45.81h-31.45Z"/>
  <path d="M278.76,316.92h-14.34l30.92,85.22-36.68.03.03,11.49,40.82-.03,15.44-.03,40.88-.03-.03-11.49-36.68.03,30.92-85.19h-14.34l-9.81,28.96h-37.29l-9.84-28.96ZM321.66,356.54l-14.43,42.04-14.43-42.04h28.87Z"/>
  <path d="M258.37,413.34h14.34l-30.92-85.22,36.68-.03-.03-11.49-40.82.03-15.44.03-40.88.03.03,11.49,36.68-.03-30.92,85.19h14.34l9.81-28.96h37.29l9.84,28.96ZM215.47,373.72l14.43-42.04,14.43,42.04h-28.87Z"/>
</svg>