<?xml version="1.0" encoding="UTF-8"?>
<svg id="Layer_1" data-name="Layer 1" xmlns="http://www.w3.org/2000/svg" viewBox="0 0 566.93 566.93">
  <path d="M107.37,57.36l-27.56.02L103.04-6.62h-10.77l-7.37,21.76h-28.02l-7.39-21.76h-.25v-.23l-30.67.02-11.6.02-25.38.93.02,8.63L3.84,1.82l-23.23,64h10.77L-1.25,44.07h28.02l7.39,21.76h.25v.23l30.67-.02,11.6-.02,30.71-.02-.02-8.63ZM1.92,36.06L12.77,4.47l10.84,31.59H1.92ZM41.87,57.43L21.7,1.8l20.08-.02,20.17,55.62-20.08.02ZM70.88,54.73l-10.84-31.59h21.69l-10.84,31.59Z"/>
  <path d="M223.71,57.36l-27.56.02L219.38-6.62h-10.77l-7.37,21.76h-28.02l-7.39-21.76h-.25v-.23l-30.67.02-11.6.02-30.71.02.02,8.63,27.56-.02-23.23,64h10.77l7.37-21.76h28.02l7.39,21.76h.25v.23l30.67-.02,11.6-.02,30.71-.02-.02-8.63ZM118.27,36.06l10.84-31.59,10.84,31.59h-21.69ZM158.21,57.43L138.04,1.8l20.08-.02,20.17,55.62-20.08.02ZM187.22,54.73l-10.84-31.59h21.69l-10.84,31.59Z"/>
  <path d="M340.81,57.36l-27.56.02,23.23-64h-10.77l-7.37,21.76h-28.02l-7.39-21.76h-.25v-.23l-30.67.02-11.6.02-30.71.02.02,8.63,27.56-.02-23.23,64h10.77l7.37-21.76h28.02l7.39,21.76h.25v.23l30.67-.02,11.6-.02,30.71-.02-.02-8.63ZM235.37,36.06l10.84-31.59,10.84,31.59h-21.69ZM275.31,57.43L255.14,1.8l20.08-.02,20.17,55.62-20.08.02ZM304.32,54.73l-10.84-31.59h21.69l-10.84,31.59Z"/>
  <path d="M456.9,57.36l-27.56.02,23.23-64h-10.77l-7.37,21.76h-28.02l-7.39-21.76h-.25v-.23l-30.67.02-11.6.02-30.71.02.02,8.63,27.56-.02-23.23,64h10.77l7.37-21.76h28.02l7.39,21.76h.25v.23l30.67-.02,11.6-.02,30.71-.02-.02-8.63ZM351.46,36.06l10.84-31.59,10.84,31.59h-21.69ZM391.4,57.43L371.23,1.8l20.08-.02,20.17,55.62-20.08.02ZM420.41,54.73l-10.84-31.59h21.69l-10.84,31.59Z"/>
  <path d="M574,57.36l-27.56.02,23.23-64h-10.77l-7.37,21.76h-28.02l-7.39-21.76h-.25v-.23l-30.67.02-11.6.02-30.71.02.02,8.63,27.56-.02-23.23,64h10.77l7.37-21.76h28.02l7.39,21.76h.25v.23l30.67-.02,11.6-.02,30.71-.02-.02-8.63ZM468.56,36.06l10.84-31.59,10.84,31.59h-21.69ZM508.5,57.43L488.33,1.8l20.08-.02,20.17,55.62-20.08.02ZM537.51,54.73l-10.84-31.59h21.69l-10.84,31.59Z"/>
  <path d="M117.77,121.52l-27.56.02,23.23-64h-10.77l-7.37,21.76h-28.02l-7.39-21.76h-.25v-.23l-30.67.02-11.6.02-30.71.02.02,8.63,27.56-.02-23.23,64H1.77l7.37-21.76h28.02l7.39,21.76h.25v.23l30.67-.02,11.6-.02,30.71-.02-.02-8.63ZM12.32,100.22l10.84-31.59,10.84,31.59H12.32ZM52.26,121.59l-20.17-55.62,20.08-.02,20.17,55.62-20.08.02ZM81.27,118.89l-10.84-31.59h21.69l-10.84,31.59Z"/>
  <path d="M234.11,121.52l-27.56.02,23.23-64h-10.77l-7.37,21.76h-28.02l-7.39-21.76h-.25v-.23l-30.67.02-11.6.02-30.71.02.02,8.63,27.56-.02-23.23,64h10.77l7.37-21.76h28.02l7.39,21.76h.25v.23l30.67-.02,11.6-.02,30.71-.02-.02-8.63ZM128.66,100.22l10.84-31.59,10.84,31.59h-21.69ZM168.61,121.59l-20.17-55.62,20.08-.02,20.17,55.62-20.08.02ZM197.61,118.89l-10.84-31.59h21.69l-10.84,31.59Z"/>
  <path d="M351.21,121.52l-27.56.02,23.23-64h-10.77l-7.37,21.76h-28.02l-7.39-21.76h-.25v-.23l-30.67.02-11.6.02-30.71.02.02,8.63,27.56-.02-23.23,64h10.77l7.37-21.76h28.02l7.39,21.76h.25v.23l30.67-.02,11.6-.02,30.71-.02-.02-8.63ZM245.76,100.22l10.84-31.59,10.84,31.59h-21.69ZM285.71,121.59l-20.17-55.62,20.08-.02,20.17,55.62-20.08.02ZM314.72,118.89l-10.84-31.59h21.69l-10.84,31.59Z"/>
  <path d="M467.3,121.52l-27.56.02,23.23-64h-10.77l-7.37,21.76h-28.02l-7.39-21.76h-.25v-.23l-30.67.02-11.6.02-30.71.02.02,8.63,27.56-.02-23.23,64h10.77l7.37-21.76h28.02l7.39,21.76h.25v.23l30.67-.02,11.6-.02,30.71-.02-.02-8.63ZM361.85,100.22l10.84-31.59,10.84,31.59h-21.69ZM401.79,121.59l-20.17-55.62,20.08-.02,20.17,55.62-20.08.02ZM430.8,118.89l-10.84-31.59h21.69l-10.84,31.59Z"/>
  <path d="M584.4,121.52l-27.56.02,23.23-64h-10.77l-7.37,21.76h-28.02l-7.39-21.76h-.25v-.23l-30.67.02-11.6.02-30.71.02.02,8.63,27.56-.02-23.23,64h10.77l7.37-21.76h28.02l7.39,21.76h.25v.23l30.67-.02,11.6-.02,30.71-.02-.02-8.63ZM478.95,100.22l10.84-31.59,10.84,31.59h-21.69ZM518.9,121.59l-20.17-55.62,20.08-.02,20.17,55.62-20.08.02ZM547.91,118.89l-10.84-31.59h21.69l-10.84,31.59Z"/>
  <path d="M108.69,185.5l-27.56.02,23.23-64h-10.77l-7.37,21.76h-28.02l-7.39-21.76h-.25v-.23l-30.67.02-11.6.02-26.69-.05.02,8.63,23.54.05-23.23,64H-7.3L.07,172.22h28.02l7.39,21.76h.25v.23l30.67-.02,11.6-.02,30.71-.02-.02-8.63ZM3.25,164.21l10.84-31.59,10.84,31.59H3.25ZM43.19,185.57l-20.17-55.62,20.08-.02,20.17,55.62-20.08.02ZM72.2,182.88l-10.84-31.59h21.69l-10.84,31.59Z"/>
  <path d="M225.03,185.5l-27.56.02,23.23-64h-10.77l-7.37,21.76h-28.02l-7.39-21.76h-.25v-.23l-30.67.02-11.6.02-30.71.02.02,8.63,27.56-.02-23.23,64h10.77l7.37-21.76h28.02l7.39,21.76h.25v.23l30.67-.02,11.6-.02,30.71-.02-.02-8.63ZM119.59,164.21l10.84-31.59,10.84,31.59h-21.69ZM159.53,185.57l-20.17-55.62,20.08-.02,20.17,55.62-20.08.02ZM188.54,182.88l-10.84-31.59h21.69l-10.84,31.59Z"/>
  <path d="M342.14,185.5l-27.56.02,23.23-64h-10.77l-7.37,21.76h-28.02l-7.39-21.76h-.25v-.23l-30.67.02-11.6.02-30.71.02.02,8.63,27.56-.02-23.23,64h10.77l7.37-21.76h28.02l7.39,21.76h.25v.23l30.67-.02,11.6-.02,30.71-.02-.02-8.63ZM236.69,164.21l10.84-31.59,10.84,31.59h-21.69ZM276.63,185.57l-20.17-55.62,20.08-.02,20.17,55.62-20.08.02ZM305.64,182.88l-10.84-31.59h21.69l-10.84,31.59Z"/>
  <path d="M458.22,185.5l-27.56.02,23.23-64h-10.77l-7.37,21.76h-28.02l-7.39-21.76h-.25v-.23l-30.67.02-11.6.02-30.71.02.02,8.63,27.56-.02-23.23,64h10.77l7.37-21.76h28.02l7.39,21.76h.25v.23l30.67-.02,11.6-.02,30.71-.02-.02-8.63ZM352.78,164.21l10.84-31.59,10.84,31.59h-21.69ZM392.72,185.57l-20.17-55.62,20.08-.02,20.17,55.62-20.08.02ZM421.73,182.88l-10.84-31.59h21.69l-10.84,31.59Z"/>
  <path d="M575.32,185.5l-27.56.02,23.23-64h-10.77l-7.37,21.76h-28.02l-7.39-21.76h-.25v-.23l-30.67.02-11.6.02-30.71.02.02,8.63,27.56-.02-23.23,64h10.77l7.37-21.76h28.02l7.39,21.76h.25v.23l30.67-.02,11.6-.02,30.71-.02-.02-8.63ZM469.88,164.21l10.84-31.59,10.84,31.59h-21.69ZM509.82,185.57l-20.17-55.62,20.08-.02,20.17,55.62-20.08.02ZM538.83,182.88l-10.84-31.59h21.69l-10.84,31.59Z"/>
  <path d="M119.09,249.67l-27.56.02,23.23-64h-10.77l-7.37,21.76h-28.02l-7.39-21.76h-.25v-.23l-30.67.02-11.6.02-30.71.02.02,8.63,27.56-.02-23.23,64H3.1l7.37-21.76h28.02l7.39,21.76h.25v.23l30.67-.02,11.6-.02,30.71-.02-.02-8.63ZM13.64,228.37l10.84-31.59,10.84,31.59H13.64ZM53.59,249.74l-20.17-55.62,20.08-.02,20.17,55.62-20.08.02ZM82.59,247.04l-10.84-31.59h21.69l-10.84,31.59Z"/>
  <path d="M235.43,249.67l-27.56.02,23.23-64h-10.77l-7.37,21.76h-28.02l-7.39-21.76h-.25v-.23l-30.67.02-11.6.02-30.71.02.02,8.63,27.56-.02-23.23,64h10.77l7.37-21.76h28.02l7.39,21.76h.25v.23l30.67-.02,11.6-.02,30.71-.02-.02-8.63ZM129.98,228.37l10.84-31.59,10.84,31.59h-21.69ZM169.93,249.74l-20.17-55.62,20.08-.02,20.17,55.62-20.08.02ZM198.94,247.04l-10.84-31.59h21.69l-10.84,31.59Z"/>
  <path d="M352.53,249.67l-27.56.02,23.23-64h-10.77l-7.37,21.76h-28.02l-7.39-21.76h-.25v-.23l-30.67.02-11.6.02-30.71.02.02,8.63,27.56-.02-23.23,64h10.77l7.37-21.76h28.02l7.39,21.76h.25v.23l30.67-.02,11.6-.02,30.71-.02-.02-8.63ZM247.08,228.37l10.84-31.59,10.84,31.59h-21.69ZM287.03,249.74l-20.17-55.62,20.08-.02,20.17,55.62-20.08.02ZM316.04,247.04l-10.84-31.59h21.69l-10.84,31.59Z"/>
  <path d="M468.62,249.67l-27.56.02,23.23-64h-10.77l-7.37,21.76h-28.02l-7.39-21.76h-.25v-.23l-30.67.02-11.6.02-30.71.02.02,8.63,27.56-.02-23.23,64h10.77l7.37-21.76h28.02l7.39,21.76h.25v.23l30.67-.02,11.6-.02,30.71-.02-.02-8.63ZM363.17,228.37l10.84-31.59,10.84,31.59h-21.69ZM403.12,249.74l-20.17-55.62,20.08-.02,20.17,55.62-20.08.02ZM432.13,247.04l-10.84-31.59h21.69l-10.84,31.59Z"/>
  <path d="M585.72,249.67l-27.56.02,23.23-64h-10.77l-7.37,21.76h-28.02l-7.39-21.76h-.25v-.23l-30.67.02-11.6.02-30.71.02.02,8.63,27.56-.02-23.23,64h10.77l7.37-21.76h28.02l7.39,21.76h.25v.23l30.67-.02,11.6-.02,30.71-.02-.02-8.63ZM480.27,228.37l10.84-31.59,10.84,31.59h-21.69ZM520.22,249.74l-20.17-55.62,20.08-.02,20.17,55.62-20.08.02ZM549.23,247.04l-10.84-31.59h21.69l-10.84,31.59Z"/>
  <path d="M111.33,314.31l-27.56.02,23.23-64h-10.77l-7.37,21.76h-28.02l-7.39-21.76h-.25v-.23l-30.67.02-11.6.02-30.71.02.02,8.63,27.56-.02-23.23,64H-4.66l7.37-21.76h28.02l7.39,21.76h.25v.23l30.67-.02,11.6-.02,30.71-.02-.02-8.63ZM5.89,293.01l10.84-31.59,10.84,31.59H5.89ZM45.83,314.38l-20.17-55.62,20.08-.02,20.17,55.62-20.08.02ZM74.84,311.69l-10.84-31.59h21.69l-10.84,31.59Z"/>
  <path d="M227.68,314.31l-27.56.02,23.23-64h-10.77l-7.37,21.76h-28.02l-7.39-21.76h-.25v-.23l-30.67.02-11.6.02-30.71.02.02,8.63,27.56-.02-23.23,64h10.77l7.37-21.76h28.02l7.39,21.76h.25v.23l30.67-.02,11.6-.02,30.71-.02-.02-8.63ZM122.23,293.01l10.84-31.59,10.84,31.59h-21.69ZM162.17,314.38l-20.17-55.62,20.08-.02,20.17,55.62-20.08.02ZM191.18,311.69l-10.84-31.59h21.69l-10.84,31.59Z"/>
  <path d="M344.78,314.31l-27.56.02,23.23-64h-10.77l-7.37,21.76h-28.02l-7.39-21.76h-.25v-.23l-30.67.02-11.6.02-30.71.02.02,8.63,27.56-.02-23.23,64h10.77l7.37-21.76h28.02l7.39,21.76h.25v.23l30.67-.02,11.6-.02,30.71-.02-.02-8.63ZM239.33,293.01l10.84-31.59,10.84,31.59h-21.69ZM279.28,314.38l-20.17-55.62,20.08-.02,20.17,55.62-20.08.02ZM308.29,311.69l-10.84-31.59h21.69l-10.84,31.59Z"/>
  <path d="M460.87,314.31l-27.56.02,23.23-64h-10.77l-7.37,21.76h-28.02l-7.39-21.76h-.25v-.23l-30.67.02-11.6.02-30.71.02.02,8.63,27.56-.02-23.23,64h10.77l7.37-21.76h28.02l7.39,21.76h.25v.23l30.67-.02,11.6-.02,30.71-.02-.02-8.63ZM355.42,293.01l10.84-31.59,10.84,31.59h-21.69ZM395.36,314.38l-20.17-55.62,20.08-.02,20.17,55.62-20.08.02ZM424.37,311.69l-10.84-31.59h21.69l-10.84,31.59Z"/>
  <path d="M577.97,314.31l-27.56.02,23.23-64h-10.77l-7.37,21.76h-28.02l-7.39-21.76h-.25v-.23l-30.67.02-11.6.02-30.71.02.02,8.63,27.56-.02-23.23,64h10.77l7.37-21.76h28.02l7.39,21.76h.25v.23l30.67-.02,11.6-.02,30.71-.02-.02-8.63ZM472.52,293.01l10.84-31.59,10.84,31.59h-21.69ZM512.47,314.38l-20.17-55.62,20.08-.02,20.17,55.62-20.08.02ZM541.47,311.69l-10.84-31.59h21.69l-10.84,31.59Z"/>
  <path d="M121.73,378.47l-27.56.02,23.23-64h-10.77l-7.37,21.76h-28.02l-7.39-21.76h-.25v-.23l-30.67.02-11.6.02-30.71.02.02,8.63,27.56-.02-23.23,64H5.74l7.37-21.76h28.02l7.39,21.76h.25v.23l30.67-.02,11.6-.02,30.71-.02-.02-8.63ZM16.28,357.18l10.84-31.59,10.84,31.59h-21.69ZM56.23,378.54l-20.17-55.62,20.08-.02,20.17,55.62-20.08.02ZM85.24,375.85l-10.84-31.59h21.69l-10.84,31.59Z"/>
  <path d="M238.07,378.47l-27.56.02,23.23-64h-10.77l-7.37,21.76h-28.02l-7.39-21.76h-.25v-.23l-30.67.02-11.6.02-30.71.02.02,8.63,27.56-.02-23.23,64h10.77l7.37-21.76h28.02l7.39,21.76h.25v.23l30.67-.02,11.6-.02,30.71-.02-.02-8.63ZM132.62,357.18l10.84-31.59,10.84,31.59h-21.69ZM172.57,378.54l-20.17-55.62,20.08-.02,20.17,55.62-20.08.02ZM201.58,375.85l-10.84-31.59h21.69l-10.84,31.59Z"/>
  <path d="M355.17,378.47l-27.56.02,23.23-64h-10.77l-7.37,21.76h-28.02l-7.39-21.76h-.25v-.23l-30.67.02-11.6.02-30.71.02.02,8.63,27.56-.02-23.23,64h10.77l7.37-21.76h28.02l7.39,21.76h.25v.23l30.67-.02,11.6-.02,30.71-.02-.02-8.63ZM249.73,357.18l10.84-31.59,10.84,31.59h-21.69ZM289.67,378.54l-20.17-55.62,20.08-.02,20.17,55.62-20.08.02ZM318.68,375.85l-10.84-31.59h21.69l-10.84,31.59Z"/>
  <path d="M471.26,378.47l-27.56.02,23.23-64h-10.77l-7.37,21.76h-28.02l-7.39-21.76h-.25v-.23l-30.67.02-11.6.02-30.71.02.02,8.63,27.56-.02-23.23,64h10.77l7.37-21.76h28.02l7.39,21.76h.25v.23l30.67-.02,11.6-.02,30.71-.02-.02-8.63ZM365.81,357.18l10.84-31.59,10.84,31.59h-21.69ZM405.76,378.54l-20.17-55.62,20.08-.02,20.17,55.62-20.08.02ZM434.77,375.85l-10.84-31.59h21.69l-10.84,31.59Z"/>
  <path d="M588.36,378.47l-27.56.02,23.23-64h-10.77l-7.37,21.76h-28.02l-7.39-21.76h-.25v-.23l-30.67.02-11.6.02-30.71.02.02,8.63,27.56-.02-23.23,64h10.77l7.37-21.76h28.02l7.39,21.76h.25v.23l30.67-.02,11.6-.02,30.71-.02-.02-8.63ZM482.91,357.18l10.84-31.59,10.84,31.59h-21.69ZM522.86,378.54l-20.17-55.62,20.08-.02,20.17,55.62-20.08.02ZM551.87,375.85l-10.84-31.59h21.69l-10.84,31.59Z"/>
  <path d="M112.66,442.46l-27.56.02,23.23-64h-10.77l-7.37,21.76h-28.02l-7.39-21.76h-.25v-.23l-30.67.02-11.6.02-30.71.02.02,8.63,27.56-.02-23.23,64H-3.34l7.37-21.76h28.02l7.39,21.76h.25v.23l30.67-.02,11.6-.02,30.71-.02-.02-8.63ZM7.21,421.16l10.84-31.59,10.84,31.59H7.21ZM47.15,442.53l-20.17-55.62,20.08-.02,20.17,55.62-20.08.02ZM76.16,439.83l-10.84-31.59h21.69l-10.84,31.59Z"/>
  <path d="M229,442.46l-27.56.02,23.23-64h-10.77l-7.37,21.76h-28.02l-7.39-21.76h-.25v-.23l-30.67.02-11.6.02-30.71.02.02,8.63,27.56-.02-23.23,64h10.77l7.37-21.76h28.02l7.39,21.76h.25v.23l30.67-.02,11.6-.02,30.71-.02-.02-8.63ZM123.55,421.16l10.84-31.59,10.84,31.59h-21.69ZM163.5,442.53l-20.17-55.62,20.08-.02,20.17,55.62-20.08.02ZM192.51,439.83l-10.84-31.59h21.69l-10.84,31.59Z"/>
  <path d="M346.1,442.46l-27.56.02,23.23-64h-10.77l-7.37,21.76h-28.02l-7.39-21.76h-.25v-.23l-30.67.02-11.6.02-30.71.02.02,8.63,27.56-.02-23.23,64h10.77l7.37-21.76h28.02l7.39,21.76h.25v.23l30.67-.02,11.6-.02,30.71-.02-.02-8.63ZM240.65,421.16l10.84-31.59,10.84,31.59h-21.69ZM280.6,442.53l-20.17-55.62,20.08-.02,20.17,55.62-20.08.02ZM309.61,439.83l-10.84-31.59h21.69l-10.84,31.59Z"/>
  <path d="M462.19,442.46l-27.56.02,23.23-64h-10.77l-7.37,21.76h-28.02l-7.39-21.76h-.25v-.23l-30.67.02-11.6.02-30.71.02.02,8.63,27.56-.02-23.23,64h10.77l7.37-21.76h28.02l7.39,21.76h.25v.23l30.67-.02,11.6-.02,30.71-.02-.02-8.63ZM356.74,421.16l10.84-31.59,10.84,31.59h-21.69ZM396.69,442.53l-20.17-55.62,20.08-.02,20.17,55.62-20.08.02ZM425.69,439.83l-10.84-31.59h21.69l-10.84,31.59Z"/>
  <path d="M579.29,442.46l-27.56.02,23.23-64h-10.77l-7.37,21.76h-28.02l-7.39-21.76h-.25v-.23l-30.67.02-11.6.02-30.71.02.02,8.63,27.56-.02-23.23,64h10.77l7.37-21.76h28.02l7.39,21.76h.25v.23l30.67-.02,11.6-.02,30.71-.02-.02-8.63ZM473.84,421.16l10.84-31.59,10.84,31.59h-21.69ZM513.79,442.53l-20.17-55.62,20.08-.02,20.17,55.62-20.08.02ZM542.8,439.83l-10.84-31.59h21.69l-10.84,31.59Z"/>
  <path d="M123.05,506.62l-27.56.02,23.23-64h-10.77l-7.37,21.76h-28.02l-7.39-21.76h-.25v-.23l-30.67.02-11.6.02-30.71.02.02,8.63,27.56-.02-23.23,64H7.06l7.37-21.76h28.02l7.39,21.76h.25v.23l30.67-.02,11.6-.02,30.71-.02-.02-8.63ZM17.6,485.32l10.84-31.59,10.84,31.59h-21.69ZM57.55,506.69l-20.17-55.62,20.08-.02,20.17,55.62-20.08.02ZM86.56,504l-10.84-31.59h21.69l-10.84,31.59Z"/>
  <path d="M239.39,506.62l-27.56.02,23.23-64h-10.77l-7.37,21.76h-28.02l-7.39-21.76h-.25v-.23l-30.67.02-11.6.02-30.71.02.02,8.63,27.56-.02-23.23,64h10.77l7.37-21.76h28.02l7.39,21.76h.25v.23l30.67-.02,11.6-.02,30.71-.02-.02-8.63ZM133.94,485.32l10.84-31.59,10.84,31.59h-21.69ZM173.89,506.69l-20.17-55.62,20.08-.02,20.17,55.62-20.08.02ZM202.9,504l-10.84-31.59h21.69l-10.84,31.59Z"/>
  <path d="M356.49,506.62l-27.56.02,23.23-64h-10.77l-7.37,21.76h-28.02l-7.39-21.76h-.25v-.23l-30.67.02-11.6.02-30.71.02.02,8.63,27.56-.02-23.23,64h10.77l7.37-21.76h28.02l7.39,21.76h.25v.23l30.67-.02,11.6-.02,30.71-.02-.02-8.63ZM251.05,485.32l10.84-31.59,10.84,31.59h-21.69ZM290.99,506.69l-20.17-55.62,20.08-.02,20.17,55.62-20.08.02ZM320,504l-10.84-31.59h21.69l-10.84,31.59Z"/>
  <path d="M472.58,506.62l-27.56.02,23.23-64h-10.77l-7.37,21.76h-28.02l-7.39-21.76h-.25v-.23l-30.67.02-11.6.02-30.71.02.02,8.63,27.56-.02-23.23,64h10.77l7.37-21.76h28.02l7.39,21.76h.25v.23l30.67-.02,11.6-.02,30.71-.02-.02-8.63ZM367.13,485.32l10.84-31.59,10.84,31.59h-21.69ZM407.08,506.69l-20.17-55.62,20.08-.02,20.17,55.62-20.08.02ZM436.09,504l-10.84-31.59h21.69l-10.84,31.59Z"/>
  <path d="M589.68,506.62l-27.56.02,23.23-64h-10.77l-7.37,21.76h-28.02l-7.39-21.76h-.25v-.23l-30.67.02-11.6.02-30.71.02.02,8.63,27.56-.02-23.23,64h10.77l7.37-21.76h28.02l7.39,21.76h.25v.23l30.67-.02,11.6-.02,30.71-.02-.02-8.63ZM484.24,485.32l10.84-31.59,10.84,31.59h-21.69ZM524.18,506.69l-20.17-55.62,20.08-.02,20.17,55.62-20.08.02ZM553.19,504l-10.84-31.59h21.69l-10.84,31.59Z"/>
  <path d="M114.46,571.54l-27.56.02,23.23-64h-10.77l-7.37,21.76h-28.02l-7.39-21.76h-.25v-.23l-30.67.02-11.6.02-30.71.02.02,8.63,27.56-.02-23.23,64H-1.53l7.37-21.76h28.02l7.39,21.76h.25v.23l30.67-.02,11.6-.02,30.71-.02-.02-8.63ZM9.01,550.25l10.84-31.59,10.84,31.59H9.01ZM48.96,571.61l-20.17-55.62,20.08-.02,20.17,55.62-20.08.02ZM77.97,568.92l-10.84-31.59h21.69l-10.84,31.59Z"/>
  <path d="M230.8,571.54l-27.56.02,23.23-64h-10.77l-7.37,21.76h-28.02l-7.39-21.76h-.25v-.23l-30.67.02-11.6.02-30.71.02.02,8.63,27.56-.02-23.23,64h10.77l7.37-21.76h28.02l7.39,21.76h.25v.23l30.67-.02,11.6-.02,30.71-.02-.02-8.63ZM125.35,550.25l10.84-31.59,10.84,31.59h-21.69ZM165.3,571.61l-20.17-55.62,20.08-.02,20.17,55.62-20.08.02ZM194.31,568.92l-10.84-31.59h21.69l-10.84,31.59Z"/>
  <path d="M347.9,571.54l-27.56.02,23.23-64h-10.77l-7.37,21.76h-28.02l-7.39-21.76h-.25v-.23l-30.67.02-11.6.02-30.71.02.02,8.63,27.56-.02-23.23,64h10.77l7.37-21.76h28.02l7.39,21.76h.25v.23l30.67-.02,11.6-.02,30.71-.02-.02-8.63ZM242.45,550.25l10.84-31.59,10.84,31.59h-21.69ZM282.4,571.61l-20.17-55.62,20.08-.02,20.17,55.62-20.08.02ZM311.41,568.92l-10.84-31.59h21.69l-10.84,31.59Z"/>
  <path d="M463.99,571.54l-27.56.02,23.23-64h-10.77l-7.37,21.76h-28.02l-7.39-21.76h-.25v-.23l-30.67.02-11.6.02-30.71.02.02,8.63,27.56-.02-23.23,64h10.77l7.37-21.76h28.02l7.39,21.76h.25v.23l30.67-.02,11.6-.02,30.71-.02-.02-8.63ZM358.54,550.25l10.84-31.59,10.84,31.59h-21.69ZM398.49,571.61l-20.17-55.62,20.08-.02,20.17,55.62-20.08.02ZM427.5,568.92l-10.84-31.59h21.69l-10.84,31.59Z"/>
  <path d="M581.09,571.54l-27.56.02,23.23-64h-10.77l-7.37,21.76h-28.02l-7.39-21.76h-.25v-.23l-30.67.02-11.6.02-30.71.02.02,8.63,27.56-.02-23.23,64h10.77l7.37-21.76h28.02l7.39,21.76h.25v.23l30.67-.02,11.6-.02,30.71-.02-.02-8.63ZM475.64,550.25l10.84-31.59,10.84,31.59h-21.69ZM515.59,571.61l-20.17-55.62,20.08-.02,20.17,55.62-20.08.02ZM544.6,568.92l-10.84-31.59h21.69l-10.84,31.59Z"/>
</svg>