<?xml version="1.0" encoding="UTF-8"?>
<svg id="Layer_1" data-name="Layer 1" xmlns="http://www.w3.org/2000/svg" viewBox="0 0 566.93 566.93">
  <defs>
    <style>
      .cls-1 {
        fill: #fff;
      }

      .cls-2 {
        fill: #2b5c59;
      }
    </style>
  </defs>
  <path d="M1.43,378.47l-27.56.02L-2.9,314.49h-10.77l-7.37,21.76h-28.02l-7.39-21.76h-.25v-.23l-30.67.02-11.6.02-30.71.02.02,8.63,27.56-.02-23.23,64h10.77l7.37-21.76h28.02l7.39,21.76h.25v.23l30.67-.02,11.6-.02,30.71-.02-.02-8.63ZM-104.01,357.18l10.84-31.59,10.84,31.59h-21.69ZM-64.07,378.54l-20.17-55.62,20.08-.02,20.17,55.62-20.08.02ZM-35.06,375.85l-10.84-31.59h21.69l-10.84,31.59Z"/>
  <path d="M2.75,506.62l-27.56.02L-1.58,442.64h-10.77l-7.37,21.76h-28.02l-7.39-21.76h-.25v-.23l-30.67.02-11.6.02-30.71.02.02,8.63,27.56-.02-23.23,64h10.77l7.37-21.76h28.02l7.39,21.76h.25v.23l30.67-.02,11.6-.02,30.71-.02-.02-8.63ZM-102.69,485.32l10.84-31.59,10.84,31.59h-21.69ZM-62.75,506.69l-20.17-55.62,20.08-.02,20.17,55.62-20.08.02ZM-33.74,504l-10.84-31.59h21.69l-10.84,31.59Z"/>
  <rect class="cls-1" x="-.06" y=".87" width="568.63" height="569.39"/>
  <g>
    <polygon class="cls-2" points="115.57 189.85 138.68 189.83 150.29 189.8 152.59 189.8 148.09 176.55 120.07 176.55 115.57 189.85"/>
    <polygon class="cls-2" points="123.25 168.54 144.93 168.54 134.09 136.95 123.25 168.54"/>
    <polygon class="cls-2" points="136.28 361.5 157.97 361.5 147.13 329.92 136.28 361.5"/>
    <polygon class="cls-2" points="185.91 318.68 165.74 263.06 145.66 263.08 165.8 318.6 183.59 318.59 183.59 318.69 185.91 318.68"/>
    <polygon class="cls-2" points="223.76 327.28 200.64 327.3 189.04 327.32 186.74 327.32 191.24 340.58 219.26 340.58 223.76 327.28"/>
    <polygon class="cls-2" points="122.71 305.35 118.21 318.65 141.32 318.64 152.93 318.61 155.23 318.61 150.73 305.35 122.71 305.35"/>
    <polygon class="cls-2" points="216.08 348.59 194.39 348.59 205.24 380.18 216.08 348.59"/>
    <polygon class="cls-2" points="153.42 198.44 173.59 254.06 193.66 254.04 173.53 198.52 155.73 198.53 155.73 198.44 153.42 198.44"/>
    <polygon class="cls-2" points="253.38 361.5 275.07 361.5 264.23 329.92 253.38 361.5"/>
    <polygon class="cls-2" points="333.72 211.77 338.22 198.47 315.1 198.49 303.5 198.51 301.19 198.51 305.7 211.77 333.72 211.77"/>
    <polygon class="cls-2" points="320.15 155.62 298.46 155.62 309.3 187.21 320.15 155.62"/>
    <polygon class="cls-2" points="348.75 189.85 371.87 189.83 383.47 189.8 385.78 189.8 381.28 176.55 353.26 176.55 348.75 189.85"/>
    <polygon class="cls-2" points="270.52 198.44 290.69 254.06 310.76 254.04 290.63 198.52 272.83 198.53 272.83 198.44 270.52 198.44"/>
    <polygon class="cls-2" points="216.62 211.77 221.12 198.47 198 198.49 186.4 198.51 184.09 198.51 188.6 211.77 216.62 211.77"/>
    <polygon class="cls-2" points="203.04 155.62 181.36 155.62 192.2 187.21 203.04 155.62"/>
    <polygon class="cls-2" points="240.35 168.54 262.04 168.54 251.19 136.95 240.35 168.54"/>
    <polygon class="cls-2" points="232.67 189.85 255.78 189.83 267.39 189.8 269.69 189.8 265.19 176.55 237.17 176.55 232.67 189.85"/>
    <polygon class="cls-2" points="486.57 361.5 508.26 361.5 497.42 329.92 486.57 361.5"/>
    <polygon class="cls-2" points="434.32 189.85 455.29 189.84 475.45 134.3 472.07 134.3 472.06 134.32 470.98 134.32 470.98 134.48 454.42 134.49 434.32 189.85"/>
    <polygon class="cls-2" points="411.39 147.61 439.41 147.61 443.85 134.5 440.26 134.5 428.66 134.53 406.95 134.54 411.39 147.61"/>
    <polygon class="cls-2" points="423.62 91.63 434.46 123.22 445.31 91.63 423.62 91.63"/>
    <polygon class="cls-2" points="473 305.35 468.5 318.65 491.61 318.64 503.22 318.61 505.52 318.61 501.02 305.35 473 305.35"/>
    <polygon class="cls-2" points="456.95 327.28 433.83 327.3 422.23 327.32 419.92 327.32 424.43 340.58 452.45 340.58 456.95 327.28"/>
    <polygon class="cls-2" points="295.3 147.61 323.32 147.61 327.76 134.5 324.18 134.5 312.57 134.53 290.87 134.54 295.3 147.61"/>
    <polygon class="cls-2" points="318.23 189.85 338.19 189.84 358.35 134.3 354.97 134.3 354.96 134.32 354.89 134.32 354.89 134.48 338.33 134.49 318.23 189.85"/>
    <polygon class="cls-2" points="307.53 91.63 318.37 123.22 329.22 91.63 307.53 91.63"/>
    <polygon class="cls-2" points="355.9 305.35 351.4 318.65 374.51 318.64 386.12 318.61 388.42 318.61 383.92 305.35 355.9 305.35"/>
    <polygon class="cls-2" points="333.18 348.59 311.49 348.59 322.34 380.18 333.18 348.59"/>
    <polygon class="cls-2" points="340.86 327.28 317.75 327.3 306.14 327.32 303.84 327.32 308.34 340.58 336.36 340.58 340.86 327.28"/>
    <polygon class="cls-2" points="449.27 348.59 427.58 348.59 438.43 380.18 449.27 348.59"/>
    <polygon class="cls-2" points="303.01 318.68 282.84 263.06 262.77 263.08 282.9 318.6 300.7 318.59 300.7 318.69 303.01 318.68"/>
    <polygon class="cls-2" points="419.1 318.68 398.93 263.06 378.85 263.08 398.98 318.6 416.78 318.59 416.78 318.69 419.1 318.68"/>
    <polygon class="cls-2" points="369.47 361.5 391.16 361.5 380.32 329.92 369.47 361.5"/>
    <polygon class="cls-2" points="239.81 305.35 235.31 318.65 258.43 318.64 270.03 318.61 272.33 318.61 267.83 305.35 239.81 305.35"/>
    <polygon class="cls-2" points="308.85 219.78 319.7 251.37 330.54 219.78 308.85 219.78"/>
    <polygon class="cls-2" points="244.9 263.11 223.93 263.12 203.78 318.66 224.74 318.64 244.9 263.11"/>
    <polygon class="cls-2" points="133.64 232.7 155.33 232.7 144.48 201.11 133.64 232.7"/>
    <polygon class="cls-2" points="95.19 254.02 115.39 254 135.55 198.46 115.34 198.48 95.19 254.02"/>
    <polygon class="cls-2" points="180.84 276.41 208.86 276.41 213.53 262.65 208.4 262.65 196.79 262.67 176.18 262.69 180.84 276.41"/>
    <polygon class="cls-2" points="107.64 318.64 127.8 263.11 107.59 263.12 87.43 318.66 107.64 318.64"/>
    <polygon class="cls-2" points="191.75 219.78 202.59 251.37 213.44 219.78 191.75 219.78"/>
    <polygon class="cls-2" points="158.48 240.71 130.46 240.71 125.8 254.48 130.93 254.47 142.53 254.45 163.14 254.43 158.48 240.71"/>
    <polygon class="cls-2" points="147.58 297.34 136.73 265.75 125.89 297.34 147.58 297.34"/>
    <polygon class="cls-2" points="205.69 284.43 184 284.43 194.84 316.01 205.69 284.43"/>
    <polygon class="cls-2" points="483.93 232.7 505.62 232.7 494.77 201.11 483.93 232.7"/>
    <polygon class="cls-2" points="508.77 240.71 480.75 240.71 476.09 254.48 481.22 254.47 492.82 254.45 513.43 254.43 508.77 240.71"/>
    <polygon class="cls-2" points="476.18 297.34 497.87 297.34 487.02 265.75 476.18 297.34"/>
    <polygon class="cls-2" points="470.36 176.55 465.86 189.85 488.97 189.83 500.58 189.8 502.88 189.8 498.38 176.55 470.36 176.55"/>
    <polygon class="cls-2" points="322.79 284.43 301.1 284.43 311.94 316.01 322.79 284.43"/>
    <polygon class="cls-2" points="341.03 263.12 320.88 318.66 340.83 318.64 360.99 263.11 341.03 263.12"/>
    <polygon class="cls-2" points="356.43 168.54 378.12 168.54 367.28 136.95 356.43 168.54"/>
    <polygon class="cls-2" points="473.54 168.54 495.22 168.54 484.38 136.95 473.54 168.54"/>
    <polygon class="cls-2" points="438.88 284.43 417.19 284.43 428.03 316.01 438.88 284.43"/>
    <polygon class="cls-2" points="424.94 219.78 435.78 251.37 446.63 219.78 424.94 219.78"/>
    <polygon class="cls-2" points="485.84 198.46 464.87 198.48 444.72 254.02 465.68 254 485.84 198.46"/>
    <polygon class="cls-2" points="414.03 276.41 442.05 276.41 446.71 262.65 441.59 262.65 429.98 262.67 409.37 262.69 414.03 276.41"/>
    <polygon class="cls-2" points="391.67 240.71 363.65 240.71 358.99 254.48 364.12 254.47 375.72 254.45 396.33 254.43 391.67 240.71"/>
    <polygon class="cls-2" points="386.61 198.44 406.77 254.06 426.85 254.04 406.72 198.52 388.92 198.53 388.92 198.44 386.61 198.44"/>
    <polygon class="cls-2" points="436.23 155.62 414.55 155.62 425.39 187.21 436.23 155.62"/>
    <polygon class="cls-2" points="380.77 297.34 369.92 265.75 359.08 297.34 380.77 297.34"/>
    <polygon class="cls-2" points="449.81 211.77 454.31 198.47 431.19 198.49 419.59 198.51 417.28 198.51 421.79 211.77 449.81 211.77"/>
    <polygon class="cls-2" points="366.83 232.7 388.52 232.7 377.67 201.11 366.83 232.7"/>
    <polygon class="cls-2" points="264.68 297.34 253.83 265.75 242.99 297.34 264.68 297.34"/>
    <polygon class="cls-2" points="275.58 240.71 247.56 240.71 242.9 254.48 248.03 254.47 259.64 254.45 280.25 254.43 275.58 240.71"/>
    <polygon class="cls-2" points="250.74 232.7 272.43 232.7 261.59 201.11 250.74 232.7"/>
    <polygon class="cls-2" points="201.13 189.85 222.1 189.84 242.26 134.3 238.88 134.3 238.88 134.32 237.79 134.32 237.79 134.48 221.23 134.49 201.13 189.85"/>
    <polygon class="cls-2" points="211.53 254.02 232.49 254 252.65 198.46 231.68 198.48 211.53 254.02"/>
    <polygon class="cls-2" points="348.58 254 368.74 198.46 348.79 198.48 328.63 254.02 348.58 254"/>
    <polygon class="cls-2" points="297.95 276.41 325.97 276.41 330.63 262.65 325.5 262.65 313.89 262.67 293.28 262.69 297.95 276.41"/>
    <polygon class="cls-2" points="478.09 263.11 457.12 263.12 436.96 318.66 457.93 318.64 478.09 263.11"/>
    <polygon class="cls-2" points="474.32 433.5 469.82 446.8 492.94 446.78 504.54 446.76 506.84 446.76 502.34 433.5 474.32 433.5"/>
    <polygon class="cls-2" points="487.89 489.65 509.58 489.65 498.74 458.06 487.89 489.65"/>
    <polygon class="cls-2" points="450.59 476.73 428.9 476.73 439.75 508.32 450.59 476.73"/>
    <polygon class="cls-2" points="537.52 446.83 517.35 391.21 497.28 391.23 517.41 446.75 535.21 446.74 535.21 446.83 537.52 446.83"/>
    <polygon class="cls-2" points="458.27 455.42 435.15 455.44 423.55 455.46 421.25 455.47 425.75 468.72 453.77 468.72 458.27 455.42"/>
    <polygon class="cls-2" points="567.84 382.82 567.84 382.8 568.57 382.8 568.57 371.5 564.46 382.82 567.84 382.82"/>
    <polygon class="cls-2" points="567.69 476.73 546 476.73 556.85 508.32 567.69 476.73"/>
    <polygon class="cls-2" points="568.57 455.43 552.26 455.44 540.65 455.46 538.35 455.47 542.85 468.72 568.57 468.72 568.57 455.43"/>
    <polygon class="cls-2" points="370.79 489.65 392.48 489.65 381.64 458.06 370.79 489.65"/>
    <polygon class="cls-2" points="334.5 476.73 312.82 476.73 323.66 508.32 334.5 476.73"/>
    <polygon class="cls-2" points="304.33 446.83 284.16 391.21 264.09 391.23 284.22 446.75 302.02 446.74 302.02 446.83 304.33 446.83"/>
    <polygon class="cls-2" points="420.42 446.83 400.25 391.21 380.18 391.23 400.31 446.75 418.11 446.74 418.11 446.83 420.42 446.83"/>
    <polygon class="cls-2" points="254.7 489.65 276.39 489.65 265.55 458.06 254.7 489.65"/>
    <polygon class="cls-2" points="241.13 433.5 236.63 446.8 259.75 446.78 271.35 446.76 273.66 446.76 269.15 433.5 241.13 433.5"/>
    <polygon class="cls-2" points="357.22 433.5 352.72 446.8 375.83 446.78 387.44 446.76 389.74 446.76 385.24 433.5 357.22 433.5"/>
    <polygon class="cls-2" points="5.44 134.3 5.43 134.32 -.06 134.32 -.06 158.76 8.82 134.3 5.44 134.3"/>
    <polygon class="cls-2" points="342.18 455.42 319.07 455.44 307.46 455.46 305.16 455.47 309.66 468.72 337.68 468.72 342.18 455.42"/>
    <polygon class="cls-2" points="9.4 391.26 9.4 391.27 -.06 391.27 -.06 426.63 12.78 391.25 9.4 391.26"/>
    <polygon class="cls-2" points="512.74 497.66 484.72 497.66 479.96 511.71 484.34 511.7 495.95 511.68 517.49 511.67 512.74 497.66"/>
    <polygon class="cls-2" points="187.12 541.66 196.94 570.26 198.99 570.26 208.81 541.66 187.12 541.66"/>
    <polygon class="cls-2" points="70.78 541.66 80.6 570.26 82.65 570.26 92.47 541.66 70.78 541.66"/>
    <polygon class="cls-2" points="500.99 554.57 490.15 522.99 479.3 554.57 500.99 554.57"/>
    <polygon class="cls-2" points="304.22 541.66 314.04 570.26 316.09 570.26 325.91 541.66 304.22 541.66"/>
    <polygon class="cls-2" points="537.41 541.66 547.23 570.26 549.28 570.26 559.1 541.66 537.41 541.66"/>
    <polygon class="cls-2" points="190.43 91.63 201.27 123.22 212.12 91.63 190.43 91.63"/>
    <polygon class="cls-2" points="420.31 541.66 430.13 570.26 432.18 570.26 442 541.66 420.31 541.66"/>
    <polygon class="cls-2" points="150.7 554.57 139.85 522.99 129.01 554.57 150.7 554.57"/>
    <polygon class="cls-2" points="383.89 554.57 373.04 522.99 362.2 554.57 383.89 554.57"/>
    <polygon class="cls-2" points="46.1 497.66 18.08 497.66 13.33 511.71 17.71 511.7 29.32 511.68 50.86 511.67 46.1 497.66"/>
    <polygon class="cls-2" points="34.36 554.57 23.51 522.99 12.67 554.57 34.36 554.57"/>
    <polygon class="cls-2" points="225.08 455.42 201.97 455.44 190.36 455.46 188.06 455.47 192.56 468.72 220.58 468.72 225.08 455.42"/>
    <polygon class="cls-2" points="162.45 497.66 134.43 497.66 129.67 511.71 134.05 511.7 145.66 511.68 167.2 511.67 162.45 497.66"/>
    <polygon class="cls-2" points="279.55 497.66 251.53 497.66 246.77 511.71 251.15 511.7 262.76 511.68 284.3 511.67 279.55 497.66"/>
    <polygon class="cls-2" points="267.8 554.57 256.96 522.99 246.11 554.57 267.8 554.57"/>
    <polygon class="cls-2" points="395.63 497.66 367.61 497.66 362.86 511.71 367.24 511.7 378.85 511.68 400.39 511.67 395.63 497.66"/>
    <polygon class="cls-2" points="255.29 327.27 234.33 327.29 214.17 382.82 217.55 382.82 217.55 382.8 218.64 382.8 218.64 382.64 235.2 382.63 255.29 327.27"/>
    <polygon class="cls-2" points="382.09 425.49 371.24 393.9 360.4 425.49 382.09 425.49"/>
    <polygon class="cls-2" points="511.42 369.52 483.4 369.52 478.96 382.62 482.54 382.62 494.15 382.6 515.85 382.58 511.42 369.52"/>
    <polygon class="cls-2" points="266 425.49 255.15 393.9 244.31 425.49 266 425.49"/>
    <polygon class="cls-2" points="278.23 369.52 250.21 369.52 245.77 382.62 249.35 382.62 260.96 382.6 282.66 382.58 278.23 369.52"/>
    <polygon class="cls-2" points="217.4 476.73 195.71 476.73 206.56 508.32 217.4 476.73"/>
    <polygon class="cls-2" points="488.48 327.27 467.52 327.29 447.36 382.82 450.74 382.82 450.74 382.8 451.83 382.8 451.83 382.64 468.39 382.63 488.48 327.27"/>
    <polygon class="cls-2" points="394.31 369.52 366.29 369.52 361.86 382.62 365.44 382.62 377.04 382.6 398.75 382.58 394.31 369.52"/>
    <polygon class="cls-2" points="371.38 327.27 351.43 327.29 331.27 382.82 334.65 382.82 334.65 382.8 334.73 382.8 334.73 382.64 351.29 382.63 371.38 327.27"/>
    <polygon class="cls-2" points="74.09 91.63 84.93 123.22 95.78 91.63 74.09 91.63"/>
    <polygon class="cls-2" points="84.79 189.85 105 189.84 125.16 134.3 121.78 134.3 121.77 134.32 121.45 134.32 121.45 134.48 104.89 134.49 84.79 189.85"/>
    <polygon class="cls-2" points="178.2 147.61 206.22 147.61 210.66 134.5 207.08 134.5 195.47 134.53 173.76 134.54 178.2 147.61"/>
    <polygon class="cls-2" points="161.12 369.52 133.1 369.52 128.67 382.62 132.25 382.62 143.85 382.6 165.56 382.58 161.12 369.52"/>
    <polygon class="cls-2" points="61.86 147.61 89.88 147.61 94.32 134.5 90.73 134.5 79.13 134.53 57.42 134.54 61.86 147.61"/>
    <polygon class="cls-2" points="148.9 425.49 138.05 393.9 127.21 425.49 148.9 425.49"/>
    <polygon class="cls-2" points="66.93 189.88 46.76 134.25 26.68 134.28 46.81 189.8 64.61 189.78 64.61 189.88 66.93 189.88"/>
    <polygon class="cls-2" points="138.19 327.27 117.99 327.29 97.83 382.82 101.2 382.82 101.21 382.8 101.54 382.8 101.54 382.64 118.1 382.63 138.19 327.27"/>
    <polygon class="cls-2" points="499.19 425.49 488.34 393.9 477.5 425.49 499.19 425.49"/>
    <polygon class="cls-2" points="101.06 476.73 79.37 476.73 90.22 508.32 101.06 476.73"/>
    <polygon class="cls-2" points="70.89 446.83 50.72 391.21 30.64 391.23 50.77 446.75 68.57 446.74 68.57 446.83 70.89 446.83"/>
    <polygon class="cls-2" points="10.87 425.49 32.56 425.49 21.71 393.9 10.87 425.49"/>
    <polygon class="cls-2" points="108.74 455.42 85.62 455.44 74.02 455.46 71.72 455.47 76.22 468.72 104.24 468.72 108.74 455.42"/>
    <polygon class="cls-2" points="137.6 489.65 159.29 489.65 148.45 458.06 137.6 489.65"/>
    <polygon class="cls-2" points="187.23 446.83 167.06 391.21 146.99 391.23 167.12 446.75 184.92 446.74 184.92 446.83 187.23 446.83"/>
    <polygon class="cls-2" points="33.94 189.8 36.25 189.8 31.75 176.55 3.73 176.55 -.06 187.74 -.06 189.84 22.34 189.83 33.94 189.8"/>
    <polygon class="cls-2" points="124.03 433.5 119.53 446.8 142.64 446.78 154.25 446.76 156.55 446.76 152.05 433.5 124.03 433.5"/>
    <polygon class="cls-2" points="269.2 70.29 289.37 125.92 309.44 125.89 289.31 70.37 271.51 70.39 271.51 70.29 269.2 70.29"/>
    <polygon class="cls-2" points="493.31 134.28 513.44 189.8 531.24 189.78 531.24 189.88 533.56 189.88 513.39 134.25 493.31 134.28"/>
    <polygon class="cls-2" points="553.34 155.62 531.65 155.62 542.49 187.21 553.34 155.62"/>
    <polygon class="cls-2" points="502.39 70.29 522.56 125.92 542.63 125.89 522.5 70.37 504.7 70.39 504.7 70.29 502.39 70.29"/>
    <polygon class="cls-2" points="385.28 70.29 405.45 125.92 425.53 125.89 405.4 70.37 387.6 70.39 387.6 70.29 385.28 70.29"/>
    <polygon class="cls-2" points="152.1 70.29 172.26 125.92 192.34 125.89 172.21 70.37 154.41 70.39 154.41 70.29 152.1 70.29"/>
    <polygon class="cls-2" points="35.75 70.29 55.92 125.92 76 125.89 55.87 70.37 38.07 70.39 38.07 70.29 35.75 70.29"/>
    <polygon class="cls-2" points="539.33 327.32 537.03 327.32 541.53 340.58 568.57 340.58 568.57 327.28 550.94 327.3 539.33 327.32"/>
    <polygon class="cls-2" points="249.42 104.55 271.11 104.55 260.26 72.96 249.42 104.55"/>
    <polygon class="cls-2" points="42.95 489.65 32.11 458.06 21.26 489.65 42.95 489.65"/>
    <polygon class="cls-2" points="41.63 361.5 30.78 329.92 19.94 361.5 41.63 361.5"/>
    <polygon class="cls-2" points="1.87 318.65 24.98 318.64 36.59 318.61 38.89 318.61 34.39 305.35 6.37 305.35 1.87 318.65"/>
    <polygon class="cls-2" points="37.91 446.76 40.21 446.76 35.71 433.5 7.69 433.5 3.19 446.8 26.3 446.78 37.91 446.76"/>
    <polygon class="cls-2" points="12.33 382.62 15.91 382.62 27.51 382.6 49.22 382.58 44.78 369.52 16.76 369.52 12.33 382.62"/>
    <polygon class="cls-2" points="19.21 198.46 -.06 198.48 -.06 251.56 19.21 198.46"/>
    <polygon class="cls-2" points="372.7 455.42 352.75 455.43 332.59 510.97 352.55 510.95 372.7 455.42"/>
    <polygon class="cls-2" points="17.89 70.32 -.06 70.33 -.06 119.77 17.89 70.32"/>
    <polygon class="cls-2" points="26.19 254.45 46.8 254.43 42.14 240.71 14.12 240.71 9.46 254.48 14.59 254.47 26.19 254.45"/>
    <polygon class="cls-2" points="256.62 455.42 235.65 455.43 215.49 510.97 236.46 510.95 256.62 455.42"/>
    <polygon class="cls-2" points="211.99 533.65 216.74 519.6 212.36 519.6 200.76 519.63 179.21 519.64 183.97 533.65 211.99 533.65"/>
    <polygon class="cls-2" points="314.73 510.99 294.6 455.47 276.8 455.49 276.8 455.39 274.48 455.39 294.65 511.02 314.73 510.99"/>
    <polygon class="cls-2" points="329.09 533.65 333.84 519.6 329.46 519.6 317.86 519.63 296.31 519.64 301.07 533.65 329.09 533.65"/>
    <polygon class="cls-2" points="81.28 510.99 61.15 455.47 43.35 455.49 43.35 455.39 41.04 455.39 61.21 511.02 81.28 510.99"/>
    <polygon class="cls-2" points="197.62 510.99 177.49 455.47 159.69 455.49 159.69 455.39 157.38 455.39 177.55 511.02 197.62 510.99"/>
    <polygon class="cls-2" points="95.65 533.65 100.4 519.6 96.02 519.6 84.41 519.63 62.87 519.64 67.63 533.65 95.65 533.65"/>
    <polygon class="cls-2" points="139.51 455.42 119.31 455.43 99.15 510.97 119.36 510.95 139.51 455.42"/>
    <polygon class="cls-2" points="31.23 297.34 20.39 265.75 9.55 297.34 31.23 297.34"/>
    <polygon class="cls-2" points="-.06 55.69 -.06 61.7 21.02 61.68 32.62 61.66 34.93 61.66 30.43 48.4 2.41 48.4 -.06 55.69"/>
    <polygon class="cls-2" points="307.98 59.06 318.82 27.47 297.14 27.47 307.98 59.06"/>
    <polygon class="cls-2" points="258.8 6.13 278.93 61.65 296.73 61.64 296.73 61.73 299.05 61.73 278.88 6.11 258.8 6.13"/>
    <polygon class="cls-2" points="199.81 61.71 220.78 61.69 240.94 6.15 219.97 6.17 199.81 61.71"/>
    <polygon class="cls-2" points="239.03 40.39 260.71 40.39 249.87 8.8 239.03 40.39"/>
    <polygon class="cls-2" points="424.07 59.06 434.91 27.47 413.22 27.47 424.07 59.06"/>
    <polygon class="cls-2" points="374.89 6.13 395.02 61.65 412.82 61.64 412.82 61.73 415.14 61.73 394.97 6.11 374.89 6.13"/>
    <polygon class="cls-2" points="355.11 40.39 376.8 40.39 365.96 8.8 355.11 40.39"/>
    <polygon class="cls-2" points="316.91 61.71 336.87 61.69 357.02 6.15 337.07 6.17 316.91 61.71"/>
    <polygon class="cls-2" points="25.36 6.13 45.49 61.65 63.29 61.64 63.29 61.73 65.6 61.73 45.44 6.11 25.36 6.13"/>
    <polygon class="cls-2" points="190.88 59.06 201.72 27.47 180.04 27.47 190.88 59.06"/>
    <polygon class="cls-2" points="5.58 40.39 27.27 40.39 16.43 8.8 5.58 40.39"/>
    <polygon class="cls-2" points="74.54 59.06 85.38 27.47 63.69 27.47 74.54 59.06"/>
    <polygon class="cls-2" points="141.7 6.13 161.83 61.65 179.63 61.64 179.63 61.73 181.95 61.73 161.78 6.11 141.7 6.13"/>
    <polygon class="cls-2" points="121.92 40.39 143.61 40.39 132.77 8.8 121.92 40.39"/>
    <polygon class="cls-2" points="433 61.71 453.97 61.69 474.13 6.15 453.16 6.17 433 61.71"/>
    <polygon class="cls-2" points="83.47 61.71 103.68 61.69 123.84 6.15 103.63 6.17 83.47 61.71"/>
    <polygon class="cls-2" points="153.85 562.59 125.83 562.59 123.23 570.26 156.46 570.26 153.85 562.59"/>
    <polygon class="cls-2" points="148.79 520.32 166.9 570.26 186.98 570.26 168.86 520.29 148.79 520.32"/>
    <polygon class="cls-2" points="227.06 520.36 208.94 570.26 229.9 570.26 248.02 520.34 227.06 520.36"/>
    <polygon class="cls-2" points="270.95 562.59 242.93 562.59 240.34 570.26 273.56 570.26 270.95 562.59"/>
    <polygon class="cls-2" points="430.81 510.99 410.68 455.47 392.88 455.49 392.88 455.39 390.57 455.39 410.74 511.02 430.81 510.99"/>
    <polygon class="cls-2" points="14.58 520.34 -.06 520.35 -.06 560.68 14.58 520.34"/>
    <polygon class="cls-2" points="37.51 562.59 9.49 562.59 6.89 570.26 40.12 570.26 37.51 562.59"/>
    <polygon class="cls-2" points="32.45 520.32 50.56 570.26 70.64 570.26 52.52 520.29 32.45 520.32"/>
    <polygon class="cls-2" points="265.89 520.32 284 570.26 304.08 570.26 285.97 520.29 265.89 520.32"/>
    <polygon class="cls-2" points="504.14 562.59 476.12 562.59 473.52 570.26 506.75 570.26 504.14 562.59"/>
    <polygon class="cls-2" points="499.08 520.32 517.19 570.26 537.27 570.26 519.15 520.29 499.08 520.32"/>
    <polygon class="cls-2" points="568.57 544.54 559.23 570.26 568.57 570.26 568.57 544.54"/>
    <polygon class="cls-2" points="460.24 520.36 442.13 570.26 463.09 570.26 481.21 520.34 460.24 520.36"/>
    <polygon class="cls-2" points="381.98 520.32 400.09 570.26 420.17 570.26 402.05 520.29 381.98 520.32"/>
    <polygon class="cls-2" points="344.16 520.35 326.04 570.26 345.99 570.26 364.11 520.34 344.16 520.35"/>
    <polygon class="cls-2" points="23.17 455.42 -.06 455.43 -.06 511.72 2.74 511.72 23.17 455.42"/>
    <polygon class="cls-2" points="387.04 562.59 359.02 562.59 356.42 570.26 389.65 570.26 387.04 562.59"/>
    <polygon class="cls-2" points="110.71 520.36 92.6 570.26 112.8 570.26 130.92 520.34 110.71 520.36"/>
    <polygon class="cls-2" points="561.82 254.02 568.57 254.01 568.57 235.42 561.82 254.02"/>
    <polygon class="cls-2" points="562.28 533.65 567.03 519.6 562.65 519.6 551.05 519.63 529.5 519.64 534.26 533.65 562.28 533.65"/>
    <polygon class="cls-2" points="550.1 61.71 568.57 61.69 568.57 10.83 550.1 61.71"/>
    <polygon class="cls-2" points="21.85 327.27 -.06 327.29 -.06 382.63 1.76 382.63 21.85 327.27"/>
    <polygon class="cls-2" points="568.57 503.29 565.78 510.97 568.57 510.97 568.57 503.29"/>
    <polygon class="cls-2" points="445.18 533.65 449.93 519.6 445.55 519.6 433.95 519.63 412.4 519.64 417.16 533.65 445.18 533.65"/>
    <polygon class="cls-2" points="489.8 455.42 468.84 455.43 448.68 510.97 469.65 510.95 489.8 455.42"/>
    <polygon class="cls-2" points="547.92 510.99 527.79 455.47 509.99 455.49 509.99 455.39 507.67 455.39 527.84 511.02 547.92 510.99"/>
    <polygon class="cls-2" points="563.87 125.87 563.88 125.85 568.57 125.85 568.57 103.63 560.5 125.87 563.87 125.87"/>
    <polygon class="cls-2" points="7.49 6.15 -.06 6.16 -.06 26.97 7.49 6.15"/>
    <polygon class="cls-2" points="60.54 19.46 88.56 19.46 94.85 .87 54.22 .87 60.54 19.46"/>
    <polygon class="cls-2" points="11.46 263.11 -.06 263.12 -.06 294.85 11.46 263.11"/>
    <polygon class="cls-2" points="527.17 19.46 555.19 19.46 561.49 .87 520.86 .87 527.17 19.46"/>
    <polygon class="cls-2" points="410.07 19.46 438.09 19.46 444.39 .87 403.76 .87 410.07 19.46"/>
    <polygon class="cls-2" points="176.88 19.46 204.9 19.46 211.2 .87 170.57 .87 176.88 19.46"/>
    <polygon class="cls-2" points="293.98 19.46 322 19.46 328.3 .87 287.67 .87 293.98 19.46"/>
    <polygon class="cls-2" points="235.85 48.4 231.35 61.7 254.46 61.68 266.07 61.66 268.37 61.66 263.87 48.4 235.85 48.4"/>
    <polygon class="cls-2" points="560.48 404.56 564.91 391.46 561.33 391.46 549.73 391.48 528.02 391.5 532.46 404.56 560.48 404.56"/>
    <polygon class="cls-2" points="544.68 348.59 555.53 380.18 566.37 348.59 544.68 348.59"/>
    <polygon class="cls-2" points="546.59 382.85 526.46 327.33 508.66 327.34 508.66 327.24 506.35 327.25 526.52 382.87 546.59 382.85"/>
    <polygon class="cls-2" points="495.96 263.08 516.09 318.6 533.89 318.59 533.89 318.69 536.2 318.68 516.03 263.06 495.96 263.08"/>
    <polygon class="cls-2" points="534.29 284.43 545.13 316.01 555.98 284.43 534.29 284.43"/>
    <polygon class="cls-2" points="443.37 404.56 447.81 391.46 444.23 391.46 432.62 391.48 410.92 391.5 415.35 404.56 443.37 404.56"/>
    <polygon class="cls-2" points="327.29 404.56 331.72 391.46 328.14 391.46 316.54 391.48 294.83 391.5 299.27 404.56 327.29 404.56"/>
    <polygon class="cls-2" points="429.49 382.85 409.36 327.33 391.56 327.34 391.56 327.24 389.25 327.25 409.42 382.87 429.49 382.85"/>
    <polygon class="cls-2" points="443.4 125.87 446.77 125.87 446.78 125.85 447.87 125.85 447.87 125.69 464.43 125.68 484.52 70.32 463.55 70.33 443.4 125.87"/>
    <polygon class="cls-2" points="365.51 104.55 387.2 104.55 376.35 72.96 365.51 104.55"/>
    <polygon class="cls-2" points="418.27 70.36 415.96 70.37 420.46 83.62 448.48 83.62 452.99 70.32 429.87 70.34 418.27 70.36"/>
    <polygon class="cls-2" points="351.94 48.4 347.43 61.7 370.55 61.68 382.15 61.66 384.46 61.66 379.96 48.4 351.94 48.4"/>
    <polygon class="cls-2" points="330.68 125.87 330.69 125.85 330.76 125.85 330.76 125.69 347.33 125.68 367.42 70.32 347.47 70.33 327.31 125.87 330.68 125.87"/>
    <polygon class="cls-2" points="469.04 48.4 464.54 61.7 487.65 61.68 499.26 61.66 501.56 61.66 497.06 48.4 469.04 48.4"/>
    <polygon class="cls-2" points="482.61 104.55 504.3 104.55 493.45 72.96 482.61 104.55"/>
    <polygon class="cls-2" points="523.82 198.52 506.02 198.53 506.02 198.44 503.71 198.44 523.88 254.06 543.95 254.04 523.82 198.52"/>
    <polygon class="cls-2" points="313.41 382.85 293.27 327.33 275.47 327.34 275.47 327.24 273.16 327.25 293.33 382.87 313.41 382.85"/>
    <polygon class="cls-2" points="472.22 40.39 493.9 40.39 483.06 8.8 472.22 40.39"/>
    <polygon class="cls-2" points="143.02 134.28 163.15 189.8 180.95 189.78 180.95 189.88 183.27 189.88 163.1 134.25 143.02 134.28"/>
    <polygon class="cls-2" points="129.14 112.56 124.7 125.67 128.29 125.67 139.89 125.64 161.6 125.63 157.16 112.56 129.14 112.56"/>
    <polygon class="cls-2" points="246.24 112.56 241.81 125.67 245.39 125.67 256.99 125.64 278.7 125.63 274.26 112.56 246.24 112.56"/>
    <polygon class="cls-2" points="86.7 155.62 65.02 155.62 75.86 187.21 86.7 155.62"/>
    <polygon class="cls-2" points="100.27 211.77 104.78 198.47 81.66 198.49 70.06 198.51 67.75 198.51 72.25 211.77 100.27 211.77"/>
    <polygon class="cls-2" points="376.21 134.28 396.34 189.8 414.14 189.78 414.14 189.88 416.46 189.88 396.29 134.25 376.21 134.28"/>
    <polygon class="cls-2" points="302.18 70.36 299.87 70.37 304.38 83.62 332.4 83.62 336.9 70.32 313.78 70.34 302.18 70.36"/>
    <polygon class="cls-2" points="362.33 112.56 357.89 125.67 361.48 125.67 373.08 125.64 394.79 125.63 390.35 112.56 362.33 112.56"/>
    <polygon class="cls-2" points="260.12 134.28 280.25 189.8 298.05 189.78 298.05 189.88 300.37 189.88 280.2 134.25 260.12 134.28"/>
    <polygon class="cls-2" points="99.74 348.59 78.05 348.59 88.9 380.18 99.74 348.59"/>
    <polygon class="cls-2" points="65.82 404.56 93.84 404.56 98.28 391.46 94.7 391.46 83.09 391.48 61.39 391.5 65.82 404.56"/>
    <polygon class="cls-2" points="97.1 219.78 75.41 219.78 86.25 251.37 97.1 219.78"/>
    <polygon class="cls-2" points="196.3 382.85 176.17 327.33 158.37 327.34 158.37 327.24 156.06 327.25 176.23 382.87 196.3 382.85"/>
    <polygon class="cls-2" points="64.5 276.41 92.52 276.41 97.18 262.65 92.06 262.65 80.45 262.67 59.84 262.69 64.5 276.41"/>
    <polygon class="cls-2" points="89.35 284.43 67.66 284.43 78.5 316.01 89.35 284.43"/>
    <polygon class="cls-2" points="102.92 340.58 107.42 327.28 84.3 327.3 72.7 327.32 70.39 327.32 74.9 340.58 102.92 340.58"/>
    <polygon class="cls-2" points="210.18 404.56 214.62 391.46 211.04 391.46 199.43 391.48 177.73 391.5 182.17 404.56 210.18 404.56"/>
    <polygon class="cls-2" points="479.41 391.25 476.03 391.26 476.03 391.27 474.94 391.27 474.94 391.43 458.38 391.45 438.29 446.81 459.25 446.79 479.41 391.25"/>
    <polygon class="cls-2" points="555.39 446.81 568.57 446.8 568.57 410.49 555.39 446.81"/>
    <polygon class="cls-2" points="547.08 262.67 526.47 262.69 531.14 276.41 559.15 276.41 563.82 262.65 558.69 262.65 547.08 262.67"/>
    <polygon class="cls-2" points="554.07 318.66 568.57 318.65 568.57 278.7 554.07 318.66"/>
    <polygon class="cls-2" points="557.3 412.57 535.61 412.57 546.45 444.16 557.3 412.57"/>
    <polygon class="cls-2" points="324.11 412.57 302.42 412.57 313.27 444.16 324.11 412.57"/>
    <polygon class="cls-2" points="358.93 391.26 358.93 391.27 358.85 391.27 358.85 391.43 342.29 391.45 322.2 446.81 342.15 446.79 362.31 391.25 358.93 391.26"/>
    <polygon class="cls-2" points="440.2 412.57 418.51 412.57 429.35 444.16 440.2 412.57"/>
    <polygon class="cls-2" points="551.42 189.85 568.57 189.84 568.57 142.62 551.42 189.85"/>
    <polygon class="cls-2" points="530.33 27.47 541.17 59.06 552.01 27.47 530.33 27.47"/>
    <polygon class="cls-2" points="568.57 74.81 568.57 70.33 546.97 70.34 535.37 70.36 533.06 70.37 537.57 83.62 565.59 83.62 568.57 74.81"/>
    <polygon class="cls-2" points="542.04 219.78 552.89 251.37 563.73 219.78 542.04 219.78"/>
    <polygon class="cls-2" points="540.72 91.63 551.56 123.22 562.41 91.63 540.72 91.63"/>
    <polygon class="cls-2" points="491.99 6.13 512.12 61.65 529.92 61.64 529.92 61.73 532.24 61.73 512.07 6.11 491.99 6.13"/>
    <polygon class="cls-2" points="568.57 206.86 568.57 198.47 548.29 198.49 536.69 198.51 534.38 198.51 538.89 211.77 566.91 211.77 568.57 206.86"/>
    <polygon class="cls-2" points="545.76 134.53 524.06 134.54 528.49 147.61 556.51 147.61 560.95 134.5 557.37 134.5 545.76 134.53"/>
    <polygon class="cls-2" points="246.22 391.25 242.84 391.26 242.84 391.27 241.75 391.27 241.75 391.43 225.19 391.45 205.1 446.81 226.06 446.79 246.22 391.25"/>
    <polygon class="cls-2" points="93.87 125.87 97.24 125.87 97.25 125.85 97.58 125.85 97.57 125.69 114.14 125.68 134.23 70.32 114.02 70.33 93.87 125.87"/>
    <polygon class="cls-2" points="507.45 112.56 479.43 112.56 474.99 125.67 478.58 125.67 490.18 125.64 511.89 125.63 507.45 112.56"/>
    <polygon class="cls-2" points="118.75 48.4 114.24 61.7 137.36 61.68 148.96 61.66 151.27 61.66 146.77 48.4 118.75 48.4"/>
    <polygon class="cls-2" points="68.74 70.36 66.43 70.37 70.93 83.62 98.95 83.62 103.46 70.32 80.34 70.34 68.74 70.36"/>
    <polygon class="cls-2" points="8.36 125.67 11.95 125.67 23.55 125.64 45.26 125.63 40.82 112.56 12.8 112.56 8.36 125.67"/>
    <polygon class="cls-2" points="207.01 412.57 185.32 412.57 196.16 444.16 207.01 412.57"/>
    <polygon class="cls-2" points="210.21 125.87 213.58 125.87 213.59 125.85 214.68 125.85 214.68 125.69 231.24 125.68 251.33 70.32 230.36 70.33 210.21 125.87"/>
    <polygon class="cls-2" points="185.08 70.36 182.77 70.37 187.27 83.62 215.29 83.62 219.8 70.32 196.68 70.34 185.08 70.36"/>
    <polygon class="cls-2" points="132.32 104.55 154.01 104.55 143.16 72.96 132.32 104.55"/>
    <polygon class="cls-2" points="15.98 104.55 37.67 104.55 26.82 72.96 15.98 104.55"/>
    <polygon class="cls-2" points="79.96 382.85 59.83 327.33 42.03 327.34 42.03 327.24 39.72 327.25 59.89 382.87 79.96 382.85"/>
    <polygon class="cls-2" points="90.67 412.57 68.98 412.57 79.82 444.16 90.67 412.57"/>
    <polygon class="cls-2" points="28.59 168.54 17.75 136.95 6.9 168.54 28.59 168.54"/>
    <polygon class="cls-2" points="129.12 391.25 125.74 391.26 125.74 391.27 125.41 391.27 125.41 391.43 108.85 391.45 88.76 446.81 108.96 446.79 129.12 391.25"/>
    <polygon class="cls-2" points="49.45 318.6 67.25 318.59 67.25 318.69 69.57 318.68 49.4 263.06 29.32 263.08 49.45 318.6"/>
    <polygon class="cls-2" points="38.99 232.7 28.14 201.11 17.3 232.7 38.99 232.7"/>
    <polygon class="cls-2" points="77.32 254.04 57.19 198.52 39.39 198.53 39.39 198.44 37.08 198.44 57.24 254.06 77.32 254.04"/>
  </g>
</svg>