<?xml version="1.0" encoding="UTF-8"?>
<svg id="Layer_2" data-name="Layer 2" xmlns="http://www.w3.org/2000/svg" viewBox="0 0 241.85 254.74">
  <g id="Layer_1-2" data-name="Layer 1">
    <path d="M236.08,112.56c-2.56-3.15-1.39-2.9-1.79-5.83-.12-.93-.9-1.76-.99-2.51-.13-1.21,1.74-1.76,1.52-2.81-.15-.7-2.63-2.11-3.18-3.34-.61-1.34-.32-2.95-.88-3.95s-2.01-.86-2.68-1.39c-2.1-1.66-4.2-8.37-5.13-11.02l-1.03-.61c-4.27,1.21-4.65-1.49-7.09-3.45-3.77-3.03-8.38-5.89-12.47-8.58-1.51-.99-4.37-1.99-5.33-2.81-3.53-3.02-.26-1.81-5.9-4.03-1.69-.66-5.17-3.1-6.01-3.31-.94-.24-2.69.21-3.05-.08-.25-.2-.06-1.57-.7-1.98-.73-.48-2.21.07-3.02-.43-.76-.46-.53-2.45-2.62-3.29-5.39-2.17-10.57.37-15.44-1.07-2.05-.61-3.81-3.01-5.48-3.26-1.97-.3-9.41,1.01-11.59,1.63-.45.13-.34,1.07-.76,1.18-1.33.36-3.03-.18-4.47.3-.98.33-1.25,1.72-2.4,1.76-.34.01-.2-.96-.76-1.13-2.45-.76-7.36-.51-10.34-.97-1.56-.24-5.56-1.95-6.71-1.9-.89.03-2.06,1.07-3.46,1.29-2.34.37-5.36-.6-6.92-.22-.98.24-2.55,1.75-3.81,2.19-1.72.61-4.35.65-5.79,1.44-1.17.64-1.43,2.29-2.19,2.53-.88.29-1.86-.75-3.57.03-2.78,1.27-6.33,6.52-8.14,7.81-1.33.95-3.41.9-4.91,2.26-1.27,1.15-1.09,2.33-1.64,3.02-.64.78-1.91.52-2.87,1.31-.62.51-2.26,3.83-2.64,4.07-.62.38-3.69.46-3.95.89-.15.24.79,1.53.42,2.87-.55,2.02-2.79,3.37-3.33,4.34-.72,1.28-1.49,4.73-2.2,5.9-.47.77-1.58.94-2.39,2.32-2.05,3.49-.26,5.41-.57,7.47-.05.33-3.13,4.39-3.61,5.66-.37.99-.51,4.06-.66,4.21-.33.33-2.33-.13-2.82,1.06,3.6,1.77,1.97,2.89,2.53,5.82.79,4.17,1.59,9.31,3.63,13.23,1.69,3.24,4.1,3.46,2.28,8.61l-3.54.1c-.94.07.13,2.98,1.87,2.9l2.6-1.29-.31,4.89c.57,1.69,2.98,1.21,3.45,2.43.33.86.05,2.1.47,3.16.74,1.88,2.71,4.9,3.39,6.75.43,1.16-.03,2.53.57,3.68.61,1.17,7.09,4.73,8.54,6.69,1.1,1.48,1.52,4.2,3.09,5.25.81.54,2.02.4,2.1.48.15.15-.64,1.64-.2,2.9.7,1.96,4.4,6.06,6.47,6.65l.9,6.57c3.34.3,2.52,4.21,6.55,3.95l-.5,2.36c3.49-.59,4.9,3.23,8.25,1.12,1.77-1.12,1.26-3.1,3.75-3.4,1.95-.24,1.8,1.57,3.28,2.62,3.03,2.15,4.11-1.21,6.77-1.24,1.26-.01,1.94.95,2.53,1,4.08.34,8.09-3.21,10.91-3.21,1.09,0,4.26,1.7,6.5,1.47.36-.04,6.38-2.15,6.7-2.3,1.37-.68,3.78-5.49,5.89-6.45,2.33-1.06,6.21-.79,9.11-1.77,3.12-1.05,3.63-3.46,6.44-.55l-.66-4.26c2.08-2.21,3.23-4.92,4.95-7.37,2.97-4.25,3.69-4.1,5.34-9.79,1.46-5.04,1.9-9.9,3.85-14.58.42-1,1.38-1.46,1.53-2.59.3-2.2-1.35-3.08-1.42-5.17-.14-4.13,1.99-10.82,1.77-16.01-.12-2.8-2.35-7.24-2.72-9.97s1.23-7.49-1.29-10.2c-.7-.75-2.75-.45-4.1-1.08-1.52-.71-4.76-5.08-6.53-6.41-1.36-1.03-11.01-5.01-12.82-5.13-4.9-.32-14.1-.33-18.81.16-1.69.17-8.67,3.65-10.59,4.38-1.69.64-6.32.47-6.6.65-.48.31-.79,1.62-1.36,2.18-.79.78-2.54,1.71-2.87,2.44-.45,1.01,0,2.37-.7,3.32-.86,1.18-3.4.77-4.37,2.19-.61.89-3.46,10.09-3.38,11.01.07.81.96,1.51,1.19,2.33.42,1.47,2.77,8.11,3.44,8.84.23.25,1.37.18,1.96.61,5.27,3.93,4.62,3.33,10.5,5.82,1.12.47,1.55,1.89,3.62,2.26,2.42.43,2.89-1.08,3.7-.99.89.1,1.48,1.42,3.66.95,1.16-.25,1.45-1.27,2.06-1.53.84-.36,6.07-2.12,6.28-2.4l.48-5.24c1.2-.82,4.66,2.78,4.81,4.24.23,2.12-1.65,5.86-1.87,8.47-.27,3.23,1.95,3.95-2.58,6.1-.57,1.16.79,2.67.41,4.26s-4.15,5.51-4.29,7.98c-1.46,1.99-7.78,2.12-10.1,1.68-1.1-.21-2.66-1.48-3.95-1.85-4.07-1.19-8.23-1.32-11.21-5.03-.38-.47-3.19-4.74-3.28-5.02-.67-1.99.79-6.3-2.48-6.57-.9-.07-1.92.6-2.62.38-.51-.16-7.46-7.09-7.65-7.6-1.15-3.13.86-3.85.71-5.6-.11-1.31-1.39-2.02-1.75-3.08-.6-1.75-.92-4.31-1.62-6.19.15-.86,3.49-.42,2.87-3.69-.39-2.04-3.09-1.89-3.01-3.33,1.28-1.76,1.99-6.07,2.9-7.56.42-.68,1.56-.74,1.86-1.68.24-.73-.09-1.79.17-2.68,1.51-5.21,1.84-5.09,6.96-7.19l.02-3.9c2.09-.8,6.05-2.71,7.21-4.68.77-1.3-.21-2.16,1.81-3.43,3.32-2.07,2.09.17,2.66.78,2.74.4,3.03,2.95,6.11,2.27,1.04-.23,1.69-1.38,2.89-1.3,2.24.15,3.74,1.91,7.59.76,2.78-.83,3.83-1.71,7.66-2.55,1.45-.32,2.36-1.49,4.06-1.3.23.03,4.25,1.22,4.49,1.33,1.04.47,1.8,2.17,2.9,2.42,2.17.5,4.26-1.88,5.72-1.91,1.31-.03,1.12,1.8,3.1,2.11,2.52.39,5.83-.61,8.01-.05,1.15.29,2.06,2.08,3.24,2.63,1.26.59,2.44.33,3.33.69.53.22,8.36,6.69,8.67,7.17.43.7,4.32,7.58,4.48,8.02.55,1.54.16,3.21.7,4.76.11.32,2.57,4.9,3.07,5.87.68,1.34,2.37,3.16,2.73,4.47.39,1.4-1.35,2.13-.75,3.75.45,1.2,3.28,1.63,3.58,2.43.95,2.47-1.59,2.66-3.46,2.09l3.73,9.09-2.46,8.51c2.46.39,3.38,2.27,3.12,4.6l-2.29.15-.41,8.16-1.61.15c.75,4.62-3.42,5.57-5.61,8.74l2.41,2.23c-1.51,1.9-2.05,2.69-4.57,2.5-1.66,1.11-.99,2.31-.46,3.87l4.65-1.35-.16,2.4c-.85.11-3.88,1.66-4.1,1.67-.7,0-1.51-1.74-3.01-.31-1.09,1.04-1.74,7.97-4.6,9.36-.96.47-2.28.17-2.81.51-.96.62-1.96,9.71-5.65,8.94l1.68-2.13-1.51-1.4c-.89.24-3.73,5.04-3.96,6.03-.49,2.13,1.99,3.04-2.22,4.03-.68.16-1.49-.54-2.54-.04-1.87.88-2.76,4.88-3.94,5.51-1.01.54-7.58.22-9.56.75-.31.08-5.3,2.04-5.6,2.19-1.59.79-5.91,4.92-6.72,5.14-1.74.47-7.67-1.03-9.92-.75-1.97.24-2.22,1.98-4.03,2.05s-2.28-1.61-3.63-1.72c-1.03-.08-2.09.7-2.83.59-.8-.11-1.4-1.45-2.22-1.82-1.49-.67-3.91-.4-5.73-1.15-2.84-1.17-3.69-3.71-7.74-3.89-.93-.04-1.79.68-2.73.53-.4-.07-7.15-3.02-7.45-3.31-.42-.4-.3-1.5-1.11-2.16-2.61-2.14-8-4.23-9.8-6.26-.92-1.04-1.38-3.74-2.1-4.17s-2.1-.05-2.98-.45c-1.2-.55-.98-2.23-1.65-2.65-.81-.51-2.42-.15-3.05-.55-.42-.27-.87-2.23-1.51-2.97s-1.62-1.09-2.26-1.84c-.75-.89-1.48-3.09-1.97-3.38-.84-.51-2.29.05-3.33-.68-.69-.49-.88-1.93-1.51-2.65-3.54-4.05-3.7-3.5-6.9-8.47-2.63-4.08-6.53-7.31-7.39-12.22-.35-2.01-.08-4.1-.46-6.24-.65-3.72-.92-6.54-1.4-10.07-.24-1.73-1.98-3.15-1.41-5.77.17-.77,2.32-.73,1.68-2.53-2.54-.76-3.36-2.47-3.21-5.19.07-1.2,1.17-.94,1.63-1.93,1.07-2.31,2.68-9.36,3.02-11.88.33-2.36-1.98-2.65,2.31-4.77l-.7-3.73c6.25-.07.63-4.48,1-6.11.15-.64,1.16-1.18,1.51-2.08.69-1.83-1.12-2.89,2.89-3.26.46-1.35-.85-3.11-.61-4.23.2-.98,2.09-1.95,2.45-3.43.16-.67-.3-1.41-.17-1.95,1.45-6.35,2.62-14.48,5.22-20.01.96-2.04,13.33-11.99,15.51-12.85,4.15-1.63,7.01.2,10.39-.59,1.52-.35,3.23-2.35,5.36-2.41,1.27-.03,1.57,1.68,3.4,1.52s2.52-2.03,3.61-2.39c1.36-.44,2.98-.03,4.43-.43,1.9-.52,4.81-2.29,6.51-2.38,5.03-.27,4.58,3.09,11.44.29,4.4-1.79,10.22-6.02,14.44-7.6,2.58-.97,3.46.27,5.47-2.87,2.33-3.64,3.68-12.37,1.39-16.12-1.27-2.09-1.64-2.78-2.78-4.96-.79-1.5-3.21-2.13-3.95-3.08-.68-.88-.62-2.08-1.52-3.25-.25-.33-5.95-3.95-6.39-4.12-1.14-.46-2.4-.01-3.54-.47-.89-.36-1.26-1.83-2.76-1.97-.69-.06-9.42.85-10.49,1.05-4.07.78-9.15,4.33-14.63,5.21-4.72.76-8.65,1.23-13.34,2.34-4.35,1.02-3.61,1.63-8.69.16-2.47-.71-1.49-.75-4.64-1.1-2.42-.27-7.02-1.08-9.1-1.09-2.65-.01-7.51,1.84-9.6,3.54-.82.66-1.03,1.85-1.71,2.38-.98.76-2.7.66-3.31,1.19-.38.33-1.55,3.41-2.54,4.45-1.54,1.62-3.53,1.97-4.94,3.08-.66.52-5.58,5.81-5.92,6.41-1.35,2.34-.25,4.67-.76,6.68-.31,1.22-1.84,1.45-2.41,2.3-3.17,4.65-4.8,10.26-6.63,15.4-2.77,7.78-2.11,8.17-8.13,13.99-.62.6-1.78.57-2.33,1.27-.15.19-1.67,4.3-1.73,4.63-.58,3.01.9,5.35.72,7.42-.16,1.83-3.01,6.53-3.63,8.59-3.64,12.2-2.02,24.12-4.35,35.65C2.91,126.57.04,130.34,0,131.65c-.04,1.5,1.16,2.74,1.31,4.1s-.48,2.43-.31,3.9c.46,4.03,3.36,7.02,2.69,12.4-.12.93-1.04,1.66-1.08,2.47-.07,1.2.98,1.69,1.12,2.36.63,2.91-2.54,4.69,3.66,5.31.96,1.81-.64,3.71-.04,5.51.33.98,1.68,1.38,2.05,2.12.79,1.59-.34,2.93,2.2,3.74.29,2.17-6.75-.11-5.8,1.98,1.03,2.27,9.57,2.43,11.02,4.02,2.7,2.94.04,7.42,2.88,11.59,1.29,1.89,4.67,3.69,5.68,5.5.82,1.47.69,3.98.92,4.22.17.18,3.21,1.24,4.4,2.28,3.83,3.32,3.01,7.2,4.98,9.63.74.91,2.69,1.29,3.6,3.15.55,1.11.92,4.65,1.35,4.98.27.22,4.69,1.45,6.41,2.56,4.18,2.69,7.08,7.84,10.82,9.75,1.87.95,4.56,1.17,6.12,1.96,1.99,1.01,2.52,3.51,6.02,2.37-.37,4.8,4.64,6.36,7.7,8.52.66.46.93,1.69,1.54,2.01.34.18,7.07,1.74,7.46,1.77,1.62.11,3.24-1.57,5.17-1.37.47.05,3.97,1.55,5.07,1.92,1.54.52,7.62,3.21,8.84,3.32.95.08,1.88-.66,2.68-.5s1.28,1.35,2.05,1.52c.42.09,5.3-.59,6.83-.56,6.45.13,9.95.31,16.04-1.89,5.85-2.1,12.71-1.27,18.62-2.03,2.49-.32,6.18-2.08,8.2-2.1,2.46-.03,5.93,4.6,4.32-1.9,3.87.71,6.36-1.97,9.7-3.12,1.07-.37,3.45.05,5.57-1.17,2.07-1.19,2.83-3.87,3.82-4.4,1.48-.8,3.85-.19,5.55-.53,1.5-.3,2.07-1.41,3.04-1.72,1.1-.34,2.43,0,3.31-.34,1.06-.4.61-2.06,1.82-2.85,1.53-1,5.62-1.18,7.15-2.45.94-.77.98-2.66,1.9-3.91,1.31-1.79,4.59-3.26,6.59-5.82.43-.55.34-1.61.64-1.93.52-.55,2.9-.56,3.91-1.21.25-.16,4.07-3.76,4.26-3.99.6-.71.71-2.26,1.39-2.72.77-.52,1.82.2,2.38-.06.41-.19,2.46-5.41,2.5-6.04.16-2.18-1.73-5.25-1.79-6.93-.05-1.19.91-2.42.95-3.64.04-1.44-.88-2.74-.75-4s1.45-1.77,1.55-2.51c.08-.61-.57-1.41-.43-2.15.59-3.15,6.85-3.59,7.29-5.21.46-2.58-2.54-3.84-2.58-6.29-.05-2.39,3.64-6.49,3.71-8.48.03-.98-.96-1.65-1.05-2.36-.29-2.28.4-14.55,1.76-15.42,1.05-.68,4.87.76,5.13-2.35.13-1.55-1.99-.57-2.42-1.68.61-1.33,1.84-3.6,2.04-4.95.28-1.83.02-7.46-.26-9.24-.55-3.37-.3-5.1-3.73-6.41l1.39-6.91c-.33-1.88-2.14-2.1-2.78-2.88Z"/>
  </g>
</svg>