<?xml version="1.0" encoding="UTF-8"?>
<svg id="Layer_2" data-name="Layer 2" xmlns="http://www.w3.org/2000/svg" viewBox="0 0 1884.83 1233.83">
  <g id="Layer_1-2" data-name="Layer 1">
    <g>
      <path d="M1883.32,538.05c-1.36-5.67-3.47-11.33-5.66-17-.83.32-1.69.18-2.62-.93l.94-3.41c-1-2.59-1.97-5.19-2.87-7.8-.17-.39-.3-.78-.4-1.18-.81-2.41-1.53-4.83-2.14-7.26-.26-.4-.47-.83-.5-1.31,0-.18.02-.37.06-.56-.72-3.29-1.19-6.6-1.28-9.95-.77,0-1.52-.03-2.09-.21-1.02-.33-1.59-1.04-2.24-1.77-1.24.54-2.72.62-4.25-.11-1.06-.5-2.08-1.05-3.05-1.65-2.36.85-3.2,2.78-4.67,2.78-2.1,0-2.89-3.1-4.99-3.09-1.76,0-2.51,2.52-4.51,2.04-.59-.57,3.87-6.69,4.41-7.07.79-.56,1.69-.75,2.54-.82-2.81-3.34-4.88-7.31-6.14-11.81-.41-1.44-.73-2.9-1.01-4.37-1.42-1.94-2.8-3.91-4.09-5.93-2.98-.85-6.05-1.2-9.7,0,.44-4.24,2.96-5.44,6.04-6.07-1.67-2.94-3.24-5.94-4.7-8.99-1.93-1.52-3.83-3.07-5.69-4.65-1.6.76-2.34,2.53-4.07,2.65-2.69.18-7.04-2.99-7.94-2.82-1.14.2-1.94,2.69-4.15,2.91-4.03.4-12.82-2.36-17.78-1.03-.55.15-2.76,4.11-4.8,5.42-6.98,4.48-19.24,1.58-16.9,14.6-.47.48-9.93-.55-12.32.18-2.33.71-2.7,3.91-4.11,4.89-2,1.4-4.15.43-5.37,1.14-.55.32-.71,2.33-2.23,3.24-3.04,1.83-9.62.95-10.83,1.69-1.45.89-1.62,10.09-6.64.85l-3.43,3.63,3.44,4.36c.02,3.67-4.03,1.19-6.13,1.12-4.11-.15-5.01-.82-7.97-1.13-3.72-.39-13.78,9.54-18.41,11.51-2.36,1.01-13.56,3.21-16.49,3.51-5.35.54-11.51-.03-16.82-.87-2.8.67-3.02,7.34-6.05,6.78-3.66-3.42-5.52-5.27-10.11-1.91l-3.54-7.01-3.67,4.07c-7.03-2.27-19.93,2.31-24.17-4.72-2.48-4.13-6.18-11.28-9.11-14.89-1.96-2.42-8.87-4.18-10.14-5.86-1.37-1.81-.3-4.74-1.88-6.12-1.27-1.11-5.52-1.24-7.31-2.43-1.54-1.03-2.56-4.39-5.35-5.91-3.18-1.74-8.4-1.09-9.4-5.62l2.03-4.5c-5.72,1.64-5.74-2.92-8.05-4.45-2.4-1.59-7.43-.79-9.54-2.46-1.35-1.07-1.34-3.78-3.43-5.57-3.26-2.79-13.63-6.74-18.02-9.98-7.12-5.24-6.32-15.96-17.53-16.48-1.42-1.83,2.71-7.96,4.1-9.04,4.17-3.22,2.84-1.37,7.01-5.99,1.53-1.7,5.25-2.77,7.36-4.64,6.79-6.02.47-10.73,4.65-17.36,3.57-5.68,6.63-4.68,11-7,1.57-.83,9.52-8.1,10.33-9.67,2.83-5.5-.61-13.13,2.08-17.92,2.97-5.29,9.86-2.18,11.04-4.96,1.45-3.42-4.84-2.29-4-7.92.97-6.57,8.89-8.27,9.8-11.29,1.53-5.11-2.08-7.18-1.85-9.74.17-1.98,2.42-2.74,2.87-4.24.71-2.38-.33-5.25.39-7.61.97-3.21,4.49-1.93,1-8.4-1.26-2.33-4.71-4.12-4.09-6.61.72-2.9,4.64-2.41,6.83-3.26,2.48-.96,4.29-3.5,8.08-2.43.87-5.41-2.39-1.93-5.34-2.31-5.21-.67-6.37-6.27-6.81-6.54-1.28-.8-5.1.78-6.42-1.08.87-5.06-2.43-11.58-2.45-15.55-.03-5.19,3.13-16.32,1.8-20.81-.4-1.33-2.24-2.53-3-3.99-2.59-4.95-1.11-7.79-8.75-6.75-1.14-6.32-4.98-13.53-8.19-19.31-.89-1.61-3.34-2.96-3.71-4.37-.64-2.43,1.67-4.49.39-7.25-.41-.89-7.21-9.42-8.15-9.9-3.81-1.95-7.71-.44-11.65-2.35-3.51-1.7-8.61-8.39-11.67-9.33-3.7-1.15-9.31-.49-13.43-2.37-1.63.5-2.02,4.23-3.16,5.9-2.38,3.46-5.92,4.04-4.47,10.04-17.86-4.03-15.57,2.44-21.96,13.53-1.69,2.93-6.61,7.21-7.5,9.5-1.02,2.6.11,5.1-1.46,7.54-1.1,1.72-8.55,5.43-11.54,9.46-1.23,1.66-1.33,4.23-2.47,5.53-.18.21-.4.38-.62.53-1.38,4.17-3.6,8.23-5.87,11.76-.15,1.99-.4,3.85-1.06,5.17l-2.27-.37c-1.5,2.06-3.05,4.1-4.68,6.08-.72,1.31-2.94,5.01-3.13,5.21-.68.73-1.74,1.05-2.74,1.43-.84.89-1.69,1.76-2.55,2.62-.33,1.74.24,3.72-.37,4.82-.22.4-2.74,1.18-3.83,2.66-3.64,4.95-.11,7.73-10,5.95-2.2,2.28-1.22,7.13-2.87,9.18-.92,1.15-3.2,1.24-4.53,2.47-1.44,1.32-2.56,4.52-3.91,5.59-1.71,1.36-5.31,1.92-7.69,3.81-3.85,3.06-6.44,8.72-11.5,12.5-4.41,3.3-12.19,5.75-13.95,11.09-.46,1.39.51,2.83,0,3.91l-2.23,1.87-11.3-.85c-2.12-1.83,8.43-4.69,7-7.99-3.33-1.58-8.42-1.32-11.3-2.21-6.05-1.87-9.91-5.3-14.77-8.23-1.49-.9-10.99-6.26-11.63-6.41-1.52-.35-3.09,1.04-4.61.7-1.26-.28-3.91-3.88-5.98-5.06-3.74-2.13-8.58-2.79-12.93-5.07-2.75-1.44-6.36-4.97-8.87-6.13-8.33-3.84-15.68-5.11-23.84-10.16-2.39-1.48-3.9-4.87-7.51-4.44-1.68.2-2.73,2.15-4.97,2.04-.45-.02-7.53-2.14-8.61-2.51-4.94-1.69-9.64-5.03-13.66-7.34-2.14-1.23-5.95-.67-7.34-1.66-1.24-.87-.69-3.75-2.61-4.39-4.12-1.39-9.43.2-12.79-.12-1.97-.19-9.84-4.05-13.31-4.78-2.86-.6-6.09.34-8.57-.43-1.79-.55-3.32-3.83-6.66-2.84l-.04-3.97c-4.8.03-9.58,1.85-14.45.95-1.8-.33-3.1-1.87-4.73-2.26-12.37-2.95-26.4-4.41-37.62-8.39-2.75-.97-6.27-2.73-8.98-3.06-5.76-.72-10.06,2.61-16.14-.81-1.39-.78-2.47-3-3.78-3.33-2.15-.55-5.02,3.68-8.33,1.44-3.29-2.23,1.61-4.97,2.46-6.6,3.97-7.55-2.93-14.05.43-22.24l-5.84-4.27,4.02-7.95-4.05-3.98c6.15-6.73.83-6.86.02-11-1.18-6,.84-15.9-.04-21.91-.35-2.41-3.97-10.79-3.97-12.08,0-1.22,1.63-2.45,1.92-4.08.34-1.87,1.21-7.33,1.07-8.83-.33-3.47-7.27-11.08-9.18-14.91-3.68-7.35-6.23-17.07-6.86-25.22-.17-2.23,1.35-4.13.65-6.48-.22-.74-7.17-11.53-8.15-12.94-1.8-2.58-9.12-7.41-8.3-10.3.25-.89,1.68-1.85,1.69-2.26.05-1.38-4.16-2.52-5.29-3.55-5.2-4.77-5.14-11.61-7.87-14.63-1.13-1.25-4.05-2.14-5.7-3.8-2-2.01-6.42-8.3-8.01-8.98-2.49-1.07-7.59-.41-9.68-2.82-1.54-1.78-2.11-6.25-6.27-7.34-3.59,1.79-10.68.38-13.08,3.07-1.1,1.23-1.09,4.18-2.91,5.09-2.7,1.34-6.14-.23-8.75,2.18.02,1.66-.68,3.32-2.08,4.26-.26,1.9-.12,3.75-1.18,4.54l-6.55,2.49c-.62-.77-1.96-1.54-3.65-2.18-2.62,3.03-5.42,5.92-8.27,8.76-1.32,1.32-2.86,1.66-4.26,1.37-2.06,1.95-5.51,5.16-6.52,7.31-.86,1.83-3.42,10.58-3.55,12.46-.15,2.22,1.09,4,.61,6.52-.48,2.51-3.6,4.36-3.78,5.38-.24,1.4,2.07,2.53,2.68,4.12,2.46,6.42,1.53,31.17,2.36,40.64.38,4.26,2.89,13.67,1.73,17.87-.6,2.18-5.5,5.66-5.86,8.22-.36,2.52,2.69,1.08,4.12,2.91,3.76,4.79-2.76,9.57-3.1,13.19-.26,2.74,2.85,6.3,1.96,11.88-.24,1.49-1.94,2.67-1.78,3.85.28,2,4.16,8.9,4.76,12.25.44,2.45,1.32,13.63,1,15.87-.43,3.11-3.29,6.91-2.96,10.57-2.84.9-3.85-2.22-5.69-2.8-7.68-2.41-8.89,5.29-12.98,5.65-4.99-4-5.44-3.76-11.75-2.76-1.39.22-8.47,2.89-8.94,2.81-.94-.15-1.72-2.01-2.68-2.37-2.65-.98-5.75-.99-8.32-2.41l-2.72,4.79c-5.79-.59-11.38-.13-14.54-5.86l-7.38,2.94c-.44-1.93,1.37-5.15-1.53-5.03-4.23.17-3.4,2.85-5.55,4.46-1.78,1.33-5.54,1.62-7.44,3.49-5.44-11.05-9.13-8.03-18.77-4.7-1.93.67-3.51,2.54-5.28,2.79-3.92.55-6.44-2.58-9.89-3.05-6.36-.87-13.92,1.53-19.92,1.01-2.16-.19-4.1-1.8-6.19-1.9-4.86-.24-15.93,4.29-19.01,2.01-2.03-1.51-2.2-6.15-6.82-5.14l-4.12,6.07c-2.41.51-2.73-3.45-2.49-5-5.77,2.65-10.54.61-16.21,2.29-5.07,1.5-8.61,6.05-13.38,6.63-4.17.51-7.79-1.05-11.91-.99-23.56.36-48,15.28-69.14,16.01-2.7.09-5.14-1.47-7.62-.77-2.56.72-3.48,4.51-5.2,5.87-3.11,2.45-18.01,3.34-22.96,4.04-2.04.29-3.57,1.67-6.03,1.97-6.33.76-13.61.92-19.53-1.04l-1.54,6-5.95-2.09-4.04,5.1c-4.77-4.05-6.28.77-11.47-.02-.39-.34,2.78-4.43-1.49-7.1-2.2-1.38-3.45.41-4.87,0-1.57-.44-1.63-3.21-3.3-3.75-2.35-.76-8.31,1.31-7.36-3.65.18-.93,1.99-.34,2.91-1.06,1.15-.9,2.29-2.53,3.47-3.1-1.36-.52-2.69-1.11-3.99-1.78-1.7-.02-3.56-.45-5.72-1.72-4.47-2.63-7.95-8.85-11.61-12.39-1.8-1.73-4.48-2.19-6.07-3.93-2.6-2.84-1.57-5.82-7.53-6.47l1.12-7.12c-2.12-1.26-4.36-1.04-6.53-2.47-2.81-1.85-2.63-4.74-4.06-5.94-1.08-.91-3.42-.89-4.93-2.07-1.37-1.07-11.64-10.23-12.11-10.89-1.89-2.64.04-7.04-2.43-9.57-1.58-1.61-4.59-1.36-6.45-2.55-2.76-1.77-2.81-6.7-8.05-5.46,1.72-6,3.04-5.26-1.02-10.47-4.69-6-7.96-4.69-10.99-7.01-1.17-.9-.86-3.49-1.93-5.07-3.62-5.32-10.62-5.7-12.12-7.88-1.5-2.17-.44-4.65-1.4-6.6-.92-1.88-3.8-1.59-4.99-3.01-1.16-1.37-.87-4.43-2.98-6.02-1.29-.98-10.35-3.03-12.01-2.91-.48.04-8.82,2.46-9.31,2.7-1.97.96-2.24,3.14-3.24,3.78-1.86,1.21-5.33-.16-8.31-2.21-3.01,4.65-6.99,8.16-11.58,10.61-1.62,4.21-3.47,7.72-5.6,8.12l-6.5-1.03c-.2,3.69,3.56,10.63.53,13.06-.99.79-2.84.59-3.6,1.59-4.26,5.59,8.16,7.04,7.12,13.81-.76,4.96-8.38,1.32-10.52,7.6-1.08,3.18.19,4.4.37,7.33.07,1.11-1.16,2.64-.8,3.95.48,1.76,5.46,2.65,5.94,6.22.4,2.94-1.92,4.31-2.14,6.92-.2,2.38.94,4.21,1.01,6.12.07,1.93-1.27,3.71-.78,5.67.46,1.82,6.61,6.36,8.25,8.84,2.79,4.21,2.54,8.37,4.16,11.84.35.75,8.25,13.09,8.76,13.75,1.34,1.74,4.87,1.57,6.94,4.56,3.93,5.68-.04,10.43,1.16,15.79,1.12,5.04,8.59,8.65,9.4,12.68.43,2.17-1.62,4.79-.66,7.59.73,2.14,5.06,2.95,5.62,3.9.76,1.3.03,4.66,1.12,6.18.51.71,3.29.68,5.19,2.01,3.7,2.59,3.07,6.1,4.89,9.11,1.36,2.24,7.86,6.67,8.49,8.41l.36,12.33c-1.67,3.08-4.86,4.5-7.36,6.68-4.43,3.86-6.76,4.62-10.4,7.6-2.07,1.7-3.9,5.97-6.08,6.92-3.5,1.54-8.96-1.07-11.25,3.77-1.37,2.9.66,5.37-4.3,5.67-1.45.09-3.49-1.25-4.47-.52-.88.66-3.94,8.93-6.42,10.65l-15.12,4.87c-3.83,5.99-5.73,13.71-12.68,16.32-2.1.79-4.24.43-5.94,1.05-7.35,2.68-11.55,11.2-19.8,10.7v4s-5.99-1.99-5.99-1.99c3.39,12.02-4.15,7.91-8.05,10.45-1.11.73-1.23,4.75-3.99,6.01-1.58.72-3.83.25-5,1-.84.55-1.68,4.3-2.96,6.04-2.71,3.71-9.67,7.15-12.53,11.48-2.74-.26-2.3-3.04-2.58-5.24-.03.04-.06.09-.09.13-.68.87-1.46,1.55-2.3,2.09,1,3.08,2.49,6.07-.05,9-1.02,1.17-2.87,1.05-4,1.99-5.7,4.75-13.04,7.98-18.99,13.01-1.15.98-1.52,2.65-2.47,3.53-4.14,3.81-9.53,5.35-8.01,12.5-3.43-2.94-10.11,3.22-11.44,6.05-.89,1.88-.49,4.91-1.46,6.32-.58.84-2.84.88-4.14,2.07-1.66,1.53-5.34,6.72-5.97,7.12-2.04,1.28-5.43-1.96-7.57.35-2.86,2.27-.43,4.56-.49,6.67-.12,3.92-5.61,3.61-6.67,4.68-.88.89-4.08,7-6.27,8.23-3.97,2.23-9.33-1.69-8.99,7.52-5.6,1.65-2.64-8.33-7.52-5.03-1.75,2.82.55,14.26-1.98,15.03-3.3,1-3.56-3.32-5.24-5.03-1.88-1.92-5.51-2.78-7.32-4.4-1.98-1.76-2.33-4.51-3.98-6.02-1.53-1.41-5.65-2.12-6.47-3.53-.83-1.42-.26-3.49-.68-5.15-1.09-.29-2.17-.63-3.24-1.01-2.07,1.76-4.6,5.6-6.26,5.98-7.09,1.65-9.76-5.95-14.34-9.3-4.28-3.13-11.84-6.47-15.99-10.01-5.53-4.71-9.54-18.73-18.44-12.53-2.37-1.65-1.33-4.57-1.56-6.97-10.35,1.58-8.98-8.5-11.94-11.55-1.66-1.72-5.09-1.02-7-2-1.52-.78-2.4-3.77-4.66-5.34-2.53-1.76-5.41-1.85-8.05-2.95-4.71-1.98-5.64-5.1-10.79-2.19l-1.04-2.01,3.51-1.01c.55-6.77-8.21-5.79-11.57-7.91-2.35-1.48-2.39-5.49-4.43-6.57-4.54-2.38-11.93-2.56-16.45-3.55-3.5-.76-7.76-3.29-12.06-3.05-3.24.18-3.77,2.83-6.04,3.15-3.08.43-4.34-2.22-6.69-1.92-.56.07-9.51,4.33-10.28,4.83-1.47.95-5.55,6.37-6.02,7.98-.76,2.64.14,6.25-.95,8.05-.67,1.11-3.31,1.53-4.02,2.98-1.16,2.37.16,5.4-1,8-.68,1.54-4.53,4.1-5.92,6.08-1.54,2.18-5.89,11.17-5.59,13.35.23,1.69,2.81,4.82,3.59,7.52,1.24,4.32-.47,7.29,4.34,10.76l-1.85,6.69c.75,2.16,4.56,1.16,5.51,2.53.8,1.16.26,4.22.88,6.12.63,1.93,3.04,3.65,3.41,5.68.4,2.25-1.46,4.65-.43,6.28l13.14,6c-.34,4.07.11,6.27,2.02,9.9,3.78,7.2,2.2,4.36,3.65,12.35.46,2.54,2.6,5.2,2.74,7.3.16,2.49-2.17,5.51-1.85,6.84.36,1.45,4.47,2.57,5.37,4.61.93,2.12-.01,4.49,1.43,6.57,1.18,1.71,6.73,2.81,9.42,4.58,9.27,6.12,8.54,9.2,20.9,14.1,8.04,3.19,4.3,7.09,6.19,9.81.76,1.09,3.29.76,4.51,1.49,1.24.75,1.89,2.11,3.13,2.87,2.84,1.72,7.74,2.16,8.93,7.05l-5.59,3.51.59,4.01c3.7.19,4.27-2.92,6.51-5,2.22-.5,2.76,4.17,5.19,4.86,2.35.67,4.51-1.11,6.27-.4,4.29,1.74,7.71,11.31,11.5,13.56,3.03,1.8,7.18,1.65,10.4,3.1-1.52,13.5,5,7.67,11.42,11.08,2.92,1.55,2.17,3.48,3.69,5.31,4.24,5.12,17.33,5.46,17.85,8.07l.13,4.96,9.11.89.94,8.56c2.32.46,2.89-2.29,4.71-2.83,4.75-1.4,6.34,2.89,9.35,4.27,4.93,2.25,4.86,1.55,10.01,4.99,1.14.76,3.23.37,4.45,1.55,1.33,1.28,1.12,4.28,2.04,5.96,5.12,9.41,5.23,16.4,8.98,24.02,2.6,5.27,11.34,6.98,8.25,17.34-1.35,4.53-8,2.64-1.64,12.05,3.23,4.78,8.12,5.17,7.31,13.71,1.16,1.87,4.04-1.7,6.42,2.57,2.22,3.99.09,8.27,1.61,11.38.58,1.19,4.57,3.21,6.35,5.65,3.09,4.24,4.14,9.77,6.29,13.71,3,5.48,12.74,15.45,15.11,20.89,6.74,15.48,15.89,20.05,22.82,32.18,1.16,2.02.62,4.05,1.46,5.54.78,1.37,4.53,2.29,5.75,5.31,1.19,2.94-.43,4.11-.17,6.1.1.75.25,1.5.42,2.24,1.88,1.68,3.56,3.53,5.05,5.52.53-.86,1.12-1.66,2.11-1.96,10.27-3.15,6.94,3.7,9.24,7.38,1.62,2.59,5.08,2.07,7.17,3.83,2.43,2.05,2.56,6.85,4.86,9.14,3.83,3.81,13.29,4.39,11.05,13.46l4.98-1.99c.56,2.5,1.3,5.53,2.99,7.52,2.46,2.91,5.03,1.98,7.09,3.91,1.44,1.35,2.1,4.7,3.5,6.5,3.33,4.27,10.91,12.16,15.5,14.5,4.32,2.21,8.91.04,4.94,8.55,2.91,2.72,6.87-.11,7.98.43.42.2,4.31,4.15,4.51,4.6.74,1.69.16,4.04.66,4.83.37.59,2.67.48,3.61,1.39,1.23,1.18,1.89,5.27,4.68,6.82,2.93,1.63,6.07.21,8.16,1.84,2.33,1.59.71,5.26,1.61,6.9.26.48,6.72,5.26,8.33,7.16,1.33,1.57,1.97,4.85,3.44,5.63,1.91,1.02,2.76-1.56,4.51-1.58,2.8-.03,11.86,6.63,14.06,8.94,4.81,5.06,7.68,8.86,14.51,12.49,2.07,1.1,12.92,4.1,13.93,5.58-.58,1.38-2.07,2.58-3.37,3.74.02.04.05.08.07.13.62,1.21,1.13,2.43,1.56,3.66.54,1.11,1.16,2.18,1.81,3.23,2.26-.15,3.61-2.09,6.33-1.79,2.19.24,5.8,2.55,8.71,2.6,1.74,2.35.05,5.39.29,6.97.21,1.39,2.8,2.11,2.54,3.82-.18,1.15-2.58,2.52-4.42,4.03.04.47.05.97.05,1.25-.03,1.67-.52,2.8-1.59,4.09-.44.53-1.1.93-1.83,1.18-.4,1.54-.79,3.09-1.37,4.35-1.59,3.46-5.59,4.6-3.78,10.72-.39.07-.71.04-.99-.04.07,1.72-.39,3.17-1.34,4.63-.18.27-.39.53-.61.76.23,1.07.26,2.25-.05,3.65l-6.47-.04c-2.75,3.81-1.98,13.69-5.04,15.03,0,0,0,0,0,0-.8,2.74-2.29,5.22-4.96,7.23l2.55.22.93,4.56c-1.1-.84-2.45-.92-3.74-.69-.22.84-.62,1.62-1.25,2.21-1.38,1.3-2.86,2.18-4.47,2.73,1.33,1.02,2.5,2.28,2.44,4.29-.03.99-6.47,9.4-6.97,11.98-.81,4.19.28,9.28.02,12.93-.33,4.65-2.18,12.86-1.93,17.11.11,1.83,2.64,3.07,1.81,5.79l-2.41,1.68c-.67-3.7-5-1.81-4.49.46,5.61,3.57,4.81,8.57,6.58,13.43,2.4,6.57,6.34,9.62,6.46,18.55.06,4.94-2.11,5.23,2.54,10.45,3.4,3.82,9.36,6.96,12.96,12.04,2.98,4.2,3.99,9.61,7.47,13.53,1.92,2.17,4.61,3.28,6.52,5.48,1.8,2.08,9.75,13.28,10.68,13.81,1.54.89,4.99-.34,7.14.37,1.48.49,2.89,4.54,5.94,6.06,7.17,3.58,18.36,5.84,19.65-4.78l2.55-1.44c2.89-.38,6.76,6.51,8,6,2.76-1.16-.58-7.47.57-9.94l11.79-1.21c3.28-8.65,10.95-14.84,9.56-24.91,1.11-1.62,6.36.59,10-5.02,3.99-6.15,7.83-10.13,9.35-17.65.7-3.46,2.94-12.48,3.2-14.82.16-1.42-1.22-3.07-.54-4.46.84-1.71,7.34-4.26,9.51-4.04-.24-4.49,2.53-21.62,5.53-23.98,1.14-.9,3.51-1.08,4.13-1.93.88-1.2-1.47-4.05-.1-7.01.3-.65,6.99-8.35,7.53-8.56,1.71-.67,3.42.91,5.26.41,1.67-.46,5.36-4.19,9.32-3.77l12.92-21.08c4.41-3.64,13.75-1.07,13.48-8.03l2.89,1.68-.89,6.32,9.95-2.09c.1-2.61-.58-3.38,2.54-2.89.54.24.83.79,1.04,1.49.92-.82,2.14-1.34,3.41-1.39,1.4-.06,2.64.55,3.53,1.51,2.19-.11,4.95.43,5.98.35,1.98-.15,3.54-1.9,6.05-2.03,8.02-.43,10.83,7.17,18.11,7.95,5.72.61,8.08-1.62,11.85-1.72,2.52-.07,6.15,1.61,9.05,1.82,5.94.43,18.83,0,23.79,1.17,1.46.35,2.27,2.89,4.19,2.9,1.97,0,2.81-3.2,6-3.16,2.13.03,3.3,1.76,5.05,2.06,7.51,1.31,7.2,2.29,12.11,3.73,1.21.36,6.55.07,8.77.4,2.52.37,5.33,3.74,8.98,1.02,1.34-1-.3-5.45,4.15-6.12,6.67-1.01,3.2,6.28,5.98,7.01,5.61-2.33,7-3,11.97,1.06l4.02-5.05c4.69,3.86,7.71,4.93,14.04,4.05,3.55-.49,6.75-5.07,10.97-5.91,2.3,1.38,11.18,13.8,12.1,13.95,1.93.3,3.83-1.91,5.82-1.97,4.1-.12,10.54,1.25,14.93.81,4.03-.4,8.57-3.37,11.35-3.73,2.07-.27,5.01,1.02,7.8.88,3.88-.19,8.63-2.47,13.26-2.81,2.27-.17,4.31,1.09,6.64.73,2.24-.35,4.57-3.58,7.66-1.57l.94,3.55c4.88-2.67,7.26,1.36,9.61,1.74,3.9.64,16.24-.85,20.12-2.47,2.86-1.2,2.83-4.61,5.77-5.33,3.4-.33,8.6,8.54,15.97,7.13,3.23-.62,1.54-5.98,9.07-6.12,3.22-.06,4.4,1.99,6.93,2.17,3.17.21,5.82-2.5,7.8-1.98,1.45.38,2.53,3.19,4.11,2.86,1.55-.33,2.2-3.43,2.8-3.76,1.23-.68,3.47.23,4.83-.67,1.32-.87.61-4.62,3.43-4.59,6.28.07,4.89,10.79,11.52,9.05-1.1-7.46,10.69-7.04,16-7.01-2.94-6.79,4.9-12.57,10.91-12.9,1.28.89,1.39,11.82,6.09,8.25-1.01-4.15,7.65-9.37,11.08-6.9l.99,3.48,6.93-.47c3.69,7.56,2.38,3.46,7.56,1.61,4.94-1.76,8.92.28,11.7-.26,2.64-.51,5.28-5.09,9.28-5.75,8.88-1.46,15.35,6.21,22.08-3,6.73,5.91,5.91.74,10.33-.64,3.33-1.04,5.47.88,7.35.43,1.84-.44,3.14-3.84,5.43-4.61,2.28-.77,5.62-.58,8.5-1.5,1.37-.44,2.21-2.15,3.47-2.52,6.87-2.06,14.92,3.99,16.66,3.68,1.47-.26,2.68-4.32,5.66-2.45,3.09,1.94,1.79,6.61-.04,9.03,5.38,1.62,5.32,5.04,8.01,8.02,2.57,2.85,5.99,6.9,8.56,9.44,1.54,1.52,4.27.99,4.91,3.94.26,1.2-.87,2.72-.01,4.08.65,1.03,3.04,1.67,4.1,2.98,5.36,6.63,9.63,10.17,14.97,16.03,2.41,2.65,4.64,8.81,5.98,10.02,1.31,1.19,3.14.83,4.43,1.57.67.39,6.71,9.51,6.88,10.12.65,2.22-.48,5.7.65,7.35.66.96,3.02.98,4.1,1.9,4.32,3.67,5.35,20.17,8.36,24.41.74,1.04,3.64.85,5.14,3.09,1.41,2.1,9.54,16.02,10.18,17.81.84,2.34.43,4.78,1.28,6.72.56,1.27,3.65,4.55,6.07,7.31,7.22,2,11.98,7.35,17.76,11.86,4.54.16,9.04.66,13.43,1.67,2.16.5,3.43,2.4,3.59,4.41,1.04.26,2.07.53,3.09.85,1.29-.93,3.2-1.43,6.06-1.16,1.87.18,2.88.58,3.32,1.13,3.98-.71,7.76-.02,10.86,3.6.79-.68,1.85-1.1,3.16-1.1,3.92,0,7.92.12,11.88-.07,6.91-1.71,13.28-5.74,19.52-9.54.37-1.01.73-2.03,1.05-3.06.24-.77.61-1.4,1.06-1.9,1.28-6.67,9.05-10.22,9.36-12.46.4-2.93-3.95-2.32-4.6-4.14-2.26-6.3,3.52-15.43,10.36-15.5,1.94-.02,3.64.88,5.5,1.12.18-8.37,6.51-3.05,7-10.5.27-4.11.59-6.72,1.36-10.85.42-2.28,2.52-3.76.49-6.51-9.02.22-4.78-3.4-4.75-8.65,0-1.33-7.54-19.48-8.32-20.26-.9-.9-4.89-.39-5.68-2.9-.9-2.84,2.18-4.06,1.54-6.36-.49-1.77-3.58-4.38-4.69-6.43-6.29-11.62-6.77-15.53-15.8-26.2-1.51-1.78-4.76-8.01-6.14-8.9-2.22-1.42-8.49,5.15-7.52-3.46h4.5c0-2.01.36-4.05-.51-5.98-.32-.71-9.25-11.69-9.92-12.08-1.97-1.13-5.38-.74-6.13-1.87-.82-1.23-.12-3.76-.64-5.36-.45-1.4-2.21-2.1-2.6-3.41-.47-1.58.2-4.59-.33-5.18-.35-.38-2.15-.07-2.84-.6-1.46-1.13-.66-3.24-1.53-4.52-.81-1.2-3.53-1.09-4.61-2.39-2.61-3.17.45-13.62-9.89-9.61.52-3.04-.98-9.64.48-12.01.77-1.26,3.38-1.41,4.49-2.51,2.01-2,1.96-6.41,6.77-7.33,3.66-.7,4.49,2.29,6.87,2.59,2.71.34,6.02-2.39,6.89-2.35.79.03,1.63,1.68,3.73,1.49.63-.06,8.45-2.04,8.82-2.31,1.45-1.08.52-3.91,1.06-4.44.35-.35,2.6,0,3.81-.65,1.39-.75,2.25-2.44,4.01-3.02,3.92-1.28,8.75.41,12.35-.65,2.22-.65,5.5-6.71,8.21-8.79,10.32-7.87,18.54.49,27.78-2.22.35-.1,5.92-3.56,6.18-3.82,1.6-1.59,1.6-4.75,4.61-6.39,2.93-1.6,8.68-1.06,9.77-1.73.66-.41.66-4.08,2.82-4.75,2.61-.82,3.95,1.56,4.85,1.58.82.02,11.9-7.88,13.48-9.17.86-.7,1.38-2.46,2.51-3.49,1.37-1.26,6.53-4.12,6.98-4.96.48-.89-.9-2.67-.07-4.04.21-.34,6.16-4.31,6.53-4.45,1.13-.4,4.22.64,6.43.38,6.88-.8,8.93-8.99,15.2-11.94l-1.42-7.29c4.47-3.78,5.84-11.01,12.29-11.71,1.91.52.66,8.05,6.56,5.53,1.92-1.31.02-3.46.26-4.89.22-1.35,2.28-2.57,2.55-4.35.21-1.4-1.15-3.28-.42-4.32.64-.93,7.9-3.48,10.14-5.92,2.43-2.65,2.28-7.5,4.43-8.57,3.18-1.58,8.19,1.19,10.59-2.49l-1.53-6.38c.48-1.5,5.71-2.05,7.23-5.92,1.6-4.06-4.1-5.25,1.82-9.11,3.63-2.37,5.54-1.55,8.74-6.25,2.75-4.05,3.34-11.52,4.68-13.32,1.1-1.48,4.44-.92,5.3-3.7l.67-11.33c2.19-1.08,8.65-5.99,8.39-8.31-.12-1.07-1.67-2.34-1.63-3.18.02-.35,4.01-5.25,4.28-5.47,3.66-3.05,13.69.04,15.28-5.72,1.06-3.85-1.51-6.18,2.85-9.15.49-.33,5.78-2.86,6.11-2.92,3.72-.72,10.81,3.77,11.22-5.18l-4.95-2.54c2.16-3.63,4.55,1.74,6.86.37,1.64-4.92,12.46-9.89,13.59-14.75.28-1.18-.85-2.81-.03-4.11,1.14-1.82,5.94-1.65,7.08-3.99,1.19-2.42-.27-6.45.91-8.09.78-1.08,3.28-.75,4.5-1.5,3.45-2.12,6.29-7.27,11.06-6.44-.02.14-.02.26-.03.4,3.7-5.1,7.14-10.34,9.56-16.12-1.04-.15-1.98-.34-2.54-.75-4.21-3.1,3.97-8.31,5.42-10.6,1.47-2.33,3.4-10.64,4.57-11.42.71-.47,1.65-.7,2.7-.8.9-2.67,1.72-5.33,2.38-8.04-1.2.77-2.65,1.94-3.06-.16-.37-1.9,1.92-3.67,4.18-5.39.24-1.5.41-3.02.53-4.56-.34.06-.61.09-.75-.01-2.99-2.17.85-5.1.93-6.96.06-1.42-1.17-2.71-.72-4.78.21-.98,3.43-7.07,4.27-7.82.82-.73,8.04-3.76,9.13-3.94,3.78-.61,5.88,1.95,7.74,1.76,1.07-.1,2.23-1.4,3.38-1.57,4.57-.7,8.73-1.41,13.28-2.22.77,13.12,5.31,4.29,8.71,3.22,8.8-2.77,19.8-4.14,28.55-6.45,5.49-1.45,12.56-10.58,16.02-9.62,2.11.59,4.72,5.33,8.72,3.86-.07-3.7,1.85-11.52,6.43-11.03,1.86.2,3.91,3.09,6.49,1.94,1.22-12.94,11.01-5.35,16.59-12.91,2.72-1.18.46,4.18,2.42,5.55,2.32,1.63,7.83.38,8.08-3.08.2-2.79-2.93-6.01,1.43-8.55,2.34-1.36,4.42-.54,6.55-1.45,1.74-.74,4.48-5.13,6.51-6.49,5.65-3.78,11.47-4.95,17.54-10.46,1.55-1.41,3.41-5.46,4.9-6,1.35-.49,3.53,1.18,5.12.05,1.55-1.09.41-4.05,1.16-5.37.3-.54,2.83-1.14,3.84-2.66.94-1.42.79-3.28,1.53-4.47,3.88-6.3,10.53-3.78,13.7-7.03,1.42-1.46,1.06-4.26,1.9-4.88,2.03-1.49,6.83-1.12,10.85-5.64,3.46-3.89,1.94-5.51,3.47-8.53.93-1.83,5.01-2.87,5.97-5,.56-7.3.48-14.65-1.2-21.61ZM942.47,916.69c-2.19-.15-6.13,2.83-5.43-1.05,6.98-.81,13.22-9.63,15,2.99-3.46.92-6.67-1.75-9.57-1.94ZM1160.05,1062.12c-.39-1.83,7.42-6.96,8.99-5.48,1.72,3.7-8.23,9.06-8.99,5.48ZM1521.87,612.89c-.3,1.46-10.1,12.47-11.89,14.19-1.15,1.11-3.72,1.36-4.46,2.54-1.65,2.65.62,5.53.28,7.4-.42,2.33-4.88,3.91-5.49,4.89-.84,1.34-.2,4.28-1.75,5.76-1.36,1.3-3.8.54-5.03,1.96-1.13,1.3-.94,5.29-3.49,6.51-.89.42-2,.59-3.23.64-.23.63-.6,1.26-1.17,1.84-4.75,4.82-10.1,11.69-16.55,15.23-2.19,2.51-4.04,4.21-3.57,1.55-1.56.49-3.17.77-4.86.76-.06.14-.12.29-.19.42-7.32,13.97-26.3,21.59-34.01,35.99-1.58,2.95-2.19,8.07-4.41,10.59-1.59,1.8-4.21,1.92-5.47,3.53-1.61,2.05-2.29,6.02-5.01,8.99-6.1,6.66-8.91,5.58-15.78,8.22-5.85,2.25-1.94,4.23-1.76,6.27.13,1.45-.95,2.88-.92,4.08.08,2.9,1.69,5.24-.16,8.35l-2.93.06c.29-1.47-.17-5.63-2.49-5-.45.12-5.25,7.27-5.37,7.72-.65,2.45,1.75,4.85.44,7.34-1.71,2.35-9.59-.93-13.96,3.06-3.14,2.86-2.95,8.08-5.54,10.46-.59.54-12.3,8.63-13.02,8.98-3.31,1.59-6.99.85-8.87,3.93l1.8,3.5c-4.96.8-10.16,1.94-13.08,6.48-1.74,2.7.89,4.35-.86,6.03-2.4,2.3-4.86.38-7.5.46-1.69.05-3.26,1.06-4.98.99-4.34-.18-6.68-3.67-12.82-.7-3.11,1.51-2.12,4.89-5.75,6.28l2.04,3.97c.19,1.17-.67,2-1.7,2.34-5.31,1.73-4.26-2.78-6.72-2.82-7.83-.12-13.29,3.26-19.2,3.99-1.79.22-3.56-1-4.81-.78-4.39.76-4.51,8.55-5.56,9.32-1.79,1.32-8.89.9-11.34,1.66-3.18,1-6.38,9.11-7.72-2.22-1.54-1.58-14.27,6.89-16.98,7.61-2.46.66-4.22-.99-6.29-.47-1.76.45-5.07,5.48-7.77,6.37-1.97.64-3.88-.99-6.23-.35-1.72.47-3.11,3.3-4.76,4.31-2.13,1.3-10.64,6.49-11.98,7.07-1.19.52-9.49-.04-12.24.71-7.77,2.13-16.04,8.31-25.5,9.58-2.76.37-4.54-.94-5.65-.85-.34.03-4.33,3.36-5.16,4.01-.96.75-1.17,2.54-1.63,2.82-1.43.86-7.82-.31-11.82,1.69-3.02,1.51-3.92,4.94-5.68,5.4-1.69.44-3.29-.77-4.67-.6-3.95.48-6.73.34-10.04.72-3.24.38-6.29,4.41-9.31,4.8-4.45.58-13.51-4.35-14.2,2.76l-6.16.88-1.53,3.63-5.39-.08,2.01-5.48c-3.4-2.24-4.27,2.56-6.08,3.92-.46.34-8.99,4.53-9.51,4.6-2.94.39-3.91-1.62-5.96-1.98-6.46-1.11-9.08,1.49-13.93,1.99-3.47.36-6.81-1.27-9.01-1.05-2.32.22-3.01,3.37-5.96,3.07-3.15-.32-7.82-8.73-9.59,2.91-1.11.95-9.37-3.24-12.42-2.93-4.43.44-14.46,5.61-20.15,5.87-1.94.09-3.71-1.08-5.8-.9-2.74.23-5.75,2.7-10.05,3.03-6.01.47-9.25-1.87-13.14-2.01-2.56-.1-4.28,1.97-6.91,2.06-2.14.07-4.27-1.26-5.98-1.1-2.23.21-3.04,3.04-4.99,3.04-1.73,0-3.61-2.97-7.03-3.09-2.34-.08-4.6,1.14-6.99,1.15-2.78.02-5.76-1.4-7.94-1.12-2.59.34-3.92,3.74-5.04,3.76-.47,0-1.35-1.24-2.18-1.34-3.43-.42-9.72-2.17-12.04-2.1-2.01.06-3.48,1.71-5.8,1.79-3.94.15-9.43-2.45-13.47,1.41l1.47,4.51c-3.77.96-3.07-3.58-4.43-4.55-.72-.52-10.81.09-12.59.05-6.04-.13-3.37.58-7.12,1.22-.94.16-13.62.3-15.86.28-8.19-.06-18.29-2.96-26.03-2.03-3.14.37-10.39,4-11.98,4.02-1.61.02-3.2-2.32-5.2-2.79-3.04-.71-9.34-1.33-12.96-1.89-2.48-.38-9.02,2.09-10.69,1.59-1.43-.43-1.64-2.77-2.65-3.4-4.31-2.73-13.5,3.01-18.49,2.51-2.04-.2-2.73-2.54-5.03-3-4.21-.84-8.58,1.76-12.93.96-4.2-.78-10.76-5.09-14.31-6.7-2.36-1.07-12.72-2.5-14.6-1.18-4.23,2.96-1.92,6.02-10.1,1.87l-1.15,2.09-1.8-.04c-3.2-.78-6.87-5.09-10.1-5.11-3.07-.02-3.61,2.92-6.98,3.2-4.5.37-9.62-2.08-13.89-3.19l-2.14,3.08h-1.99c-3.62-9.21-5.72-4.26-11.74-5.18-3.33-.51-6.61-4.06-8.48-4.6-4.35-1.26-11.91-.68-16.6-1.4-5.41-5.7-15.23-4.55-21.51-8.41l.38-3.4c-2.68-2.9-6.6-1.45-9.84-2.23-12.48-3.02-22.71-9.15-35.31-11.69-1.73-.35-3.66.02-5.42-.09,3.25-7.44-8.83-8.32-13.72-10.78-2.53-1.27-4.76-4.02-7.59-5.41-3.75-1.83-9.38-2.37-13.05-4.95-4.04-2.83-10.9-12.38-13.65-14.35-1.84-1.31-6.68-2.9-10.09-4.9-1.07-.63-5.61-2.44-5.78-2.76-.66-1.17.87-3.13.82-4.42-.18-5.04-13.84-7-16.91-8.97-1.42-.91-1.6-2.66-2.75-3.5-2.88-2.09-6.84-1.37-9.14-5.59-1.17-2.14-.98-5.81-3.13-6.92-2.59-1.34-10.21,2.82-13.5-3.45-2.2-4.19,2.6-2.32,2.5-5.99l-7.99.99c-.09-2.99,2.19-4.83-.02-7.47-5.53-6.6-9.44,2.66-13.06.05-2.85-5.82,2.09-13.46-4.4-17.6-2.53-1.62-4.59-.79-7.07-3.93-1.99-2.52-1.83-5.08-3.42-7.63l-10.05.1c-3.33-1.88,4.6-2.43,4.01-5-.45-1.97-8.26-2.09-10.54-3.47-1.9-1.15-6.27-7.34-8.53-9.47-1.22-1.15-3.27-1.29-4.4-2.6-1.64-1.91-.95-4.33-1.8-5.71-.65-1.06-5.67-3.03-5.8-3.93-.26-1.82,2.27-5.11.65-7.42-.47-.64-12.55-2.65-15.16-4.84-1.59-1.33-1.1-3.66-1.99-5.01-5.02-7.7-10.16-11.02-15.97-17.03-2.96-3.05-1.94-7.41-8.45-6.05-.34-3.07.78-7.16-.51-9.99-.96-2.11-8.2-5.95-10.36-9.64-.51-.88-2.31-5.44-2.59-6.48-1.39-5.11,3.47-5.21,7.46-4.9-1.59-3.43-.11-8.52,3.06-10.44,4.62-2.8,5.25.49,5.38-8.62,3.88-1.68,7.16-1.54,10.6-4.4,8.28-6.88,15.24-16.77,22.41-24.59,2.41-2.62,8.27-4.55,9.61-6.39,1.01-1.38.77-3.4,1.51-4.49,5.19-7.58,9.42-3.22,13.94-7.06,2.68-2.27,6.59-10.9,8.51-12.49,1.45-1.21,4.78-.93,6.54-2.46,1.62-1.41,1.8-4.54,3.41-6.59,1.88-2.39,5.14-3.26,7.55-5.45,2.17-1.96,4.8-7.12,5.48-7.52,1.45-.87,4.11-.47,6.38-1.62,2.45-1.25,5.1-6.04,7.32-6.68,2.36-.68,5.02.37,7.37-.63l1.92-8.08c6.35-.82,7.84-3.25,12.07-6.93,5.84-5.07,5.94-5.64,12.87-9.13,2.39-1.2,15.26-12.13,17.5-14.5,2.76-2.93,2.46-9.08,8.56-3.93l.95-5.57,14.09.11-.02-9.55c4.12-.99,5.36,1.51,8.48,3.01,1.69-.68,2.03-4.41,2.72-4.83.78-.48,2.35.12,3.02-.22,1.01-.51.81-1.93,1.43-1.99,1.43-.15,2.75,1.3,4.34.58,1.78-.81,6.06-6.38,9.08-7.98,1.69-.9,3.93-.24,5.54-1.46,1.21-.92,1.51-3.76,2.81-5.19,1.98-2.16,4.55-1.61,6.67-3.33,4.7-3.79,2.08-5.3,10.84-10.16,5-2.78,8.78-5.26,13.58-8.42,2.28-1.5,5.64-2.35,7.55-4.45,4.41-4.86.25-8.53,11.95-5.99,1.79-.93,2.07-4.64,3.89-6.17,1.74-1.46,3.67-1.08,5.04-1.96,1.32-.84,1.7-3.32,3.06-4.02,2.01-1.03,4.19,1.61,6.08-.85,2.05-2.68-1.61-5.35,1.34-7.66,2.99-2.34,6.24,1.26,8.61-.37,3.17-2.18-3.18-5.14.99-7.03,5.84-2.65,7.64,3.33,10.69,4.28.83.26,7.01,1.17,7.95,1.17,3.22.02,3.48-2.64,5.89-2.99,2.84-.41,5.25,1.52,7.88,1.96l5.52-7.55-1.43-2.41c.54-4.35,3.42-.08,5.43.58,9.23,3.05,9.29-4.47,13.8-5.39,5.07-1.03,9.46,2.84,12.74,2.92,1.76.04,6.82-2.62,8.42-3.69,1.14-.76,1.33-2.74,2.75-3.24,5.57-1.97,11.96,5.5,13.95-2.15.62-2.39-.74-3.75-.63-5.52.21-3.57,5.43-3.1,7.98-4.04.97-.36,1.75-2.18,2.68-2.4,1.8-.43,2.51,3.35,5.6,2.77.49-.09,5.59-2.87,5.87-3.23,1.84-2.42-.35-6.66,4.43-7.57,7.28-1.38,15.34-.06,19.06,6.8l18.71-.63c2.39.72,3.39,4.55,6.14,4.72,5.52.34,8.25-5.74,13.19-5.91,3.61-.12,4.12,3.43,5.99,3.75,6.47,1.11,15.52-.76,21.88-.85,2.14-.03,4.11,1.14,6,1.09,8.68-.2,20.24-5.23,28.14-1.6.3.14.03,1.64,1.83,1.69,4.91.14,11.09-1.96,14.03-6.09,4.62,7.12,8.64,1.95,14.27,1.18,2.83-.39,13.49,2.71,16.46,4.1,2.51,1.17,5.1,4.67,6.24,4.76,1.56.12,3.32-1.1,5.03-1.07,5.47.1,7.99-1.04,10.95-1.05,1.66,0,3.41,1.21,5.04,1.08,2.64-.22,3.54-3.96,5.99-3.99,3.07-.05,8.74,4.76,12.02,5.06,5.08.48,6.26-2.62,8.18-2.92,1.41-.22,3.98,2.74,5.86,2.51.97-.12,1.87-2.29,4.01-2.68,3.09-.57,5.76,1.24,7.93,1.01,3.32-.36,2.3-3.78,7.16,1.94,6.58-6.48,9.8,1.77,16.87-3.05l4.98,4.13c4.21-3.51,6.79-1.01,10.98-.98,7.21.07,19.74-1.21,26.07-.06,2.39.43,1.86,2.6,4.41,3.56,7.01,2.63,16.66-.08,25.61,3.42,3.33,1.3,5.62,4.38,7.16,4.84,5.46,1.64,6.66,2.42,11.07,4.12,5.33,2.05,21.12,1.93,27.73,2.07,9.57.21,20.85-1.07,29.79.18,2.31.33,4.23,3.4,6.68,4.35,9.07,3.51,24.29,2.99,32.44,7.6,1.14.64,1.31,2.68,2.29,2.9,1.53.35,3.77-.57,5.1.18.6.33.67,2.93,2.87,3.62,3.66,1.13,10.44-.39,14.75.24,6.17.91,14.43,4.04,19.98,6.02,5.2,1.86,18.82,5.46,22.78,7.95,1.63,1.02,2.74,4.07,5.47,5.8,3.83,2.42,9.73,2.42,12.75,5.27,1.5,1.42,1.33,3.33,2.29,3.92,1.83,1.13,6.82.75,9.34,1.42,3.42.92,8.99,3.8,11.71,4.33,2.28.44,4.36-1.71,7.24-.3,1.89.93,2.64,4.85,4.47,6.55,1.44,1.34,14.45,11.21,15.48,11.52,4.16,1.22,11.89.87,16.03,2.97,2.28,1.16,2.53,5.31,5.06,6.94,4.47,2.86,10.26,4.87,14.92,7.08,2.04.97,4.08,5,6.08,5.92,1.57.72,3.51.34,4.95,1.05,1.82.9,3.41,5.74,6.05,6.95,1.76.8,3.81.27,5.53,1.46,4.46,3.09-1.2,9.33,5.46,12.63,1.92.95,3.67-1.43,5.55-1.58,4.58-.35,3.72,4.28,5.42,5.58.7.54,2.17-.44,3.52.37,8.89,5.33,30,21.33,37.53,28.53,1.58,1.51,2.84,4.64,4.38,5.62,2.39,1.52,5.2.31,7.18,1.82,1.06.81,7.22,11.95,7.92,12.11,1.11.25,2.49-1.87,4.04-2.06,3.87-.46,5.66,5.01,7.91,7.07,1.17,1.07,3.66,1.13,4.62,2.38,1.44,1.87.24,4.76,2.33,6.67,1.66,1.52,4.87,1.32,6.77,2.23,6.91,3.31,19.91,8.32,16.81,17.7l4.5-2.86c3.81,1.72,1.34,6.8,3.92,8.97,2.11,1.79,3.95-.14,6.13-.17,3.04-.05,5.87,3.45,5.28,6.31Z"/>
      <path d="M1158.95,660.27c-.21-1.12-2.79-2.05-2.97-4.19-.17-2,1.67-3.21,2.02-5,1.48-7.57-3.91-8.23-3.95-10.93-.02-1.84,2.21-3.28,1.84-5.79-.86-5.85-9.33-3.99-9.9-9.28-.42-3.96,5.47-4.09,4.97-6.81-4.98-2.73-6.9-14.28-9.4-16.66-1.38-1.31-3.69-.76-5.11-1.89-1.96-1.55-1.46-6.18-3.38-8.62-1.56-1.98-6.58-3.51-7.54-5.46-1.86-3.84.81-12.55.06-14-1.01-1.98-9.01-6.14-10.8-10.26-1.59-3.67-1.2-7.7-4.78-11.3l2.01-3.93c-4.03-2.91-8.36-10.81-6.81-15.8.48-1.54,2.85-2.38,2.86-4.21.01-2.86-7.15-6.99-9.07-8.98-1.06-1.1-1-3.3-2.42-4.58-1.14-1.03-3.69-1.08-4.65-2.35-1.36-1.78-.36-4.59-1.86-6.14-1.5-1.55-5.42-.97-6.61-2.45-.53-.65.47-2.32-.33-3.56-1.33-2.06-4.09-2.19-5.59-3.46-6.34-5.36-12.23-14.42-17.5-20.5-4.49-5.2-6.67-3.36-11.28-5.72-2.9-1.49-7.54-5.4-10.49-6.51-6.99-2.64-22.14,1.36-19.32-9.63l-.87-1.18c-7.6.16-12.55-3.16-19.07-5.93-1.75-.74-4.09-.45-5.75-1.19-1.58-.7-1.63-2.92-2.85-3.25-1.42-.38-3.29,1.02-4.88.91-1.54-.1-17.72-4.62-13.04,2.04.71,1.01,12.93,1.03,8.56,3.48-3.48,1.95-9.93-1.52-14.02-.51.4-6.21.67-9.02-6.54-8.07-2.28.3-3.53,1.87-5.03,2.07-2.3.31-4.25-1.37-6.64-.82-2.95.68-7.55,3.79-11.52,4.57-2.62.51-5.64-.26-7.61.19-1.2.28-1.11,3.03-2.12,4.07-2.76,2.84-14.99-.07-18.95.06-2.23.07-4.79,1.56-7.2,1.81-6.36.67-11.72-1.51-16.38,4.61,1.9,2.36,5.52,3.89,4.98,7.49-5.26.22-10.27-.51-13.5-4.98-2.38,3.96-5.4,2.41-8.78,3.2-6.31,1.47-3.92,7.18-5.64,8.36-1.31.9-4.48.16-6.37.63-2.02.5-3.46,2.68-5.27,2.84-1.54.14-2.56-.86-3.63-1.52-2.89,1.33-5.82,2.61-8.75,3.9-1.57,2.02-2.71,4.34-2.98,6.14l-12.07,2.44c.27,4.24,7.27,2.27,4.56,8.05-1.92,2.36-5.04-.48-6.91.04-1.6.45-2.07,3.67-3.64,4.42-1.61.78-4.6.2-4.95.55-.24.23.06,2.62-.6,3.86-3.48,6.56-10.2,11.42-15.56,16.48-.88.83-3.08.85-4,2-1.84,2.29-.21,6.93-1.66,10.34-.87,2.05-6.7,7.35-8.71,9.31-3.01,2.94-4.55,1.62-3.54,7.94-.78.87-4.62-1.64-7.64-2.48-.17.38-.39.75-.67,1.11-.65.83-1.34,1.64-2.05,2.43,1.7,1.45,5,2.36,6.35,2.47l1.01,2.97-8.99,4.01,6,.5c1.55,3.86-3.43,6.83-3.85,8.69-.36,1.55,1.12,3.22.76,4.68-.16.65-7.75,8.4-8.92,10.11-1.27,1.87-1.64,4.23-2.77,6.23-1.16,2.03-4.08,3.86-4.27,5.84-.27,2.83,2.3,3.37,2.86,5.15,2.14,6.78-3.78,6.04-5.28,9.32-3.11,6.78.21,12.51.48,18.98l2.5-.68,1.43,1.29c-1.7,4.62,1.06,7.2,1.19,10.87.09,2.51-1.29,5.14-1.1,6.98.27,2.58,3.94,10.4,4.1,13.05.2,3.29-2.76,5.12-2.11,8.49,2.69.44,3.69-3.32,5.66-3.85,5.18-1.4,2.55,5.64,2.84,7.36.18,1.07,1.28,2.31,1.56,3.92.43,2.48.68,8.04,1.43,9.58,1.72,3.52,8.67-.15,7.52,6.43-.26,1.5-2.09,2.83-1.9,3.92.24,1.4,4.09,3.15,3.98,7.17-.07,2.4-2.48,3.88-2,5.78.55,2.2,5.13,3.03,5.79,5.39.63,2.26-1.73,5.29-.67,7.08.18.31,2.07.97,3.05,2.43,3.1,4.59,8.01,16.07,11.29,19.73,1.26,1.4,4.01,1.49,5.96,3.04,8.08,6.44,9.44,11.01,14.47,18.53,1.92,2.87,6.48,4.48,8.57,7.5l.37,1.35-2.46,2.64c1.53,6.43,6.1-.25,7.91.07,1.1.19,3.46,4.39,5.27,5.78,3.43,2.66,8.39,3.35,11.86,6.14,1.81,1.46,3.81,5.16,4.47,5.56,1.21.73,5.63-2.92,8.09-1.13,3.22,2.72-1.58,6.77-.64,8.58,2.2,3.02,5.46,2.52,8.53,3.55,3.62,1.22,1.88.96,6.33,1.66,6.39,1.01,2.32,7.41,2.72,7.78,6.31,2.55,7.45-3.1,13.47-1.99,3.2.59,2.71,3.02,3.79,3.73,2.2,1.44,8.82-.25,7.74,5.26l-10.01,1.01v2.99c5.68-1.57,21.83,5.26,25.83,1.82.53-.45,1.31-6.09,4.64-5.82,5.18,10.81,16.95,2.66,24.01,4.02,2.78.53,4.25,4.39,6.01,3.99,5.75-12.58,9.88-2.21,16.14-2.01,3.81.12,7.25-6.85,12.37-5v4.02c4.8-.31,7.13-3.33,12.42-1.07.88-.17,2.14-7.79,8.25-8.61.72-.1,5.94.65,6.17.85,1,.89-1.1,3.36,3.63,3.87,1.14.12,2.38-.11,3.53-.05l-1-5.99c4.61.05,13.6,4.2,18.01,1.52,1.81-1.1,1.35-4.73,2.61-5.62,2.11-1.47,6.87-.42,9.8-2.96,4.59-3.99-1.05-8.29,4.3-10.7,6.22.72,15.58-4.44,20.81-4.29,3.38.09,4.28,3.4,5.93,3.05,3.94-.84-1.67-6.3-.05-8.03,5.57-1.7,6.87-6.89,11.23-9.8,2.63-1.75,4.97-1.94,7.32-3.67l-2-2.98,3.05-2.1-.87-5.24c4.12-1.98,5.86-5.18,9.33-.19,2.89-6.43,10.83-10.72,13.03-16.95,2.34-6.62,4.85-13.68,7.98-20.02.95-1.91,5.63-3.05,6.34-5.73.78-2.95-1.66-4.69-1.59-5.79.11-1.79,10.12-7.5,6.21-13.49,3.86-2.04,6.43,3.57,10.41-2.61,2.56-3.97-1.01-7.24.25-10.73,2.02-2.33,11.73-13,11.92-15.22.2-2.21-2.19-3.48-2.09-5.86.11-2.47,3.2-4.54,2.94-5.95Z"/>
    </g>
  </g>
</svg>